G04 #@! TF.FileFunction,Copper,L1,Top,Signal*
%FSLAX46Y46*%
G04 Gerber Fmt 4.6, Leading zero omitted, Abs format (unit mm)*
G04 Created by KiCad (PCBNEW 4.0.4-stable) date 08/15/17 16:39:26*
%MOMM*%
%LPD*%
G01*
G04 APERTURE LIST*
%ADD10C,0.100000*%
%ADD11R,6.500000X7.000000*%
%ADD12R,1.750000X1.750000*%
%ADD13C,1.750000*%
%ADD14R,1.700000X1.700000*%
%ADD15O,1.700000X1.700000*%
%ADD16C,0.400000*%
%ADD17C,0.250000*%
%ADD18C,0.254000*%
G04 APERTURE END LIST*
D10*
D11*
X137700000Y-65400000D03*
X137700000Y-149500000D03*
D12*
X124500000Y-112500000D03*
D13*
X122000000Y-112500000D03*
D14*
X122000000Y-71000000D03*
D15*
X124540000Y-71000000D03*
D16*
X124540000Y-71000000D02*
X124540000Y-69460000D01*
X124540000Y-69460000D02*
X128600000Y-65400000D01*
X119000000Y-85500000D02*
X119000000Y-118000000D01*
X127600000Y-65400000D02*
X127100000Y-65400000D01*
X127100000Y-65400000D02*
X122600000Y-65400000D01*
X120000000Y-68000000D02*
X122600000Y-65400000D01*
X120000000Y-84500000D02*
X120000000Y-68000000D01*
X119000000Y-85500000D02*
X120000000Y-84500000D01*
X120000000Y-119000000D02*
X119000000Y-118000000D01*
X125000000Y-119000000D02*
X120000000Y-119000000D01*
X126500000Y-117500000D02*
X125000000Y-119000000D01*
X126500000Y-111000000D02*
X126500000Y-117500000D01*
X126000000Y-110500000D02*
X126500000Y-111000000D01*
X123000000Y-110500000D02*
X126000000Y-110500000D01*
X122000000Y-111500000D02*
X123000000Y-110500000D01*
X122000000Y-111500000D02*
X122000000Y-112500000D01*
X137700000Y-65400000D02*
X128600000Y-65400000D01*
X128600000Y-65400000D02*
X127600000Y-65400000D01*
X128000000Y-73500000D02*
X123000000Y-73500000D01*
X129000000Y-108500000D02*
X129000000Y-74500000D01*
X128000000Y-73500000D02*
X129000000Y-74500000D01*
X122000000Y-72500000D02*
X122000000Y-71000000D01*
X123000000Y-73500000D02*
X122000000Y-72500000D01*
X124500000Y-112500000D02*
X124500000Y-113000000D01*
X124500000Y-113000000D02*
X123000000Y-114500000D01*
X123000000Y-114500000D02*
X121500000Y-114500000D01*
X121500000Y-114500000D02*
X120000000Y-113000000D01*
X120000000Y-113000000D02*
X120000000Y-110500000D01*
X120000000Y-110500000D02*
X122000000Y-108500000D01*
X122000000Y-108500000D02*
X129000000Y-108500000D01*
D17*
X122000000Y-71000000D02*
X122000000Y-71500000D01*
D16*
X135500000Y-145000000D02*
X135500000Y-147300000D01*
X129000000Y-138500000D02*
X135500000Y-145000000D01*
X129000000Y-108500000D02*
X129000000Y-138500000D01*
D17*
X135500000Y-147300000D02*
X137700000Y-149500000D01*
D18*
G36*
X133815000Y-65114250D02*
X133973750Y-65273000D01*
X137573000Y-65273000D01*
X137573000Y-65253000D01*
X137827000Y-65253000D01*
X137827000Y-65273000D01*
X141426250Y-65273000D01*
X141585000Y-65114250D01*
X141585000Y-62710000D01*
X146610778Y-62710000D01*
X146520166Y-62845611D01*
X146390000Y-63500000D01*
X146520166Y-64154389D01*
X146890847Y-64709153D01*
X147445611Y-65079834D01*
X148100000Y-65210000D01*
X148754389Y-65079834D01*
X148890000Y-64989222D01*
X148890000Y-149871548D01*
X148799558Y-149811117D01*
X148100000Y-149671966D01*
X147400442Y-149811117D01*
X146807385Y-150207385D01*
X146411117Y-150800442D01*
X146271966Y-151500000D01*
X146411117Y-152199558D01*
X146471548Y-152290000D01*
X141597440Y-152290000D01*
X141597440Y-146000000D01*
X141553162Y-145764683D01*
X141414090Y-145548559D01*
X141201890Y-145403569D01*
X140950000Y-145352560D01*
X136335000Y-145352560D01*
X136335000Y-145000000D01*
X136271439Y-144680459D01*
X136090434Y-144409566D01*
X129835000Y-138154132D01*
X129835000Y-74500000D01*
X129771440Y-74180460D01*
X129590434Y-73909566D01*
X128590434Y-72909566D01*
X128455702Y-72819541D01*
X128319541Y-72728561D01*
X128000000Y-72665000D01*
X123345868Y-72665000D01*
X123114957Y-72434089D01*
X123301441Y-72314090D01*
X123446431Y-72101890D01*
X123468301Y-71993893D01*
X123773076Y-72271645D01*
X124183110Y-72441476D01*
X124413000Y-72320155D01*
X124413000Y-71127000D01*
X124667000Y-71127000D01*
X124667000Y-72320155D01*
X124896890Y-72441476D01*
X125306924Y-72271645D01*
X125735183Y-71881358D01*
X125981486Y-71356892D01*
X125860819Y-71127000D01*
X124667000Y-71127000D01*
X124413000Y-71127000D01*
X124393000Y-71127000D01*
X124393000Y-70873000D01*
X124413000Y-70873000D01*
X124413000Y-69679845D01*
X124667000Y-69679845D01*
X124667000Y-70873000D01*
X125860819Y-70873000D01*
X125981486Y-70643108D01*
X125735183Y-70118642D01*
X125306924Y-69728355D01*
X124896890Y-69558524D01*
X124667000Y-69679845D01*
X124413000Y-69679845D01*
X124183110Y-69558524D01*
X123773076Y-69728355D01*
X123470063Y-70004501D01*
X123453162Y-69914683D01*
X123314090Y-69698559D01*
X123101890Y-69553569D01*
X122850000Y-69502560D01*
X121150000Y-69502560D01*
X120914683Y-69546838D01*
X120698559Y-69685910D01*
X120553569Y-69898110D01*
X120502560Y-70150000D01*
X120502560Y-71850000D01*
X120546838Y-72085317D01*
X120685910Y-72301441D01*
X120898110Y-72446431D01*
X121150000Y-72497440D01*
X121165000Y-72497440D01*
X121165000Y-72500000D01*
X121228561Y-72819541D01*
X121288714Y-72909566D01*
X121409566Y-73090434D01*
X122409566Y-74090434D01*
X122680460Y-74271440D01*
X123000000Y-74335000D01*
X127654132Y-74335000D01*
X128165000Y-74845868D01*
X128165000Y-107665000D01*
X122000000Y-107665000D01*
X121680459Y-107728561D01*
X121409566Y-107909566D01*
X119409566Y-109909566D01*
X119228561Y-110180459D01*
X119165000Y-110500000D01*
X119165000Y-113000000D01*
X119228561Y-113319541D01*
X119265618Y-113375000D01*
X119409566Y-113590434D01*
X120909566Y-115090434D01*
X121180459Y-115271439D01*
X121500000Y-115335000D01*
X123000000Y-115335000D01*
X123319541Y-115271439D01*
X123590434Y-115090434D01*
X124658428Y-114022440D01*
X125375000Y-114022440D01*
X125610317Y-113978162D01*
X125826441Y-113839090D01*
X125971431Y-113626890D01*
X126022440Y-113375000D01*
X126022440Y-111625000D01*
X125978162Y-111389683D01*
X125839090Y-111173559D01*
X125626890Y-111028569D01*
X125375000Y-110977560D01*
X123625000Y-110977560D01*
X123389683Y-111021838D01*
X123173559Y-111160910D01*
X123036006Y-111362226D01*
X122997086Y-111323306D01*
X122882454Y-111437938D01*
X122799116Y-111184047D01*
X122234694Y-110978410D01*
X121634542Y-111004421D01*
X121200884Y-111184047D01*
X121117545Y-111437940D01*
X122000000Y-112320395D01*
X122014143Y-112306253D01*
X122193748Y-112485858D01*
X122179605Y-112500000D01*
X122193748Y-112514143D01*
X122014143Y-112693748D01*
X122000000Y-112679605D01*
X121985858Y-112693748D01*
X121806253Y-112514143D01*
X121820395Y-112500000D01*
X120937940Y-111617545D01*
X120835000Y-111651334D01*
X120835000Y-110845868D01*
X122345868Y-109335000D01*
X128165000Y-109335000D01*
X128165000Y-138500000D01*
X128228561Y-138819541D01*
X128409566Y-139090434D01*
X134665000Y-145345868D01*
X134665000Y-145352560D01*
X134450000Y-145352560D01*
X134214683Y-145396838D01*
X133998559Y-145535910D01*
X133853569Y-145748110D01*
X133802560Y-146000000D01*
X133802560Y-152290000D01*
X121228452Y-152290000D01*
X121288883Y-152199558D01*
X121428034Y-151500000D01*
X121288883Y-150800442D01*
X120892615Y-150207385D01*
X120299558Y-149811117D01*
X119600000Y-149671966D01*
X118900442Y-149811117D01*
X118810000Y-149871548D01*
X118810000Y-87000000D01*
X119790000Y-87000000D01*
X119790000Y-96500000D01*
X119844046Y-96771705D01*
X119997954Y-97002046D01*
X120228295Y-97155954D01*
X120500000Y-97210000D01*
X126000000Y-97210000D01*
X126271705Y-97155954D01*
X126502046Y-97002046D01*
X126655954Y-96771705D01*
X126710000Y-96500000D01*
X126710000Y-87000000D01*
X126655954Y-86728295D01*
X126502046Y-86497954D01*
X126271705Y-86344046D01*
X126000000Y-86290000D01*
X120500000Y-86290000D01*
X120228295Y-86344046D01*
X119997954Y-86497954D01*
X119844046Y-86728295D01*
X119790000Y-87000000D01*
X118810000Y-87000000D01*
X118810000Y-65685750D01*
X133815000Y-65685750D01*
X133815000Y-69026309D01*
X133911673Y-69259698D01*
X134090301Y-69438327D01*
X134323690Y-69535000D01*
X137414250Y-69535000D01*
X137573000Y-69376250D01*
X137573000Y-65527000D01*
X137827000Y-65527000D01*
X137827000Y-69376250D01*
X137985750Y-69535000D01*
X141076310Y-69535000D01*
X141309699Y-69438327D01*
X141488327Y-69259698D01*
X141585000Y-69026309D01*
X141585000Y-65685750D01*
X141426250Y-65527000D01*
X137827000Y-65527000D01*
X137573000Y-65527000D01*
X133973750Y-65527000D01*
X133815000Y-65685750D01*
X118810000Y-65685750D01*
X118810000Y-65128452D01*
X118900442Y-65188883D01*
X119600000Y-65328034D01*
X120299558Y-65188883D01*
X120892615Y-64792615D01*
X121288883Y-64199558D01*
X121428034Y-63500000D01*
X121288883Y-62800442D01*
X121228452Y-62710000D01*
X133815000Y-62710000D01*
X133815000Y-65114250D01*
X133815000Y-65114250D01*
G37*
X133815000Y-65114250D02*
X133973750Y-65273000D01*
X137573000Y-65273000D01*
X137573000Y-65253000D01*
X137827000Y-65253000D01*
X137827000Y-65273000D01*
X141426250Y-65273000D01*
X141585000Y-65114250D01*
X141585000Y-62710000D01*
X146610778Y-62710000D01*
X146520166Y-62845611D01*
X146390000Y-63500000D01*
X146520166Y-64154389D01*
X146890847Y-64709153D01*
X147445611Y-65079834D01*
X148100000Y-65210000D01*
X148754389Y-65079834D01*
X148890000Y-64989222D01*
X148890000Y-149871548D01*
X148799558Y-149811117D01*
X148100000Y-149671966D01*
X147400442Y-149811117D01*
X146807385Y-150207385D01*
X146411117Y-150800442D01*
X146271966Y-151500000D01*
X146411117Y-152199558D01*
X146471548Y-152290000D01*
X141597440Y-152290000D01*
X141597440Y-146000000D01*
X141553162Y-145764683D01*
X141414090Y-145548559D01*
X141201890Y-145403569D01*
X140950000Y-145352560D01*
X136335000Y-145352560D01*
X136335000Y-145000000D01*
X136271439Y-144680459D01*
X136090434Y-144409566D01*
X129835000Y-138154132D01*
X129835000Y-74500000D01*
X129771440Y-74180460D01*
X129590434Y-73909566D01*
X128590434Y-72909566D01*
X128455702Y-72819541D01*
X128319541Y-72728561D01*
X128000000Y-72665000D01*
X123345868Y-72665000D01*
X123114957Y-72434089D01*
X123301441Y-72314090D01*
X123446431Y-72101890D01*
X123468301Y-71993893D01*
X123773076Y-72271645D01*
X124183110Y-72441476D01*
X124413000Y-72320155D01*
X124413000Y-71127000D01*
X124667000Y-71127000D01*
X124667000Y-72320155D01*
X124896890Y-72441476D01*
X125306924Y-72271645D01*
X125735183Y-71881358D01*
X125981486Y-71356892D01*
X125860819Y-71127000D01*
X124667000Y-71127000D01*
X124413000Y-71127000D01*
X124393000Y-71127000D01*
X124393000Y-70873000D01*
X124413000Y-70873000D01*
X124413000Y-69679845D01*
X124667000Y-69679845D01*
X124667000Y-70873000D01*
X125860819Y-70873000D01*
X125981486Y-70643108D01*
X125735183Y-70118642D01*
X125306924Y-69728355D01*
X124896890Y-69558524D01*
X124667000Y-69679845D01*
X124413000Y-69679845D01*
X124183110Y-69558524D01*
X123773076Y-69728355D01*
X123470063Y-70004501D01*
X123453162Y-69914683D01*
X123314090Y-69698559D01*
X123101890Y-69553569D01*
X122850000Y-69502560D01*
X121150000Y-69502560D01*
X120914683Y-69546838D01*
X120698559Y-69685910D01*
X120553569Y-69898110D01*
X120502560Y-70150000D01*
X120502560Y-71850000D01*
X120546838Y-72085317D01*
X120685910Y-72301441D01*
X120898110Y-72446431D01*
X121150000Y-72497440D01*
X121165000Y-72497440D01*
X121165000Y-72500000D01*
X121228561Y-72819541D01*
X121288714Y-72909566D01*
X121409566Y-73090434D01*
X122409566Y-74090434D01*
X122680460Y-74271440D01*
X123000000Y-74335000D01*
X127654132Y-74335000D01*
X128165000Y-74845868D01*
X128165000Y-107665000D01*
X122000000Y-107665000D01*
X121680459Y-107728561D01*
X121409566Y-107909566D01*
X119409566Y-109909566D01*
X119228561Y-110180459D01*
X119165000Y-110500000D01*
X119165000Y-113000000D01*
X119228561Y-113319541D01*
X119265618Y-113375000D01*
X119409566Y-113590434D01*
X120909566Y-115090434D01*
X121180459Y-115271439D01*
X121500000Y-115335000D01*
X123000000Y-115335000D01*
X123319541Y-115271439D01*
X123590434Y-115090434D01*
X124658428Y-114022440D01*
X125375000Y-114022440D01*
X125610317Y-113978162D01*
X125826441Y-113839090D01*
X125971431Y-113626890D01*
X126022440Y-113375000D01*
X126022440Y-111625000D01*
X125978162Y-111389683D01*
X125839090Y-111173559D01*
X125626890Y-111028569D01*
X125375000Y-110977560D01*
X123625000Y-110977560D01*
X123389683Y-111021838D01*
X123173559Y-111160910D01*
X123036006Y-111362226D01*
X122997086Y-111323306D01*
X122882454Y-111437938D01*
X122799116Y-111184047D01*
X122234694Y-110978410D01*
X121634542Y-111004421D01*
X121200884Y-111184047D01*
X121117545Y-111437940D01*
X122000000Y-112320395D01*
X122014143Y-112306253D01*
X122193748Y-112485858D01*
X122179605Y-112500000D01*
X122193748Y-112514143D01*
X122014143Y-112693748D01*
X122000000Y-112679605D01*
X121985858Y-112693748D01*
X121806253Y-112514143D01*
X121820395Y-112500000D01*
X120937940Y-111617545D01*
X120835000Y-111651334D01*
X120835000Y-110845868D01*
X122345868Y-109335000D01*
X128165000Y-109335000D01*
X128165000Y-138500000D01*
X128228561Y-138819541D01*
X128409566Y-139090434D01*
X134665000Y-145345868D01*
X134665000Y-145352560D01*
X134450000Y-145352560D01*
X134214683Y-145396838D01*
X133998559Y-145535910D01*
X133853569Y-145748110D01*
X133802560Y-146000000D01*
X133802560Y-152290000D01*
X121228452Y-152290000D01*
X121288883Y-152199558D01*
X121428034Y-151500000D01*
X121288883Y-150800442D01*
X120892615Y-150207385D01*
X120299558Y-149811117D01*
X119600000Y-149671966D01*
X118900442Y-149811117D01*
X118810000Y-149871548D01*
X118810000Y-87000000D01*
X119790000Y-87000000D01*
X119790000Y-96500000D01*
X119844046Y-96771705D01*
X119997954Y-97002046D01*
X120228295Y-97155954D01*
X120500000Y-97210000D01*
X126000000Y-97210000D01*
X126271705Y-97155954D01*
X126502046Y-97002046D01*
X126655954Y-96771705D01*
X126710000Y-96500000D01*
X126710000Y-87000000D01*
X126655954Y-86728295D01*
X126502046Y-86497954D01*
X126271705Y-86344046D01*
X126000000Y-86290000D01*
X120500000Y-86290000D01*
X120228295Y-86344046D01*
X119997954Y-86497954D01*
X119844046Y-86728295D01*
X119790000Y-87000000D01*
X118810000Y-87000000D01*
X118810000Y-65685750D01*
X133815000Y-65685750D01*
X133815000Y-69026309D01*
X133911673Y-69259698D01*
X134090301Y-69438327D01*
X134323690Y-69535000D01*
X137414250Y-69535000D01*
X137573000Y-69376250D01*
X137573000Y-65527000D01*
X137827000Y-65527000D01*
X137827000Y-69376250D01*
X137985750Y-69535000D01*
X141076310Y-69535000D01*
X141309699Y-69438327D01*
X141488327Y-69259698D01*
X141585000Y-69026309D01*
X141585000Y-65685750D01*
X141426250Y-65527000D01*
X137827000Y-65527000D01*
X137573000Y-65527000D01*
X133973750Y-65527000D01*
X133815000Y-65685750D01*
X118810000Y-65685750D01*
X118810000Y-65128452D01*
X118900442Y-65188883D01*
X119600000Y-65328034D01*
X120299558Y-65188883D01*
X120892615Y-64792615D01*
X121288883Y-64199558D01*
X121428034Y-63500000D01*
X121288883Y-62800442D01*
X121228452Y-62710000D01*
X133815000Y-62710000D01*
X133815000Y-65114250D01*
M02*
