G04 #@! TF.FileFunction,Legend,Bot*
%FSLAX46Y46*%
G04 Gerber Fmt 4.6, Leading zero omitted, Abs format (unit mm)*
G04 Created by KiCad (PCBNEW 4.0.4-stable) date 08/15/17 20:15:11*
%MOMM*%
%LPD*%
G01*
G04 APERTURE LIST*
%ADD10C,0.100000*%
%ADD11C,0.150000*%
%ADD12C,0.120000*%
%ADD13C,0.300000*%
G04 APERTURE END LIST*
D10*
X117876190Y-89428571D02*
X118209524Y-89428571D01*
X118209524Y-89952381D02*
X118209524Y-88952381D01*
X117733333Y-88952381D01*
X117352381Y-89571429D02*
X116590476Y-89571429D01*
X118076190Y-84428571D02*
X118409524Y-84428571D01*
X118409524Y-84952381D02*
X118409524Y-83952381D01*
X117933333Y-83952381D01*
X117552381Y-84571429D02*
X116790476Y-84571429D01*
X117171428Y-84952381D02*
X117171428Y-84190476D01*
X118433334Y-80052381D02*
X118433334Y-79052381D01*
X118052381Y-79052381D01*
X117957143Y-79100000D01*
X117909524Y-79147619D01*
X117861905Y-79242857D01*
X117861905Y-79385714D01*
X117909524Y-79480952D01*
X117957143Y-79528571D01*
X118052381Y-79576190D01*
X118433334Y-79576190D01*
X117576191Y-79385714D02*
X117195239Y-79385714D01*
X117433334Y-79052381D02*
X117433334Y-79909524D01*
X117385715Y-80004762D01*
X117290477Y-80052381D01*
X117195239Y-80052381D01*
X117004762Y-79385714D02*
X116623810Y-79385714D01*
X116861905Y-79052381D02*
X116861905Y-79909524D01*
X116814286Y-80004762D01*
X116719048Y-80052381D01*
X116623810Y-80052381D01*
X118452381Y-73552381D02*
X118119048Y-74552381D01*
X117785714Y-73552381D01*
X117452381Y-74171429D02*
X116690476Y-74171429D01*
X118352381Y-68852381D02*
X118019048Y-69852381D01*
X117685714Y-68852381D01*
X117352381Y-69471429D02*
X116590476Y-69471429D01*
X116971428Y-69852381D02*
X116971428Y-69090476D01*
D11*
X146633333Y-133852381D02*
X146538094Y-133852381D01*
X146442856Y-133900000D01*
X146395237Y-133947619D01*
X146347618Y-134042857D01*
X146299999Y-134233333D01*
X146299999Y-134471429D01*
X146347618Y-134661905D01*
X146395237Y-134757143D01*
X146442856Y-134804762D01*
X146538094Y-134852381D01*
X146633333Y-134852381D01*
X146728571Y-134804762D01*
X146776190Y-134757143D01*
X146823809Y-134661905D01*
X146871428Y-134471429D01*
X146871428Y-134233333D01*
X146823809Y-134042857D01*
X146776190Y-133947619D01*
X146728571Y-133900000D01*
X146633333Y-133852381D01*
X145871428Y-134757143D02*
X145823809Y-134804762D01*
X145871428Y-134852381D01*
X145919047Y-134804762D01*
X145871428Y-134757143D01*
X145871428Y-134852381D01*
X144919047Y-133852381D02*
X145395238Y-133852381D01*
X145442857Y-134328571D01*
X145395238Y-134280952D01*
X145300000Y-134233333D01*
X145061904Y-134233333D01*
X144966666Y-134280952D01*
X144919047Y-134328571D01*
X144871428Y-134423810D01*
X144871428Y-134661905D01*
X144919047Y-134757143D01*
X144966666Y-134804762D01*
X145061904Y-134852381D01*
X145300000Y-134852381D01*
X145395238Y-134804762D01*
X145442857Y-134757143D01*
X143728571Y-133804762D02*
X144585714Y-135090476D01*
X142871428Y-134852381D02*
X143442857Y-134852381D01*
X143157143Y-134852381D02*
X143157143Y-133852381D01*
X143252381Y-133995238D01*
X143347619Y-134090476D01*
X143442857Y-134138095D01*
X142538095Y-133852381D02*
X142300000Y-134852381D01*
X142109523Y-134138095D01*
X141919047Y-134852381D01*
X141680952Y-133852381D01*
X146100000Y-79552381D02*
X146100000Y-78552381D01*
X144909524Y-78504762D02*
X145766667Y-79790476D01*
X144385715Y-78552381D02*
X144290476Y-78552381D01*
X144195238Y-78600000D01*
X144147619Y-78647619D01*
X144100000Y-78742857D01*
X144052381Y-78933333D01*
X144052381Y-79171429D01*
X144100000Y-79361905D01*
X144147619Y-79457143D01*
X144195238Y-79504762D01*
X144290476Y-79552381D01*
X144385715Y-79552381D01*
X144480953Y-79504762D01*
X144528572Y-79457143D01*
X144576191Y-79361905D01*
X144623810Y-79171429D01*
X144623810Y-78933333D01*
X144576191Y-78742857D01*
X144528572Y-78647619D01*
X144480953Y-78600000D01*
X144385715Y-78552381D01*
D10*
X144376190Y-68471429D02*
X143614285Y-68471429D01*
X143995237Y-68852381D02*
X143995237Y-68090476D01*
X142804761Y-68328571D02*
X142661904Y-68376190D01*
X142614285Y-68423810D01*
X142566666Y-68519048D01*
X142566666Y-68661905D01*
X142614285Y-68757143D01*
X142661904Y-68804762D01*
X142757142Y-68852381D01*
X143138095Y-68852381D01*
X143138095Y-67852381D01*
X142804761Y-67852381D01*
X142709523Y-67900000D01*
X142661904Y-67947619D01*
X142614285Y-68042857D01*
X142614285Y-68138095D01*
X142661904Y-68233333D01*
X142709523Y-68280952D01*
X142804761Y-68328571D01*
X143138095Y-68328571D01*
X142185714Y-67947619D02*
X142138095Y-67900000D01*
X142042857Y-67852381D01*
X141804761Y-67852381D01*
X141709523Y-67900000D01*
X141661904Y-67947619D01*
X141614285Y-68042857D01*
X141614285Y-68138095D01*
X141661904Y-68280952D01*
X142233333Y-68852381D01*
X141614285Y-68852381D01*
X140471428Y-67804762D02*
X141328571Y-69090476D01*
X140138095Y-68471429D02*
X139376190Y-68471429D01*
X138566666Y-68328571D02*
X138423809Y-68376190D01*
X138376190Y-68423810D01*
X138328571Y-68519048D01*
X138328571Y-68661905D01*
X138376190Y-68757143D01*
X138423809Y-68804762D01*
X138519047Y-68852381D01*
X138900000Y-68852381D01*
X138900000Y-67852381D01*
X138566666Y-67852381D01*
X138471428Y-67900000D01*
X138423809Y-67947619D01*
X138376190Y-68042857D01*
X138376190Y-68138095D01*
X138423809Y-68233333D01*
X138471428Y-68280952D01*
X138566666Y-68328571D01*
X138900000Y-68328571D01*
X137947619Y-67947619D02*
X137900000Y-67900000D01*
X137804762Y-67852381D01*
X137566666Y-67852381D01*
X137471428Y-67900000D01*
X137423809Y-67947619D01*
X137376190Y-68042857D01*
X137376190Y-68138095D01*
X137423809Y-68280952D01*
X137995238Y-68852381D01*
X137376190Y-68852381D01*
D12*
X122520000Y-137500000D02*
X122520000Y-139500000D01*
X120480000Y-139500000D02*
X120480000Y-137500000D01*
X120270000Y-137500000D02*
X120270000Y-139500000D01*
X118230000Y-139500000D02*
X118230000Y-137500000D01*
D11*
X142406000Y-109542000D02*
X142406000Y-72458000D01*
X142406000Y-72458000D02*
X122340000Y-72458000D01*
X122340000Y-72458000D02*
X122340000Y-109288000D01*
X122340000Y-109288000D02*
X142406000Y-109542000D01*
D12*
X130250000Y-121930000D02*
X128250000Y-121930000D01*
X128250000Y-124070000D02*
X130250000Y-124070000D01*
D11*
X124750000Y-110500000D02*
X139750000Y-110500000D01*
X139750000Y-110500000D02*
X139750000Y-121500000D01*
X139750000Y-121500000D02*
X124750000Y-121500000D01*
X124750000Y-121500000D02*
X124750000Y-110500000D01*
D12*
X143880000Y-141150000D02*
X143880000Y-141350000D01*
X148020000Y-138350000D02*
X148230000Y-138550000D01*
X148020000Y-139650000D02*
X148230000Y-139450000D01*
X146730000Y-138350000D02*
X148020000Y-138350000D01*
X148230000Y-138550000D02*
X148230000Y-139450000D01*
X148020000Y-139650000D02*
X146730000Y-139650000D01*
X146730000Y-136900000D02*
X146730000Y-142600000D01*
X143880000Y-138150000D02*
X143880000Y-139850000D01*
X144930000Y-136300000D02*
X145720000Y-136300000D01*
X145720000Y-143200000D02*
X144930000Y-143200000D01*
X143880000Y-73150000D02*
X143880000Y-73350000D01*
X148020000Y-70350000D02*
X148230000Y-70550000D01*
X148020000Y-71650000D02*
X148230000Y-71450000D01*
X146730000Y-70350000D02*
X148020000Y-70350000D01*
X148230000Y-70550000D02*
X148230000Y-71450000D01*
X148020000Y-71650000D02*
X146730000Y-71650000D01*
X146730000Y-68900000D02*
X146730000Y-74600000D01*
X143880000Y-70150000D02*
X143880000Y-71850000D01*
X144930000Y-68300000D02*
X145720000Y-68300000D01*
X145720000Y-75200000D02*
X144930000Y-75200000D01*
D11*
X138500000Y-124400000D02*
X125600000Y-124400000D01*
X125600000Y-124400000D02*
X125600000Y-124100000D01*
X125600000Y-124200000D02*
X125600000Y-122100000D01*
X125600000Y-122100000D02*
X125300000Y-122100000D01*
X141000000Y-124200000D02*
X141000000Y-122100000D01*
X141000000Y-122100000D02*
X138500000Y-122100000D01*
X138500000Y-122100000D02*
X138500000Y-124400000D01*
X125300000Y-122100000D02*
X123200000Y-122100000D01*
X123200000Y-122100000D02*
X123200000Y-150500000D01*
X123200000Y-150500000D02*
X141000000Y-150500000D01*
X133800000Y-150100000D02*
X133800000Y-147600000D01*
X133800000Y-147600000D02*
X130000000Y-147600000D01*
X130000000Y-147600000D02*
X130000000Y-150100000D01*
X130000000Y-150100000D02*
X133700000Y-150100000D01*
X141000000Y-150500000D02*
X141000000Y-124200000D01*
X121957143Y-134233334D02*
X122004762Y-134185715D01*
X122052381Y-134042858D01*
X122052381Y-133947620D01*
X122004762Y-133804762D01*
X121909524Y-133709524D01*
X121814286Y-133661905D01*
X121623810Y-133614286D01*
X121480952Y-133614286D01*
X121290476Y-133661905D01*
X121195238Y-133709524D01*
X121100000Y-133804762D01*
X121052381Y-133947620D01*
X121052381Y-134042858D01*
X121100000Y-134185715D01*
X121147619Y-134233334D01*
X122052381Y-135185715D02*
X122052381Y-134614286D01*
X122052381Y-134900000D02*
X121052381Y-134900000D01*
X121195238Y-134804762D01*
X121290476Y-134709524D01*
X121338095Y-134614286D01*
X121952381Y-142452381D02*
X121952381Y-141880952D01*
X121952381Y-142166666D02*
X120952381Y-142166666D01*
X121095238Y-142071428D01*
X121190476Y-141976190D01*
X121238095Y-141880952D01*
X120952381Y-143071428D02*
X120952381Y-143166667D01*
X121000000Y-143261905D01*
X121047619Y-143309524D01*
X121142857Y-143357143D01*
X121333333Y-143404762D01*
X121571429Y-143404762D01*
X121761905Y-143357143D01*
X121857143Y-143309524D01*
X121904762Y-143261905D01*
X121952381Y-143166667D01*
X121952381Y-143071428D01*
X121904762Y-142976190D01*
X121857143Y-142928571D01*
X121761905Y-142880952D01*
X121571429Y-142833333D01*
X121333333Y-142833333D01*
X121142857Y-142880952D01*
X121047619Y-142928571D01*
X121000000Y-142976190D01*
X120952381Y-143071428D01*
X120952381Y-144023809D02*
X120952381Y-144119048D01*
X121000000Y-144214286D01*
X121047619Y-144261905D01*
X121142857Y-144309524D01*
X121333333Y-144357143D01*
X121571429Y-144357143D01*
X121761905Y-144309524D01*
X121857143Y-144261905D01*
X121904762Y-144214286D01*
X121952381Y-144119048D01*
X121952381Y-144023809D01*
X121904762Y-143928571D01*
X121857143Y-143880952D01*
X121761905Y-143833333D01*
X121571429Y-143785714D01*
X121333333Y-143785714D01*
X121142857Y-143833333D01*
X121047619Y-143880952D01*
X121000000Y-143928571D01*
X120952381Y-144023809D01*
X121285714Y-144785714D02*
X121952381Y-144785714D01*
X121380952Y-144785714D02*
X121333333Y-144833333D01*
X121285714Y-144928571D01*
X121285714Y-145071429D01*
X121333333Y-145166667D01*
X121428571Y-145214286D01*
X121952381Y-145214286D01*
X121428571Y-146023810D02*
X121428571Y-145690476D01*
X121952381Y-145690476D02*
X120952381Y-145690476D01*
X120952381Y-146166667D01*
X119557143Y-134133334D02*
X119604762Y-134085715D01*
X119652381Y-133942858D01*
X119652381Y-133847620D01*
X119604762Y-133704762D01*
X119509524Y-133609524D01*
X119414286Y-133561905D01*
X119223810Y-133514286D01*
X119080952Y-133514286D01*
X118890476Y-133561905D01*
X118795238Y-133609524D01*
X118700000Y-133704762D01*
X118652381Y-133847620D01*
X118652381Y-133942858D01*
X118700000Y-134085715D01*
X118747619Y-134133334D01*
X118652381Y-134990477D02*
X118652381Y-134800000D01*
X118700000Y-134704762D01*
X118747619Y-134657143D01*
X118890476Y-134561905D01*
X119080952Y-134514286D01*
X119461905Y-134514286D01*
X119557143Y-134561905D01*
X119604762Y-134609524D01*
X119652381Y-134704762D01*
X119652381Y-134895239D01*
X119604762Y-134990477D01*
X119557143Y-135038096D01*
X119461905Y-135085715D01*
X119223810Y-135085715D01*
X119128571Y-135038096D01*
X119080952Y-134990477D01*
X119033333Y-134895239D01*
X119033333Y-134704762D01*
X119080952Y-134609524D01*
X119128571Y-134561905D01*
X119223810Y-134514286D01*
X119502381Y-142352381D02*
X119502381Y-141780952D01*
X119502381Y-142066666D02*
X118502381Y-142066666D01*
X118645238Y-141971428D01*
X118740476Y-141876190D01*
X118788095Y-141780952D01*
X118502381Y-142971428D02*
X118502381Y-143066667D01*
X118550000Y-143161905D01*
X118597619Y-143209524D01*
X118692857Y-143257143D01*
X118883333Y-143304762D01*
X119121429Y-143304762D01*
X119311905Y-143257143D01*
X119407143Y-143209524D01*
X119454762Y-143161905D01*
X119502381Y-143066667D01*
X119502381Y-142971428D01*
X119454762Y-142876190D01*
X119407143Y-142828571D01*
X119311905Y-142780952D01*
X119121429Y-142733333D01*
X118883333Y-142733333D01*
X118692857Y-142780952D01*
X118597619Y-142828571D01*
X118550000Y-142876190D01*
X118502381Y-142971428D01*
X118502381Y-143923809D02*
X118502381Y-144019048D01*
X118550000Y-144114286D01*
X118597619Y-144161905D01*
X118692857Y-144209524D01*
X118883333Y-144257143D01*
X119121429Y-144257143D01*
X119311905Y-144209524D01*
X119407143Y-144161905D01*
X119454762Y-144114286D01*
X119502381Y-144019048D01*
X119502381Y-143923809D01*
X119454762Y-143828571D01*
X119407143Y-143780952D01*
X119311905Y-143733333D01*
X119121429Y-143685714D01*
X118883333Y-143685714D01*
X118692857Y-143733333D01*
X118597619Y-143780952D01*
X118550000Y-143828571D01*
X118502381Y-143923809D01*
X118835714Y-144685714D02*
X119502381Y-144685714D01*
X118930952Y-144685714D02*
X118883333Y-144733333D01*
X118835714Y-144828571D01*
X118835714Y-144971429D01*
X118883333Y-145066667D01*
X118978571Y-145114286D01*
X119502381Y-145114286D01*
X118978571Y-145923810D02*
X118978571Y-145590476D01*
X119502381Y-145590476D02*
X118502381Y-145590476D01*
X118502381Y-146066667D01*
X120982667Y-74275809D02*
X120982667Y-74752000D01*
X121268381Y-74180571D02*
X120268381Y-74513904D01*
X121268381Y-74847238D01*
X120601714Y-75180571D02*
X121268381Y-75180571D01*
X120696952Y-75180571D02*
X120649333Y-75228190D01*
X120601714Y-75323428D01*
X120601714Y-75466286D01*
X120649333Y-75561524D01*
X120744571Y-75609143D01*
X121268381Y-75609143D01*
X120601714Y-75942476D02*
X120601714Y-76323428D01*
X120268381Y-76085333D02*
X121125524Y-76085333D01*
X121220762Y-76132952D01*
X121268381Y-76228190D01*
X121268381Y-76323428D01*
X119744381Y-86904762D02*
X118744381Y-86904762D01*
X118744381Y-87142857D01*
X118792000Y-87285715D01*
X118887238Y-87380953D01*
X118982476Y-87428572D01*
X119172952Y-87476191D01*
X119315810Y-87476191D01*
X119506286Y-87428572D01*
X119601524Y-87380953D01*
X119696762Y-87285715D01*
X119744381Y-87142857D01*
X119744381Y-86904762D01*
X119744381Y-88476191D02*
X119268190Y-88142857D01*
X119744381Y-87904762D02*
X118744381Y-87904762D01*
X118744381Y-88285715D01*
X118792000Y-88380953D01*
X118839619Y-88428572D01*
X118934857Y-88476191D01*
X119077714Y-88476191D01*
X119172952Y-88428572D01*
X119220571Y-88380953D01*
X119268190Y-88285715D01*
X119268190Y-87904762D01*
X119458667Y-88857143D02*
X119458667Y-89333334D01*
X119744381Y-88761905D02*
X118744381Y-89095238D01*
X119744381Y-89428572D01*
X119172952Y-89904762D02*
X119125333Y-89809524D01*
X119077714Y-89761905D01*
X118982476Y-89714286D01*
X118934857Y-89714286D01*
X118839619Y-89761905D01*
X118792000Y-89809524D01*
X118744381Y-89904762D01*
X118744381Y-90095239D01*
X118792000Y-90190477D01*
X118839619Y-90238096D01*
X118934857Y-90285715D01*
X118982476Y-90285715D01*
X119077714Y-90238096D01*
X119125333Y-90190477D01*
X119172952Y-90095239D01*
X119172952Y-89904762D01*
X119220571Y-89809524D01*
X119268190Y-89761905D01*
X119363429Y-89714286D01*
X119553905Y-89714286D01*
X119649143Y-89761905D01*
X119696762Y-89809524D01*
X119744381Y-89904762D01*
X119744381Y-90095239D01*
X119696762Y-90190477D01*
X119649143Y-90238096D01*
X119553905Y-90285715D01*
X119363429Y-90285715D01*
X119268190Y-90238096D01*
X119220571Y-90190477D01*
X119172952Y-90095239D01*
X119744381Y-91238096D02*
X119744381Y-90666667D01*
X119744381Y-90952381D02*
X118744381Y-90952381D01*
X118887238Y-90857143D01*
X118982476Y-90761905D01*
X119030095Y-90666667D01*
X119172952Y-91809524D02*
X119125333Y-91714286D01*
X119077714Y-91666667D01*
X118982476Y-91619048D01*
X118934857Y-91619048D01*
X118839619Y-91666667D01*
X118792000Y-91714286D01*
X118744381Y-91809524D01*
X118744381Y-92000001D01*
X118792000Y-92095239D01*
X118839619Y-92142858D01*
X118934857Y-92190477D01*
X118982476Y-92190477D01*
X119077714Y-92142858D01*
X119125333Y-92095239D01*
X119172952Y-92000001D01*
X119172952Y-91809524D01*
X119220571Y-91714286D01*
X119268190Y-91666667D01*
X119363429Y-91619048D01*
X119553905Y-91619048D01*
X119649143Y-91666667D01*
X119696762Y-91714286D01*
X119744381Y-91809524D01*
X119744381Y-92000001D01*
X119696762Y-92095239D01*
X119649143Y-92142858D01*
X119553905Y-92190477D01*
X119363429Y-92190477D01*
X119268190Y-92142858D01*
X119220571Y-92095239D01*
X119172952Y-92000001D01*
X118744381Y-92619048D02*
X119553905Y-92619048D01*
X119649143Y-92666667D01*
X119696762Y-92714286D01*
X119744381Y-92809524D01*
X119744381Y-93000001D01*
X119696762Y-93095239D01*
X119649143Y-93142858D01*
X119553905Y-93190477D01*
X118744381Y-93190477D01*
X118696762Y-94380953D02*
X119982476Y-93523810D01*
X118744381Y-94571429D02*
X119744381Y-94904762D01*
X118744381Y-95238096D01*
X138746762Y-102961905D02*
X138794381Y-103104762D01*
X138794381Y-103342858D01*
X138746762Y-103438096D01*
X138699143Y-103485715D01*
X138603905Y-103533334D01*
X138508667Y-103533334D01*
X138413429Y-103485715D01*
X138365810Y-103438096D01*
X138318190Y-103342858D01*
X138270571Y-103152381D01*
X138222952Y-103057143D01*
X138175333Y-103009524D01*
X138080095Y-102961905D01*
X137984857Y-102961905D01*
X137889619Y-103009524D01*
X137842000Y-103057143D01*
X137794381Y-103152381D01*
X137794381Y-103390477D01*
X137842000Y-103533334D01*
X138127714Y-104390477D02*
X139127714Y-104390477D01*
X138746762Y-104390477D02*
X138794381Y-104295239D01*
X138794381Y-104104762D01*
X138746762Y-104009524D01*
X138699143Y-103961905D01*
X138603905Y-103914286D01*
X138318190Y-103914286D01*
X138222952Y-103961905D01*
X138175333Y-104009524D01*
X138127714Y-104104762D01*
X138127714Y-104295239D01*
X138175333Y-104390477D01*
X138254667Y-91992476D02*
X138254667Y-92468667D01*
X138540381Y-91897238D02*
X137540381Y-92230571D01*
X138540381Y-92563905D01*
X138016571Y-93230572D02*
X138016571Y-92897238D01*
X138540381Y-92897238D02*
X137540381Y-92897238D01*
X137540381Y-93373429D01*
X137540381Y-94706762D02*
X137540381Y-94897239D01*
X137588000Y-94992477D01*
X137683238Y-95087715D01*
X137873714Y-95135334D01*
X138207048Y-95135334D01*
X138397524Y-95087715D01*
X138492762Y-94992477D01*
X138540381Y-94897239D01*
X138540381Y-94706762D01*
X138492762Y-94611524D01*
X138397524Y-94516286D01*
X138207048Y-94468667D01*
X137873714Y-94468667D01*
X137683238Y-94516286D01*
X137588000Y-94611524D01*
X137540381Y-94706762D01*
X137873714Y-95992477D02*
X138540381Y-95992477D01*
X137873714Y-95563905D02*
X138397524Y-95563905D01*
X138492762Y-95611524D01*
X138540381Y-95706762D01*
X138540381Y-95849620D01*
X138492762Y-95944858D01*
X138445143Y-95992477D01*
X137873714Y-96325810D02*
X137873714Y-96706762D01*
X137540381Y-96468667D02*
X138397524Y-96468667D01*
X138492762Y-96516286D01*
X138540381Y-96611524D01*
X138540381Y-96706762D01*
X138794381Y-85404190D02*
X137794381Y-85404190D01*
X137794381Y-85785143D01*
X137842000Y-85880381D01*
X137889619Y-85928000D01*
X137984857Y-85975619D01*
X138127714Y-85975619D01*
X138222952Y-85928000D01*
X138270571Y-85880381D01*
X138318190Y-85785143D01*
X138318190Y-85404190D01*
X137794381Y-86261333D02*
X137794381Y-86832762D01*
X138794381Y-86547047D02*
X137794381Y-86547047D01*
X137794381Y-87023238D02*
X137794381Y-87594667D01*
X138794381Y-87308952D02*
X137794381Y-87308952D01*
X138794381Y-81348095D02*
X137794381Y-81348095D01*
X137794381Y-81729048D01*
X137842000Y-81824286D01*
X137889619Y-81871905D01*
X137984857Y-81919524D01*
X138127714Y-81919524D01*
X138222952Y-81871905D01*
X138270571Y-81824286D01*
X138318190Y-81729048D01*
X138318190Y-81348095D01*
X138794381Y-82348095D02*
X137794381Y-82348095D01*
X137794381Y-82586190D01*
X137842000Y-82729048D01*
X137937238Y-82824286D01*
X138032476Y-82871905D01*
X138222952Y-82919524D01*
X138365810Y-82919524D01*
X138556286Y-82871905D01*
X138651524Y-82824286D01*
X138746762Y-82729048D01*
X138794381Y-82586190D01*
X138794381Y-82348095D01*
X138540381Y-77085714D02*
X137540381Y-77085714D01*
X138016571Y-77085714D02*
X138016571Y-77657143D01*
X138540381Y-77657143D02*
X137540381Y-77657143D01*
X137492762Y-78847619D02*
X138778476Y-77990476D01*
X138540381Y-79657143D02*
X138540381Y-79180952D01*
X137540381Y-79180952D01*
X137032381Y-72918571D02*
X138032381Y-73251904D01*
X137032381Y-73585238D01*
X137508571Y-74251905D02*
X137556190Y-74394762D01*
X137603810Y-74442381D01*
X137699048Y-74490000D01*
X137841905Y-74490000D01*
X137937143Y-74442381D01*
X137984762Y-74394762D01*
X138032381Y-74299524D01*
X138032381Y-73918571D01*
X137032381Y-73918571D01*
X137032381Y-74251905D01*
X137080000Y-74347143D01*
X137127619Y-74394762D01*
X137222857Y-74442381D01*
X137318095Y-74442381D01*
X137413333Y-74394762D01*
X137460952Y-74347143D01*
X137508571Y-74251905D01*
X137508571Y-73918571D01*
X138032381Y-75347143D02*
X137508571Y-75347143D01*
X137413333Y-75299524D01*
X137365714Y-75204286D01*
X137365714Y-75013809D01*
X137413333Y-74918571D01*
X137984762Y-75347143D02*
X138032381Y-75251905D01*
X138032381Y-75013809D01*
X137984762Y-74918571D01*
X137889524Y-74870952D01*
X137794286Y-74870952D01*
X137699048Y-74918571D01*
X137651429Y-75013809D01*
X137651429Y-75251905D01*
X137603810Y-75347143D01*
X137365714Y-75680476D02*
X137365714Y-76061428D01*
X137032381Y-75823333D02*
X137889524Y-75823333D01*
X137984762Y-75870952D01*
X138032381Y-75966190D01*
X138032381Y-76061428D01*
X129968000Y-76895143D02*
X129920381Y-76799905D01*
X129920381Y-76657048D01*
X129968000Y-76514190D01*
X130063238Y-76418952D01*
X130158476Y-76371333D01*
X130348952Y-76323714D01*
X130491810Y-76323714D01*
X130682286Y-76371333D01*
X130777524Y-76418952D01*
X130872762Y-76514190D01*
X130920381Y-76657048D01*
X130920381Y-76752286D01*
X130872762Y-76895143D01*
X130825143Y-76942762D01*
X130491810Y-76942762D01*
X130491810Y-76752286D01*
X130253714Y-77371333D02*
X130920381Y-77371333D01*
X130348952Y-77371333D02*
X130301333Y-77418952D01*
X130253714Y-77514190D01*
X130253714Y-77657048D01*
X130301333Y-77752286D01*
X130396571Y-77799905D01*
X130920381Y-77799905D01*
X130920381Y-78704667D02*
X129920381Y-78704667D01*
X130872762Y-78704667D02*
X130920381Y-78609429D01*
X130920381Y-78418952D01*
X130872762Y-78323714D01*
X130825143Y-78276095D01*
X130729905Y-78228476D01*
X130444190Y-78228476D01*
X130348952Y-78276095D01*
X130301333Y-78323714D01*
X130253714Y-78418952D01*
X130253714Y-78609429D01*
X130301333Y-78704667D01*
X134286000Y-77149143D02*
X134238381Y-77053905D01*
X134238381Y-76911048D01*
X134286000Y-76768190D01*
X134381238Y-76672952D01*
X134476476Y-76625333D01*
X134666952Y-76577714D01*
X134809810Y-76577714D01*
X135000286Y-76625333D01*
X135095524Y-76672952D01*
X135190762Y-76768190D01*
X135238381Y-76911048D01*
X135238381Y-77006286D01*
X135190762Y-77149143D01*
X135143143Y-77196762D01*
X134809810Y-77196762D01*
X134809810Y-77006286D01*
X134571714Y-77625333D02*
X135238381Y-77625333D01*
X134666952Y-77625333D02*
X134619333Y-77672952D01*
X134571714Y-77768190D01*
X134571714Y-77911048D01*
X134619333Y-78006286D01*
X134714571Y-78053905D01*
X135238381Y-78053905D01*
X135238381Y-78958667D02*
X134238381Y-78958667D01*
X135190762Y-78958667D02*
X135238381Y-78863429D01*
X135238381Y-78672952D01*
X135190762Y-78577714D01*
X135143143Y-78530095D01*
X135047905Y-78482476D01*
X134762190Y-78482476D01*
X134666952Y-78530095D01*
X134619333Y-78577714D01*
X134571714Y-78672952D01*
X134571714Y-78863429D01*
X134619333Y-78958667D01*
X127078667Y-77323809D02*
X127078667Y-77800000D01*
X127364381Y-77228571D02*
X126364381Y-77561904D01*
X127364381Y-77895238D01*
X126697714Y-78228571D02*
X127364381Y-78228571D01*
X126792952Y-78228571D02*
X126745333Y-78276190D01*
X126697714Y-78371428D01*
X126697714Y-78514286D01*
X126745333Y-78609524D01*
X126840571Y-78657143D01*
X127364381Y-78657143D01*
X126697714Y-78990476D02*
X126697714Y-79371428D01*
X126364381Y-79133333D02*
X127221524Y-79133333D01*
X127316762Y-79180952D01*
X127364381Y-79276190D01*
X127364381Y-79371428D01*
X127110381Y-103057238D02*
X126110381Y-103057238D01*
X126824667Y-103390572D01*
X126110381Y-103723905D01*
X127110381Y-103723905D01*
X127110381Y-104200095D02*
X126443714Y-104200095D01*
X126110381Y-104200095D02*
X126158000Y-104152476D01*
X126205619Y-104200095D01*
X126158000Y-104247714D01*
X126110381Y-104200095D01*
X126205619Y-104200095D01*
X127110381Y-104676285D02*
X126110381Y-104676285D01*
X126729429Y-104771523D02*
X127110381Y-105057238D01*
X126443714Y-105057238D02*
X126824667Y-104676285D01*
X127062762Y-105866762D02*
X127110381Y-105771524D01*
X127110381Y-105581047D01*
X127062762Y-105485809D01*
X126967524Y-105438190D01*
X126586571Y-105438190D01*
X126491333Y-105485809D01*
X126443714Y-105581047D01*
X126443714Y-105771524D01*
X126491333Y-105866762D01*
X126586571Y-105914381D01*
X126681810Y-105914381D01*
X126777048Y-105438190D01*
X125856381Y-99199524D02*
X125856381Y-99770953D01*
X126856381Y-99485238D02*
X125856381Y-99485238D01*
X126856381Y-100009048D02*
X126189714Y-100532858D01*
X126189714Y-100009048D02*
X126856381Y-100532858D01*
X126856381Y-95222762D02*
X126380190Y-94889428D01*
X126856381Y-94651333D02*
X125856381Y-94651333D01*
X125856381Y-95032286D01*
X125904000Y-95127524D01*
X125951619Y-95175143D01*
X126046857Y-95222762D01*
X126189714Y-95222762D01*
X126284952Y-95175143D01*
X126332571Y-95127524D01*
X126380190Y-95032286D01*
X126380190Y-94651333D01*
X126856381Y-95556095D02*
X126189714Y-96079905D01*
X126189714Y-95556095D02*
X126856381Y-96079905D01*
X121268381Y-103509524D02*
X121268381Y-102938095D01*
X121268381Y-103223809D02*
X120268381Y-103223809D01*
X120411238Y-103128571D01*
X120506476Y-103033333D01*
X120554095Y-102938095D01*
X120696952Y-104080952D02*
X120649333Y-103985714D01*
X120601714Y-103938095D01*
X120506476Y-103890476D01*
X120458857Y-103890476D01*
X120363619Y-103938095D01*
X120316000Y-103985714D01*
X120268381Y-104080952D01*
X120268381Y-104271429D01*
X120316000Y-104366667D01*
X120363619Y-104414286D01*
X120458857Y-104461905D01*
X120506476Y-104461905D01*
X120601714Y-104414286D01*
X120649333Y-104366667D01*
X120696952Y-104271429D01*
X120696952Y-104080952D01*
X120744571Y-103985714D01*
X120792190Y-103938095D01*
X120887429Y-103890476D01*
X121077905Y-103890476D01*
X121173143Y-103938095D01*
X121220762Y-103985714D01*
X121268381Y-104080952D01*
X121268381Y-104271429D01*
X121220762Y-104366667D01*
X121173143Y-104414286D01*
X121077905Y-104461905D01*
X120887429Y-104461905D01*
X120792190Y-104414286D01*
X120744571Y-104366667D01*
X120696952Y-104271429D01*
X121268381Y-77601524D02*
X121268381Y-77030095D01*
X121268381Y-77315809D02*
X120268381Y-77315809D01*
X120411238Y-77220571D01*
X120506476Y-77125333D01*
X120554095Y-77030095D01*
X120363619Y-77982476D02*
X120316000Y-78030095D01*
X120268381Y-78125333D01*
X120268381Y-78363429D01*
X120316000Y-78458667D01*
X120363619Y-78506286D01*
X120458857Y-78553905D01*
X120554095Y-78553905D01*
X120696952Y-78506286D01*
X121268381Y-77934857D01*
X121268381Y-78553905D01*
X141016952Y-71600762D02*
X140969333Y-71505524D01*
X140921714Y-71457905D01*
X140826476Y-71410286D01*
X140778857Y-71410286D01*
X140683619Y-71457905D01*
X140636000Y-71505524D01*
X140588381Y-71600762D01*
X140588381Y-71791239D01*
X140636000Y-71886477D01*
X140683619Y-71934096D01*
X140778857Y-71981715D01*
X140826476Y-71981715D01*
X140921714Y-71934096D01*
X140969333Y-71886477D01*
X141016952Y-71791239D01*
X141016952Y-71600762D01*
X141064571Y-71505524D01*
X141112190Y-71457905D01*
X141207429Y-71410286D01*
X141397905Y-71410286D01*
X141493143Y-71457905D01*
X141540762Y-71505524D01*
X141588381Y-71600762D01*
X141588381Y-71791239D01*
X141540762Y-71886477D01*
X141493143Y-71934096D01*
X141397905Y-71981715D01*
X141207429Y-71981715D01*
X141112190Y-71934096D01*
X141064571Y-71886477D01*
X141016952Y-71791239D01*
X143874381Y-105509715D02*
X143874381Y-104938286D01*
X143874381Y-105224000D02*
X142874381Y-105224000D01*
X143017238Y-105128762D01*
X143112476Y-105033524D01*
X143160095Y-104938286D01*
D13*
X133912762Y-82809523D02*
X131912762Y-82809523D01*
X131912762Y-83285714D01*
X132008000Y-83571428D01*
X132198476Y-83761904D01*
X132388952Y-83857143D01*
X132769905Y-83952381D01*
X133055619Y-83952381D01*
X133436571Y-83857143D01*
X133627048Y-83761904D01*
X133817524Y-83571428D01*
X133912762Y-83285714D01*
X133912762Y-82809523D01*
X133912762Y-85952381D02*
X132960381Y-85285714D01*
X133912762Y-84809523D02*
X131912762Y-84809523D01*
X131912762Y-85571428D01*
X132008000Y-85761904D01*
X132103238Y-85857143D01*
X132293714Y-85952381D01*
X132579429Y-85952381D01*
X132769905Y-85857143D01*
X132865143Y-85761904D01*
X132960381Y-85571428D01*
X132960381Y-84809523D01*
X133341333Y-86714285D02*
X133341333Y-87666666D01*
X133912762Y-86523809D02*
X131912762Y-87190476D01*
X133912762Y-87857143D01*
X132769905Y-88809524D02*
X132674667Y-88619048D01*
X132579429Y-88523809D01*
X132388952Y-88428571D01*
X132293714Y-88428571D01*
X132103238Y-88523809D01*
X132008000Y-88619048D01*
X131912762Y-88809524D01*
X131912762Y-89190476D01*
X132008000Y-89380952D01*
X132103238Y-89476190D01*
X132293714Y-89571429D01*
X132388952Y-89571429D01*
X132579429Y-89476190D01*
X132674667Y-89380952D01*
X132769905Y-89190476D01*
X132769905Y-88809524D01*
X132865143Y-88619048D01*
X132960381Y-88523809D01*
X133150857Y-88428571D01*
X133531810Y-88428571D01*
X133722286Y-88523809D01*
X133817524Y-88619048D01*
X133912762Y-88809524D01*
X133912762Y-89190476D01*
X133817524Y-89380952D01*
X133722286Y-89476190D01*
X133531810Y-89571429D01*
X133150857Y-89571429D01*
X132960381Y-89476190D01*
X132865143Y-89380952D01*
X132769905Y-89190476D01*
X133912762Y-91476191D02*
X133912762Y-90333333D01*
X133912762Y-90904762D02*
X131912762Y-90904762D01*
X132198476Y-90714286D01*
X132388952Y-90523810D01*
X132484190Y-90333333D01*
X132769905Y-92619048D02*
X132674667Y-92428572D01*
X132579429Y-92333333D01*
X132388952Y-92238095D01*
X132293714Y-92238095D01*
X132103238Y-92333333D01*
X132008000Y-92428572D01*
X131912762Y-92619048D01*
X131912762Y-93000000D01*
X132008000Y-93190476D01*
X132103238Y-93285714D01*
X132293714Y-93380953D01*
X132388952Y-93380953D01*
X132579429Y-93285714D01*
X132674667Y-93190476D01*
X132769905Y-93000000D01*
X132769905Y-92619048D01*
X132865143Y-92428572D01*
X132960381Y-92333333D01*
X133150857Y-92238095D01*
X133531810Y-92238095D01*
X133722286Y-92333333D01*
X133817524Y-92428572D01*
X133912762Y-92619048D01*
X133912762Y-93000000D01*
X133817524Y-93190476D01*
X133722286Y-93285714D01*
X133531810Y-93380953D01*
X133150857Y-93380953D01*
X132960381Y-93285714D01*
X132865143Y-93190476D01*
X132769905Y-93000000D01*
X131912762Y-94238095D02*
X133531810Y-94238095D01*
X133722286Y-94333334D01*
X133817524Y-94428572D01*
X133912762Y-94619048D01*
X133912762Y-95000000D01*
X133817524Y-95190476D01*
X133722286Y-95285715D01*
X133531810Y-95380953D01*
X131912762Y-95380953D01*
X131817524Y-97761905D02*
X134388952Y-96047619D01*
X131912762Y-98142857D02*
X133912762Y-98809524D01*
X131912762Y-99476191D01*
D11*
X133666666Y-123752381D02*
X134000000Y-123276190D01*
X134238095Y-123752381D02*
X134238095Y-122752381D01*
X133857142Y-122752381D01*
X133761904Y-122800000D01*
X133714285Y-122847619D01*
X133666666Y-122942857D01*
X133666666Y-123085714D01*
X133714285Y-123180952D01*
X133761904Y-123228571D01*
X133857142Y-123276190D01*
X134238095Y-123276190D01*
X132761904Y-122752381D02*
X133238095Y-122752381D01*
X133285714Y-123228571D01*
X133238095Y-123180952D01*
X133142857Y-123133333D01*
X132904761Y-123133333D01*
X132809523Y-123180952D01*
X132761904Y-123228571D01*
X132714285Y-123323810D01*
X132714285Y-123561905D01*
X132761904Y-123657143D01*
X132809523Y-123704762D01*
X132904761Y-123752381D01*
X133142857Y-123752381D01*
X133238095Y-123704762D01*
X133285714Y-123657143D01*
X133369048Y-112104762D02*
X133226191Y-112152381D01*
X132988095Y-112152381D01*
X132892857Y-112104762D01*
X132845238Y-112057143D01*
X132797619Y-111961905D01*
X132797619Y-111866667D01*
X132845238Y-111771429D01*
X132892857Y-111723810D01*
X132988095Y-111676190D01*
X133178572Y-111628571D01*
X133273810Y-111580952D01*
X133321429Y-111533333D01*
X133369048Y-111438095D01*
X133369048Y-111342857D01*
X133321429Y-111247619D01*
X133273810Y-111200000D01*
X133178572Y-111152381D01*
X132940476Y-111152381D01*
X132797619Y-111200000D01*
X132369048Y-111485714D02*
X132369048Y-112485714D01*
X132369048Y-111533333D02*
X132273810Y-111485714D01*
X132083333Y-111485714D01*
X131988095Y-111533333D01*
X131940476Y-111580952D01*
X131892857Y-111676190D01*
X131892857Y-111961905D01*
X131940476Y-112057143D01*
X131988095Y-112104762D01*
X132083333Y-112152381D01*
X132273810Y-112152381D01*
X132369048Y-112104762D01*
X131464286Y-112152381D02*
X131464286Y-111152381D01*
X131369048Y-111771429D02*
X131083333Y-112152381D01*
X131083333Y-111485714D02*
X131464286Y-111866667D01*
X130130952Y-112152381D02*
X130702381Y-112152381D01*
X130416667Y-112152381D02*
X130416667Y-111152381D01*
X130511905Y-111295238D01*
X130607143Y-111390476D01*
X130702381Y-111438095D01*
X136721429Y-116252381D02*
X136721429Y-115252381D01*
X136150000Y-116252381D01*
X136150000Y-115252381D01*
X135769048Y-115252381D02*
X135102381Y-115252381D01*
X135530953Y-116252381D01*
X134816667Y-115252381D02*
X134197619Y-115252381D01*
X134530953Y-115633333D01*
X134388095Y-115633333D01*
X134292857Y-115680952D01*
X134245238Y-115728571D01*
X134197619Y-115823810D01*
X134197619Y-116061905D01*
X134245238Y-116157143D01*
X134292857Y-116204762D01*
X134388095Y-116252381D01*
X134673810Y-116252381D01*
X134769048Y-116204762D01*
X134816667Y-116157143D01*
X133054762Y-116204762D02*
X132911905Y-116252381D01*
X132673809Y-116252381D01*
X132578571Y-116204762D01*
X132530952Y-116157143D01*
X132483333Y-116061905D01*
X132483333Y-115966667D01*
X132530952Y-115871429D01*
X132578571Y-115823810D01*
X132673809Y-115776190D01*
X132864286Y-115728571D01*
X132959524Y-115680952D01*
X133007143Y-115633333D01*
X133054762Y-115538095D01*
X133054762Y-115442857D01*
X133007143Y-115347619D01*
X132959524Y-115300000D01*
X132864286Y-115252381D01*
X132626190Y-115252381D01*
X132483333Y-115300000D01*
X132054762Y-115585714D02*
X132054762Y-116585714D01*
X132054762Y-115633333D02*
X131959524Y-115585714D01*
X131769047Y-115585714D01*
X131673809Y-115633333D01*
X131626190Y-115680952D01*
X131578571Y-115776190D01*
X131578571Y-116061905D01*
X131626190Y-116157143D01*
X131673809Y-116204762D01*
X131769047Y-116252381D01*
X131959524Y-116252381D01*
X132054762Y-116204762D01*
X130769047Y-116204762D02*
X130864285Y-116252381D01*
X131054762Y-116252381D01*
X131150000Y-116204762D01*
X131197619Y-116109524D01*
X131197619Y-115728571D01*
X131150000Y-115633333D01*
X131054762Y-115585714D01*
X130864285Y-115585714D01*
X130769047Y-115633333D01*
X130721428Y-115728571D01*
X130721428Y-115823810D01*
X131197619Y-115919048D01*
X129864285Y-116252381D02*
X129864285Y-115728571D01*
X129911904Y-115633333D01*
X130007142Y-115585714D01*
X130197619Y-115585714D01*
X130292857Y-115633333D01*
X129864285Y-116204762D02*
X129959523Y-116252381D01*
X130197619Y-116252381D01*
X130292857Y-116204762D01*
X130340476Y-116109524D01*
X130340476Y-116014286D01*
X130292857Y-115919048D01*
X130197619Y-115871429D01*
X129959523Y-115871429D01*
X129864285Y-115823810D01*
X129388095Y-116252381D02*
X129388095Y-115252381D01*
X129292857Y-115871429D02*
X129007142Y-116252381D01*
X129007142Y-115585714D02*
X129388095Y-115966667D01*
X128197618Y-116204762D02*
X128292856Y-116252381D01*
X128483333Y-116252381D01*
X128578571Y-116204762D01*
X128626190Y-116109524D01*
X128626190Y-115728571D01*
X128578571Y-115633333D01*
X128483333Y-115585714D01*
X128292856Y-115585714D01*
X128197618Y-115633333D01*
X128149999Y-115728571D01*
X128149999Y-115823810D01*
X128626190Y-115919048D01*
X127721428Y-116252381D02*
X127721428Y-115585714D01*
X127721428Y-115776190D02*
X127673809Y-115680952D01*
X127626190Y-115633333D01*
X127530952Y-115585714D01*
X127435713Y-115585714D01*
X141130952Y-119071429D02*
X140369047Y-119071429D01*
X140749999Y-119452381D02*
X140749999Y-118690476D01*
X142204762Y-138416667D02*
X142252381Y-138559524D01*
X142252381Y-138797620D01*
X142204762Y-138892858D01*
X142157143Y-138940477D01*
X142061905Y-138988096D01*
X141966667Y-138988096D01*
X141871429Y-138940477D01*
X141823810Y-138892858D01*
X141776190Y-138797620D01*
X141728571Y-138607143D01*
X141680952Y-138511905D01*
X141633333Y-138464286D01*
X141538095Y-138416667D01*
X141442857Y-138416667D01*
X141347619Y-138464286D01*
X141300000Y-138511905D01*
X141252381Y-138607143D01*
X141252381Y-138845239D01*
X141300000Y-138988096D01*
X141252381Y-139321429D02*
X142252381Y-139559524D01*
X141538095Y-139750001D01*
X142252381Y-139940477D01*
X141252381Y-140178572D01*
X141347619Y-140511905D02*
X141300000Y-140559524D01*
X141252381Y-140654762D01*
X141252381Y-140892858D01*
X141300000Y-140988096D01*
X141347619Y-141035715D01*
X141442857Y-141083334D01*
X141538095Y-141083334D01*
X141680952Y-141035715D01*
X142252381Y-140464286D01*
X142252381Y-141083334D01*
X146433333Y-77604762D02*
X146290476Y-77652381D01*
X146052380Y-77652381D01*
X145957142Y-77604762D01*
X145909523Y-77557143D01*
X145861904Y-77461905D01*
X145861904Y-77366667D01*
X145909523Y-77271429D01*
X145957142Y-77223810D01*
X146052380Y-77176190D01*
X146242857Y-77128571D01*
X146338095Y-77080952D01*
X146385714Y-77033333D01*
X146433333Y-76938095D01*
X146433333Y-76842857D01*
X146385714Y-76747619D01*
X146338095Y-76700000D01*
X146242857Y-76652381D01*
X146004761Y-76652381D01*
X145861904Y-76700000D01*
X145528571Y-76652381D02*
X145290476Y-77652381D01*
X145099999Y-76938095D01*
X144909523Y-77652381D01*
X144671428Y-76652381D01*
X144385714Y-76652381D02*
X143766666Y-76652381D01*
X144100000Y-77033333D01*
X143957142Y-77033333D01*
X143861904Y-77080952D01*
X143814285Y-77128571D01*
X143766666Y-77223810D01*
X143766666Y-77461905D01*
X143814285Y-77557143D01*
X143861904Y-77604762D01*
X143957142Y-77652381D01*
X144242857Y-77652381D01*
X144338095Y-77604762D01*
X144385714Y-77557143D01*
X124852381Y-133938095D02*
X125661905Y-133938095D01*
X125757143Y-133985714D01*
X125804762Y-134033333D01*
X125852381Y-134128571D01*
X125852381Y-134319048D01*
X125804762Y-134414286D01*
X125757143Y-134461905D01*
X125661905Y-134509524D01*
X124852381Y-134509524D01*
X124947619Y-134938095D02*
X124900000Y-134985714D01*
X124852381Y-135080952D01*
X124852381Y-135319048D01*
X124900000Y-135414286D01*
X124947619Y-135461905D01*
X125042857Y-135509524D01*
X125138095Y-135509524D01*
X125280952Y-135461905D01*
X125852381Y-134890476D01*
X125852381Y-135509524D01*
X132028571Y-131157142D02*
X132076190Y-131299999D01*
X132123810Y-131347618D01*
X132219048Y-131395237D01*
X132361905Y-131395237D01*
X132457143Y-131347618D01*
X132504762Y-131299999D01*
X132552381Y-131204761D01*
X132552381Y-130823808D01*
X131552381Y-130823808D01*
X131552381Y-131157142D01*
X131600000Y-131252380D01*
X131647619Y-131299999D01*
X131742857Y-131347618D01*
X131838095Y-131347618D01*
X131933333Y-131299999D01*
X131980952Y-131252380D01*
X132028571Y-131157142D01*
X132028571Y-130823808D01*
X132552381Y-132252380D02*
X132028571Y-132252380D01*
X131933333Y-132204761D01*
X131885714Y-132109523D01*
X131885714Y-131919046D01*
X131933333Y-131823808D01*
X132504762Y-132252380D02*
X132552381Y-132157142D01*
X132552381Y-131919046D01*
X132504762Y-131823808D01*
X132409524Y-131776189D01*
X132314286Y-131776189D01*
X132219048Y-131823808D01*
X132171429Y-131919046D01*
X132171429Y-132157142D01*
X132123810Y-132252380D01*
X131885714Y-132585713D02*
X131885714Y-132966665D01*
X131552381Y-132728570D02*
X132409524Y-132728570D01*
X132504762Y-132776189D01*
X132552381Y-132871427D01*
X132552381Y-132966665D01*
X131885714Y-133157142D02*
X131885714Y-133538094D01*
X131552381Y-133299999D02*
X132409524Y-133299999D01*
X132504762Y-133347618D01*
X132552381Y-133442856D01*
X132552381Y-133538094D01*
X132504762Y-134252381D02*
X132552381Y-134157143D01*
X132552381Y-133966666D01*
X132504762Y-133871428D01*
X132409524Y-133823809D01*
X132028571Y-133823809D01*
X131933333Y-133871428D01*
X131885714Y-133966666D01*
X131885714Y-134157143D01*
X131933333Y-134252381D01*
X132028571Y-134300000D01*
X132123810Y-134300000D01*
X132219048Y-133823809D01*
X132552381Y-134728571D02*
X131885714Y-134728571D01*
X132076190Y-134728571D02*
X131980952Y-134776190D01*
X131933333Y-134823809D01*
X131885714Y-134919047D01*
X131885714Y-135014286D01*
X131885714Y-135252381D02*
X132552381Y-135490476D01*
X131885714Y-135728572D02*
X132552381Y-135490476D01*
X132790476Y-135395238D01*
X132838095Y-135347619D01*
X132885714Y-135252381D01*
X132457143Y-137442858D02*
X132504762Y-137395239D01*
X132552381Y-137252382D01*
X132552381Y-137157144D01*
X132504762Y-137014286D01*
X132409524Y-136919048D01*
X132314286Y-136871429D01*
X132123810Y-136823810D01*
X131980952Y-136823810D01*
X131790476Y-136871429D01*
X131695238Y-136919048D01*
X131600000Y-137014286D01*
X131552381Y-137157144D01*
X131552381Y-137252382D01*
X131600000Y-137395239D01*
X131647619Y-137442858D01*
X132552381Y-137871429D02*
X131552381Y-137871429D01*
X132552381Y-138300001D02*
X132028571Y-138300001D01*
X131933333Y-138252382D01*
X131885714Y-138157144D01*
X131885714Y-138014286D01*
X131933333Y-137919048D01*
X131980952Y-137871429D01*
X132552381Y-139204763D02*
X132028571Y-139204763D01*
X131933333Y-139157144D01*
X131885714Y-139061906D01*
X131885714Y-138871429D01*
X131933333Y-138776191D01*
X132504762Y-139204763D02*
X132552381Y-139109525D01*
X132552381Y-138871429D01*
X132504762Y-138776191D01*
X132409524Y-138728572D01*
X132314286Y-138728572D01*
X132219048Y-138776191D01*
X132171429Y-138871429D01*
X132171429Y-139109525D01*
X132123810Y-139204763D01*
X132552381Y-139680953D02*
X131885714Y-139680953D01*
X132076190Y-139680953D02*
X131980952Y-139728572D01*
X131933333Y-139776191D01*
X131885714Y-139871429D01*
X131885714Y-139966668D01*
X131885714Y-140728573D02*
X132695238Y-140728573D01*
X132790476Y-140680954D01*
X132838095Y-140633335D01*
X132885714Y-140538096D01*
X132885714Y-140395239D01*
X132838095Y-140300001D01*
X132504762Y-140728573D02*
X132552381Y-140633335D01*
X132552381Y-140442858D01*
X132504762Y-140347620D01*
X132457143Y-140300001D01*
X132361905Y-140252382D01*
X132076190Y-140252382D01*
X131980952Y-140300001D01*
X131933333Y-140347620D01*
X131885714Y-140442858D01*
X131885714Y-140633335D01*
X131933333Y-140728573D01*
X132504762Y-141585716D02*
X132552381Y-141490478D01*
X132552381Y-141300001D01*
X132504762Y-141204763D01*
X132409524Y-141157144D01*
X132028571Y-141157144D01*
X131933333Y-141204763D01*
X131885714Y-141300001D01*
X131885714Y-141490478D01*
X131933333Y-141585716D01*
X132028571Y-141633335D01*
X132123810Y-141633335D01*
X132219048Y-141157144D01*
X132552381Y-142061906D02*
X131885714Y-142061906D01*
X132076190Y-142061906D02*
X131980952Y-142109525D01*
X131933333Y-142157144D01*
X131885714Y-142252382D01*
X131885714Y-142347621D01*
X132552381Y-143966669D02*
X132552381Y-143395240D01*
X132552381Y-143680954D02*
X131552381Y-143680954D01*
X131695238Y-143585716D01*
X131790476Y-143490478D01*
X131838095Y-143395240D01*
X132266667Y-144347621D02*
X132266667Y-144823812D01*
X132552381Y-144252383D02*
X131552381Y-144585716D01*
X132552381Y-144919050D01*
X126800000Y-147938096D02*
X126752381Y-147842858D01*
X126752381Y-147700001D01*
X126800000Y-147557143D01*
X126895238Y-147461905D01*
X126990476Y-147414286D01*
X127180952Y-147366667D01*
X127323810Y-147366667D01*
X127514286Y-147414286D01*
X127609524Y-147461905D01*
X127704762Y-147557143D01*
X127752381Y-147700001D01*
X127752381Y-147795239D01*
X127704762Y-147938096D01*
X127657143Y-147985715D01*
X127323810Y-147985715D01*
X127323810Y-147795239D01*
X127752381Y-148414286D02*
X126752381Y-148414286D01*
X127752381Y-148985715D01*
X126752381Y-148985715D01*
X127752381Y-149461905D02*
X126752381Y-149461905D01*
X126752381Y-149700000D01*
X126800000Y-149842858D01*
X126895238Y-149938096D01*
X126990476Y-149985715D01*
X127180952Y-150033334D01*
X127323810Y-150033334D01*
X127514286Y-149985715D01*
X127609524Y-149938096D01*
X127704762Y-149842858D01*
X127752381Y-149700000D01*
X127752381Y-149461905D01*
X136352381Y-148657143D02*
X136352381Y-148180952D01*
X136828571Y-148133333D01*
X136780952Y-148180952D01*
X136733333Y-148276190D01*
X136733333Y-148514286D01*
X136780952Y-148609524D01*
X136828571Y-148657143D01*
X136923810Y-148704762D01*
X137161905Y-148704762D01*
X137257143Y-148657143D01*
X137304762Y-148609524D01*
X137352381Y-148514286D01*
X137352381Y-148276190D01*
X137304762Y-148180952D01*
X137257143Y-148133333D01*
X136685714Y-149038095D02*
X137352381Y-149276190D01*
X136685714Y-149514286D01*
X135828571Y-128252382D02*
X135876190Y-128395239D01*
X135923810Y-128442858D01*
X136019048Y-128490477D01*
X136161905Y-128490477D01*
X136257143Y-128442858D01*
X136304762Y-128395239D01*
X136352381Y-128300001D01*
X136352381Y-127919048D01*
X135352381Y-127919048D01*
X135352381Y-128252382D01*
X135400000Y-128347620D01*
X135447619Y-128395239D01*
X135542857Y-128442858D01*
X135638095Y-128442858D01*
X135733333Y-128395239D01*
X135780952Y-128347620D01*
X135828571Y-128252382D01*
X135828571Y-127919048D01*
X135971429Y-128919048D02*
X135971429Y-129680953D01*
X136352381Y-129300001D02*
X135590476Y-129300001D01*
X128228571Y-128252382D02*
X128276190Y-128395239D01*
X128323810Y-128442858D01*
X128419048Y-128490477D01*
X128561905Y-128490477D01*
X128657143Y-128442858D01*
X128704762Y-128395239D01*
X128752381Y-128300001D01*
X128752381Y-127919048D01*
X127752381Y-127919048D01*
X127752381Y-128252382D01*
X127800000Y-128347620D01*
X127847619Y-128395239D01*
X127942857Y-128442858D01*
X128038095Y-128442858D01*
X128133333Y-128395239D01*
X128180952Y-128347620D01*
X128228571Y-128252382D01*
X128228571Y-127919048D01*
X128371429Y-128919048D02*
X128371429Y-129680953D01*
X138852381Y-128147619D02*
X138852381Y-128338096D01*
X138900000Y-128433334D01*
X138995238Y-128528572D01*
X139185714Y-128576191D01*
X139519048Y-128576191D01*
X139709524Y-128528572D01*
X139804762Y-128433334D01*
X139852381Y-128338096D01*
X139852381Y-128147619D01*
X139804762Y-128052381D01*
X139709524Y-127957143D01*
X139519048Y-127909524D01*
X139185714Y-127909524D01*
X138995238Y-127957143D01*
X138900000Y-128052381D01*
X138852381Y-128147619D01*
X139185714Y-129433334D02*
X139852381Y-129433334D01*
X139185714Y-129004762D02*
X139709524Y-129004762D01*
X139804762Y-129052381D01*
X139852381Y-129147619D01*
X139852381Y-129290477D01*
X139804762Y-129385715D01*
X139757143Y-129433334D01*
X139185714Y-129766667D02*
X139185714Y-130147619D01*
X138852381Y-129909524D02*
X139709524Y-129909524D01*
X139804762Y-129957143D01*
X139852381Y-130052381D01*
X139852381Y-130147619D01*
X139471429Y-130480953D02*
X139471429Y-131242858D01*
X139852381Y-130861906D02*
X139090476Y-130861906D01*
X124252381Y-128147619D02*
X124252381Y-128338096D01*
X124300000Y-128433334D01*
X124395238Y-128528572D01*
X124585714Y-128576191D01*
X124919048Y-128576191D01*
X125109524Y-128528572D01*
X125204762Y-128433334D01*
X125252381Y-128338096D01*
X125252381Y-128147619D01*
X125204762Y-128052381D01*
X125109524Y-127957143D01*
X124919048Y-127909524D01*
X124585714Y-127909524D01*
X124395238Y-127957143D01*
X124300000Y-128052381D01*
X124252381Y-128147619D01*
X124585714Y-129433334D02*
X125252381Y-129433334D01*
X124585714Y-129004762D02*
X125109524Y-129004762D01*
X125204762Y-129052381D01*
X125252381Y-129147619D01*
X125252381Y-129290477D01*
X125204762Y-129385715D01*
X125157143Y-129433334D01*
X124585714Y-129766667D02*
X124585714Y-130147619D01*
X124252381Y-129909524D02*
X125109524Y-129909524D01*
X125204762Y-129957143D01*
X125252381Y-130052381D01*
X125252381Y-130147619D01*
X124871429Y-130480953D02*
X124871429Y-131242858D01*
X133161905Y-148352381D02*
X133161905Y-149161905D01*
X133114286Y-149257143D01*
X133066667Y-149304762D01*
X132971429Y-149352381D01*
X132780952Y-149352381D01*
X132685714Y-149304762D01*
X132638095Y-149257143D01*
X132590476Y-149161905D01*
X132590476Y-148352381D01*
X132161905Y-149304762D02*
X132019048Y-149352381D01*
X131780952Y-149352381D01*
X131685714Y-149304762D01*
X131638095Y-149257143D01*
X131590476Y-149161905D01*
X131590476Y-149066667D01*
X131638095Y-148971429D01*
X131685714Y-148923810D01*
X131780952Y-148876190D01*
X131971429Y-148828571D01*
X132066667Y-148780952D01*
X132114286Y-148733333D01*
X132161905Y-148638095D01*
X132161905Y-148542857D01*
X132114286Y-148447619D01*
X132066667Y-148400000D01*
X131971429Y-148352381D01*
X131733333Y-148352381D01*
X131590476Y-148400000D01*
X130828571Y-148828571D02*
X130685714Y-148876190D01*
X130638095Y-148923810D01*
X130590476Y-149019048D01*
X130590476Y-149161905D01*
X130638095Y-149257143D01*
X130685714Y-149304762D01*
X130780952Y-149352381D01*
X131161905Y-149352381D01*
X131161905Y-148352381D01*
X130828571Y-148352381D01*
X130733333Y-148400000D01*
X130685714Y-148447619D01*
X130638095Y-148542857D01*
X130638095Y-148638095D01*
X130685714Y-148733333D01*
X130733333Y-148780952D01*
X130828571Y-148828571D01*
X131161905Y-148828571D01*
X124271429Y-146119048D02*
X124271429Y-146880953D01*
X139471429Y-146219048D02*
X139471429Y-146980953D01*
X139852381Y-146600001D02*
X139090476Y-146600001D01*
M02*
