G04 #@! TF.FileFunction,Legend,Top*
%FSLAX46Y46*%
G04 Gerber Fmt 4.6, Leading zero omitted, Abs format (unit mm)*
G04 Created by KiCad (PCBNEW 4.0.4-stable) date 08/15/17 20:15:11*
%MOMM*%
%LPD*%
G01*
G04 APERTURE LIST*
%ADD10C,0.100000*%
%ADD11C,0.150000*%
%ADD12C,0.300000*%
%ADD13C,0.120000*%
%ADD14C,0.350000*%
G04 APERTURE END LIST*
D10*
D11*
X138400000Y-113502381D02*
X138400000Y-113740476D01*
X138161905Y-113645238D02*
X138400000Y-113740476D01*
X138638096Y-113645238D01*
X138257143Y-113930952D02*
X138400000Y-113740476D01*
X138542858Y-113930952D01*
D12*
X150275000Y-72453571D02*
X150275000Y-70953571D01*
X150846428Y-70953571D01*
X150989286Y-71025000D01*
X151060714Y-71096429D01*
X151132143Y-71239286D01*
X151132143Y-71453571D01*
X151060714Y-71596429D01*
X150989286Y-71667857D01*
X150846428Y-71739286D01*
X150275000Y-71739286D01*
X151632143Y-70953571D02*
X151989286Y-72453571D01*
X152275000Y-71382143D01*
X152560714Y-72453571D01*
X152917857Y-70953571D01*
X154346429Y-72453571D02*
X153846429Y-71739286D01*
X153489286Y-72453571D02*
X153489286Y-70953571D01*
X154060714Y-70953571D01*
X154203572Y-71025000D01*
X154275000Y-71096429D01*
X154346429Y-71239286D01*
X154346429Y-71453571D01*
X154275000Y-71596429D01*
X154203572Y-71667857D01*
X154060714Y-71739286D01*
X153489286Y-71739286D01*
X149650000Y-139153571D02*
X149792857Y-139153571D01*
X149935714Y-139225000D01*
X150007143Y-139296429D01*
X150078572Y-139439286D01*
X150150000Y-139725000D01*
X150150000Y-140082143D01*
X150078572Y-140367857D01*
X150007143Y-140510714D01*
X149935714Y-140582143D01*
X149792857Y-140653571D01*
X149650000Y-140653571D01*
X149507143Y-140582143D01*
X149435714Y-140510714D01*
X149364286Y-140367857D01*
X149292857Y-140082143D01*
X149292857Y-139725000D01*
X149364286Y-139439286D01*
X149435714Y-139296429D01*
X149507143Y-139225000D01*
X149650000Y-139153571D01*
X150792857Y-140510714D02*
X150864285Y-140582143D01*
X150792857Y-140653571D01*
X150721428Y-140582143D01*
X150792857Y-140510714D01*
X150792857Y-140653571D01*
X152221429Y-139153571D02*
X151507143Y-139153571D01*
X151435714Y-139867857D01*
X151507143Y-139796429D01*
X151650000Y-139725000D01*
X152007143Y-139725000D01*
X152150000Y-139796429D01*
X152221429Y-139867857D01*
X152292857Y-140010714D01*
X152292857Y-140367857D01*
X152221429Y-140510714D01*
X152150000Y-140582143D01*
X152007143Y-140653571D01*
X151650000Y-140653571D01*
X151507143Y-140582143D01*
X151435714Y-140510714D01*
X154007142Y-139082143D02*
X152721428Y-141010714D01*
X155292857Y-140653571D02*
X154435714Y-140653571D01*
X154864286Y-140653571D02*
X154864286Y-139153571D01*
X154721429Y-139367857D01*
X154578571Y-139510714D01*
X154435714Y-139582143D01*
X155792857Y-139153571D02*
X156150000Y-140653571D01*
X156435714Y-139582143D01*
X156721428Y-140653571D01*
X157078571Y-139153571D01*
X110000001Y-89317857D02*
X109500001Y-89317857D01*
X109500001Y-90103571D02*
X109500001Y-88603571D01*
X110214287Y-88603571D01*
X110785715Y-90103571D02*
X110785715Y-89103571D01*
X110785715Y-89389286D02*
X110857143Y-89246429D01*
X110928572Y-89175000D01*
X111071429Y-89103571D01*
X111214286Y-89103571D01*
X112285714Y-90032143D02*
X112142857Y-90103571D01*
X111857143Y-90103571D01*
X111714286Y-90032143D01*
X111642857Y-89889286D01*
X111642857Y-89317857D01*
X111714286Y-89175000D01*
X111857143Y-89103571D01*
X112142857Y-89103571D01*
X112285714Y-89175000D01*
X112357143Y-89317857D01*
X112357143Y-89460714D01*
X111642857Y-89603571D01*
X113642857Y-89103571D02*
X113642857Y-90603571D01*
X113642857Y-90032143D02*
X113500000Y-90103571D01*
X113214286Y-90103571D01*
X113071428Y-90032143D01*
X113000000Y-89960714D01*
X112928571Y-89817857D01*
X112928571Y-89389286D01*
X113000000Y-89246429D01*
X113071428Y-89175000D01*
X113214286Y-89103571D01*
X113500000Y-89103571D01*
X113642857Y-89175000D01*
X114357143Y-89532143D02*
X115500000Y-89532143D01*
X110000001Y-84417857D02*
X109500001Y-84417857D01*
X109500001Y-85203571D02*
X109500001Y-83703571D01*
X110214287Y-83703571D01*
X110785715Y-85203571D02*
X110785715Y-84203571D01*
X110785715Y-84489286D02*
X110857143Y-84346429D01*
X110928572Y-84275000D01*
X111071429Y-84203571D01*
X111214286Y-84203571D01*
X112285714Y-85132143D02*
X112142857Y-85203571D01*
X111857143Y-85203571D01*
X111714286Y-85132143D01*
X111642857Y-84989286D01*
X111642857Y-84417857D01*
X111714286Y-84275000D01*
X111857143Y-84203571D01*
X112142857Y-84203571D01*
X112285714Y-84275000D01*
X112357143Y-84417857D01*
X112357143Y-84560714D01*
X111642857Y-84703571D01*
X113642857Y-84203571D02*
X113642857Y-85703571D01*
X113642857Y-85132143D02*
X113500000Y-85203571D01*
X113214286Y-85203571D01*
X113071428Y-85132143D01*
X113000000Y-85060714D01*
X112928571Y-84917857D01*
X112928571Y-84489286D01*
X113000000Y-84346429D01*
X113071428Y-84275000D01*
X113214286Y-84203571D01*
X113500000Y-84203571D01*
X113642857Y-84275000D01*
X114357143Y-84632143D02*
X115500000Y-84632143D01*
X114928571Y-85203571D02*
X114928571Y-84060714D01*
X110614286Y-79628571D02*
X110614286Y-78128571D01*
X111185714Y-78128571D01*
X111328572Y-78200000D01*
X111400000Y-78271429D01*
X111471429Y-78414286D01*
X111471429Y-78628571D01*
X111400000Y-78771429D01*
X111328572Y-78842857D01*
X111185714Y-78914286D01*
X110614286Y-78914286D01*
X111900000Y-78128571D02*
X112757143Y-78128571D01*
X112328572Y-79628571D02*
X112328572Y-78128571D01*
X113042857Y-78128571D02*
X113900000Y-78128571D01*
X113471429Y-79628571D02*
X113471429Y-78128571D01*
X110725000Y-72603571D02*
X111225000Y-74103571D01*
X111725000Y-72603571D01*
X112439286Y-74103571D02*
X112296428Y-74032143D01*
X112225000Y-73960714D01*
X112153571Y-73817857D01*
X112153571Y-73389286D01*
X112225000Y-73246429D01*
X112296428Y-73175000D01*
X112439286Y-73103571D01*
X112653571Y-73103571D01*
X112796428Y-73175000D01*
X112867857Y-73246429D01*
X112939286Y-73389286D01*
X112939286Y-73817857D01*
X112867857Y-73960714D01*
X112796428Y-74032143D01*
X112653571Y-74103571D01*
X112439286Y-74103571D01*
X113796429Y-74103571D02*
X113653571Y-74032143D01*
X113582143Y-73889286D01*
X113582143Y-72603571D01*
X114367857Y-73532143D02*
X115510714Y-73532143D01*
X110700000Y-68478571D02*
X111200000Y-69978571D01*
X111700000Y-68478571D01*
X112414286Y-69978571D02*
X112271428Y-69907143D01*
X112200000Y-69835714D01*
X112128571Y-69692857D01*
X112128571Y-69264286D01*
X112200000Y-69121429D01*
X112271428Y-69050000D01*
X112414286Y-68978571D01*
X112628571Y-68978571D01*
X112771428Y-69050000D01*
X112842857Y-69121429D01*
X112914286Y-69264286D01*
X112914286Y-69692857D01*
X112842857Y-69835714D01*
X112771428Y-69907143D01*
X112628571Y-69978571D01*
X112414286Y-69978571D01*
X113771429Y-69978571D02*
X113628571Y-69907143D01*
X113557143Y-69764286D01*
X113557143Y-68478571D01*
X114342857Y-69407143D02*
X115485714Y-69407143D01*
X114914285Y-69978571D02*
X114914285Y-68835714D01*
D13*
X126000000Y-147020000D02*
X128000000Y-147020000D01*
X128000000Y-144980000D02*
X126000000Y-144980000D01*
X134750000Y-144980000D02*
X132750000Y-144980000D01*
X132750000Y-147020000D02*
X134750000Y-147020000D01*
X128000000Y-140980000D02*
X126000000Y-140980000D01*
X126000000Y-143020000D02*
X128000000Y-143020000D01*
X128900000Y-148050000D02*
X128900000Y-149950000D01*
X128900000Y-149950000D02*
X133600000Y-149950000D01*
X128900000Y-148050000D02*
X133600000Y-148050000D01*
D11*
X140586000Y-91500000D02*
X146174000Y-91500000D01*
X119250000Y-91500000D02*
X124330000Y-91500000D01*
X124330000Y-91500000D02*
X124330000Y-90484000D01*
X124330000Y-90484000D02*
X140586000Y-90484000D01*
X140586000Y-90484000D02*
X140586000Y-91500000D01*
X120266000Y-71180000D02*
X145158000Y-71180000D01*
X145158000Y-71180000D02*
X145158000Y-81848000D01*
X145158000Y-81848000D02*
X120266000Y-81848000D01*
X120266000Y-81848000D02*
X120266000Y-71180000D01*
X119250000Y-69148000D02*
X146174000Y-69148000D01*
X146174000Y-69148000D02*
X146174000Y-87436000D01*
X146174000Y-87436000D02*
X119250000Y-87436000D01*
X119250000Y-87436000D02*
X119250000Y-69148000D01*
X145785923Y-89976000D02*
G75*
G03X145785923Y-89976000I-1135923J0D01*
G01*
X121909923Y-89976000D02*
G75*
G03X121909923Y-89976000I-1135923J0D01*
G01*
X121909923Y-66100000D02*
G75*
G03X121909923Y-66100000I-1135923J0D01*
G01*
X145785923Y-66100000D02*
G75*
G03X145785923Y-66100000I-1135923J0D01*
G01*
X119250000Y-91500000D02*
X119250000Y-64576000D01*
X119250000Y-64576000D02*
X146174000Y-64576000D01*
X146174000Y-64576000D02*
X146174000Y-91500000D01*
X146397367Y-148250000D02*
G75*
G03X146397367Y-148250000I-1897367J0D01*
G01*
D13*
X135000000Y-143070000D02*
X133000000Y-143070000D01*
X133000000Y-140930000D02*
X135000000Y-140930000D01*
X122180000Y-116250000D02*
X122180000Y-114250000D01*
X124320000Y-114250000D02*
X124320000Y-116250000D01*
X140320000Y-142500000D02*
X140320000Y-144500000D01*
X138180000Y-144500000D02*
X138180000Y-142500000D01*
D11*
X147055000Y-92675000D02*
X147055000Y-92040000D01*
X147055000Y-92040000D02*
X117845000Y-92040000D01*
X117845000Y-92040000D02*
X117845000Y-92675000D01*
X117845000Y-137125000D02*
X117845000Y-92675000D01*
X147055000Y-144745000D02*
X147055000Y-92675000D01*
X117845000Y-137125000D02*
X117845000Y-144745000D01*
X117845000Y-144745000D02*
X147055000Y-144745000D01*
X127370000Y-135220000D02*
X137530000Y-135220000D01*
X137530000Y-135220000D02*
X137530000Y-140300000D01*
X137530000Y-140300000D02*
X127370000Y-140300000D01*
X127370000Y-140300000D02*
X127370000Y-135220000D01*
D13*
X126000000Y-137830000D02*
X128000000Y-137830000D01*
X128000000Y-139970000D02*
X126000000Y-139970000D01*
X135800000Y-139870000D02*
X133800000Y-139870000D01*
X133800000Y-137730000D02*
X135800000Y-137730000D01*
X123400000Y-152380000D02*
X121400000Y-152380000D01*
X121400000Y-154420000D02*
X123400000Y-154420000D01*
X136180000Y-94800000D02*
X136180000Y-96800000D01*
X138220000Y-96800000D02*
X138220000Y-94800000D01*
X129340000Y-80026000D02*
X129340000Y-82026000D01*
X127200000Y-82026000D02*
X127200000Y-80026000D01*
X128540000Y-109674000D02*
X130540000Y-109674000D01*
X130540000Y-111814000D02*
X128540000Y-111814000D01*
X129594000Y-90186000D02*
X129594000Y-92186000D01*
X127454000Y-92186000D02*
X127454000Y-90186000D01*
X129556000Y-117294000D02*
X131556000Y-117294000D01*
X131556000Y-119434000D02*
X129556000Y-119434000D01*
X115300000Y-79500000D02*
X115680000Y-80000000D01*
X115680000Y-80000000D02*
X116000000Y-80000000D01*
X115300000Y-79500000D02*
X115300000Y-78500000D01*
X115300000Y-78500000D02*
X115680000Y-78000000D01*
X115680000Y-78000000D02*
X116000000Y-78000000D01*
X118800000Y-80650000D02*
X118800000Y-77350000D01*
X118500000Y-80650000D02*
X118800000Y-80650000D01*
X118800000Y-77350000D02*
X118500000Y-77350000D01*
X116300000Y-80650000D02*
X116000000Y-80650000D01*
X116000000Y-80650000D02*
X116000000Y-77350000D01*
X116000000Y-77350000D02*
X116300000Y-77350000D01*
X118700000Y-75650000D02*
X119000000Y-75650000D01*
X119000000Y-75650000D02*
X119000000Y-72350000D01*
X119000000Y-72350000D02*
X118700000Y-72350000D01*
X116500000Y-75650000D02*
X116200000Y-75650000D01*
X116200000Y-75650000D02*
X116200000Y-72350000D01*
X116200000Y-72350000D02*
X116500000Y-72350000D01*
X116500000Y-67750000D02*
X116200000Y-67750000D01*
X116200000Y-67750000D02*
X116200000Y-71050000D01*
X116200000Y-71050000D02*
X116500000Y-71050000D01*
X118700000Y-67750000D02*
X119000000Y-67750000D01*
X119000000Y-67750000D02*
X119000000Y-71050000D01*
X119000000Y-71050000D02*
X118700000Y-71050000D01*
X118700000Y-91250000D02*
X119000000Y-91250000D01*
X119000000Y-91250000D02*
X119000000Y-87950000D01*
X119000000Y-87950000D02*
X118700000Y-87950000D01*
X116500000Y-91250000D02*
X116200000Y-91250000D01*
X116200000Y-91250000D02*
X116200000Y-87950000D01*
X116200000Y-87950000D02*
X116500000Y-87950000D01*
X116500000Y-82950000D02*
X116200000Y-82950000D01*
X116200000Y-82950000D02*
X116200000Y-86250000D01*
X116200000Y-86250000D02*
X116500000Y-86250000D01*
X118700000Y-82950000D02*
X119000000Y-82950000D01*
X119000000Y-82950000D02*
X119000000Y-86250000D01*
X119000000Y-86250000D02*
X118700000Y-86250000D01*
D11*
X138306000Y-113622000D02*
X137406000Y-113622000D01*
D14*
X136906000Y-113522000D02*
X136906000Y-111522000D01*
D13*
X140230000Y-64970000D02*
X137630000Y-64970000D01*
X137630000Y-64970000D02*
X137630000Y-67630000D01*
X137630000Y-67630000D02*
X140230000Y-67630000D01*
X140230000Y-67630000D02*
X140230000Y-64970000D01*
X141500000Y-64970000D02*
X142830000Y-64970000D01*
X142830000Y-64970000D02*
X142830000Y-66300000D01*
D11*
X116925000Y-149175000D02*
X116975000Y-149175000D01*
X116925000Y-145025000D02*
X117070000Y-145025000D01*
X122075000Y-145025000D02*
X121930000Y-145025000D01*
X122075000Y-149175000D02*
X121930000Y-149175000D01*
X116925000Y-149175000D02*
X116925000Y-145025000D01*
X122075000Y-149175000D02*
X122075000Y-145025000D01*
X116975000Y-149175000D02*
X116975000Y-150575000D01*
D13*
X137900000Y-150950000D02*
X137900000Y-152850000D01*
X137900000Y-152850000D02*
X142600000Y-152850000D01*
X137900000Y-150950000D02*
X142600000Y-150950000D01*
X133500000Y-135570000D02*
X131500000Y-135570000D01*
X131500000Y-133430000D02*
X133500000Y-133430000D01*
D11*
X126733334Y-146457143D02*
X126685715Y-146504762D01*
X126542858Y-146552381D01*
X126447620Y-146552381D01*
X126304762Y-146504762D01*
X126209524Y-146409524D01*
X126161905Y-146314286D01*
X126114286Y-146123810D01*
X126114286Y-145980952D01*
X126161905Y-145790476D01*
X126209524Y-145695238D01*
X126304762Y-145600000D01*
X126447620Y-145552381D01*
X126542858Y-145552381D01*
X126685715Y-145600000D01*
X126733334Y-145647619D01*
X127114286Y-145647619D02*
X127161905Y-145600000D01*
X127257143Y-145552381D01*
X127495239Y-145552381D01*
X127590477Y-145600000D01*
X127638096Y-145647619D01*
X127685715Y-145742857D01*
X127685715Y-145838095D01*
X127638096Y-145980952D01*
X127066667Y-146552381D01*
X127685715Y-146552381D01*
X125502381Y-144852381D02*
X124930952Y-144852381D01*
X125216666Y-144852381D02*
X125216666Y-143852381D01*
X125121428Y-143995238D01*
X125026190Y-144090476D01*
X124930952Y-144138095D01*
X126121428Y-143852381D02*
X126216667Y-143852381D01*
X126311905Y-143900000D01*
X126359524Y-143947619D01*
X126407143Y-144042857D01*
X126454762Y-144233333D01*
X126454762Y-144471429D01*
X126407143Y-144661905D01*
X126359524Y-144757143D01*
X126311905Y-144804762D01*
X126216667Y-144852381D01*
X126121428Y-144852381D01*
X126026190Y-144804762D01*
X125978571Y-144757143D01*
X125930952Y-144661905D01*
X125883333Y-144471429D01*
X125883333Y-144233333D01*
X125930952Y-144042857D01*
X125978571Y-143947619D01*
X126026190Y-143900000D01*
X126121428Y-143852381D01*
X127073809Y-143852381D02*
X127169048Y-143852381D01*
X127264286Y-143900000D01*
X127311905Y-143947619D01*
X127359524Y-144042857D01*
X127407143Y-144233333D01*
X127407143Y-144471429D01*
X127359524Y-144661905D01*
X127311905Y-144757143D01*
X127264286Y-144804762D01*
X127169048Y-144852381D01*
X127073809Y-144852381D01*
X126978571Y-144804762D01*
X126930952Y-144757143D01*
X126883333Y-144661905D01*
X126835714Y-144471429D01*
X126835714Y-144233333D01*
X126883333Y-144042857D01*
X126930952Y-143947619D01*
X126978571Y-143900000D01*
X127073809Y-143852381D01*
X127835714Y-144185714D02*
X127835714Y-144852381D01*
X127835714Y-144280952D02*
X127883333Y-144233333D01*
X127978571Y-144185714D01*
X128121429Y-144185714D01*
X128216667Y-144233333D01*
X128264286Y-144328571D01*
X128264286Y-144852381D01*
X129073810Y-144328571D02*
X128740476Y-144328571D01*
X128740476Y-144852381D02*
X128740476Y-143852381D01*
X129216667Y-143852381D01*
X133533334Y-146457143D02*
X133485715Y-146504762D01*
X133342858Y-146552381D01*
X133247620Y-146552381D01*
X133104762Y-146504762D01*
X133009524Y-146409524D01*
X132961905Y-146314286D01*
X132914286Y-146123810D01*
X132914286Y-145980952D01*
X132961905Y-145790476D01*
X133009524Y-145695238D01*
X133104762Y-145600000D01*
X133247620Y-145552381D01*
X133342858Y-145552381D01*
X133485715Y-145600000D01*
X133533334Y-145647619D01*
X134390477Y-145885714D02*
X134390477Y-146552381D01*
X134152381Y-145504762D02*
X133914286Y-146219048D01*
X134533334Y-146219048D01*
X132302381Y-148002381D02*
X131730952Y-148002381D01*
X132016666Y-148002381D02*
X132016666Y-147002381D01*
X131921428Y-147145238D01*
X131826190Y-147240476D01*
X131730952Y-147288095D01*
X132921428Y-147002381D02*
X133016667Y-147002381D01*
X133111905Y-147050000D01*
X133159524Y-147097619D01*
X133207143Y-147192857D01*
X133254762Y-147383333D01*
X133254762Y-147621429D01*
X133207143Y-147811905D01*
X133159524Y-147907143D01*
X133111905Y-147954762D01*
X133016667Y-148002381D01*
X132921428Y-148002381D01*
X132826190Y-147954762D01*
X132778571Y-147907143D01*
X132730952Y-147811905D01*
X132683333Y-147621429D01*
X132683333Y-147383333D01*
X132730952Y-147192857D01*
X132778571Y-147097619D01*
X132826190Y-147050000D01*
X132921428Y-147002381D01*
X133873809Y-147002381D02*
X133969048Y-147002381D01*
X134064286Y-147050000D01*
X134111905Y-147097619D01*
X134159524Y-147192857D01*
X134207143Y-147383333D01*
X134207143Y-147621429D01*
X134159524Y-147811905D01*
X134111905Y-147907143D01*
X134064286Y-147954762D01*
X133969048Y-148002381D01*
X133873809Y-148002381D01*
X133778571Y-147954762D01*
X133730952Y-147907143D01*
X133683333Y-147811905D01*
X133635714Y-147621429D01*
X133635714Y-147383333D01*
X133683333Y-147192857D01*
X133730952Y-147097619D01*
X133778571Y-147050000D01*
X133873809Y-147002381D01*
X134635714Y-147335714D02*
X134635714Y-148002381D01*
X134635714Y-147430952D02*
X134683333Y-147383333D01*
X134778571Y-147335714D01*
X134921429Y-147335714D01*
X135016667Y-147383333D01*
X135064286Y-147478571D01*
X135064286Y-148002381D01*
X135873810Y-147478571D02*
X135540476Y-147478571D01*
X135540476Y-148002381D02*
X135540476Y-147002381D01*
X136016667Y-147002381D01*
X126833334Y-142357143D02*
X126785715Y-142404762D01*
X126642858Y-142452381D01*
X126547620Y-142452381D01*
X126404762Y-142404762D01*
X126309524Y-142309524D01*
X126261905Y-142214286D01*
X126214286Y-142023810D01*
X126214286Y-141880952D01*
X126261905Y-141690476D01*
X126309524Y-141595238D01*
X126404762Y-141500000D01*
X126547620Y-141452381D01*
X126642858Y-141452381D01*
X126785715Y-141500000D01*
X126833334Y-141547619D01*
X127738096Y-141452381D02*
X127261905Y-141452381D01*
X127214286Y-141928571D01*
X127261905Y-141880952D01*
X127357143Y-141833333D01*
X127595239Y-141833333D01*
X127690477Y-141880952D01*
X127738096Y-141928571D01*
X127785715Y-142023810D01*
X127785715Y-142261905D01*
X127738096Y-142357143D01*
X127690477Y-142404762D01*
X127595239Y-142452381D01*
X127357143Y-142452381D01*
X127261905Y-142404762D01*
X127214286Y-142357143D01*
X126554762Y-141102381D02*
X125983333Y-141102381D01*
X126269047Y-141102381D02*
X126269047Y-140102381D01*
X126173809Y-140245238D01*
X126078571Y-140340476D01*
X125983333Y-140388095D01*
X127411905Y-140435714D02*
X127411905Y-141102381D01*
X126983333Y-140435714D02*
X126983333Y-140959524D01*
X127030952Y-141054762D01*
X127126190Y-141102381D01*
X127269048Y-141102381D01*
X127364286Y-141054762D01*
X127411905Y-141007143D01*
X128221429Y-140578571D02*
X127888095Y-140578571D01*
X127888095Y-141102381D02*
X127888095Y-140102381D01*
X128364286Y-140102381D01*
X127061905Y-150152381D02*
X127061905Y-149152381D01*
X127300000Y-149152381D01*
X127442858Y-149200000D01*
X127538096Y-149295238D01*
X127585715Y-149390476D01*
X127633334Y-149580952D01*
X127633334Y-149723810D01*
X127585715Y-149914286D01*
X127538096Y-150009524D01*
X127442858Y-150104762D01*
X127300000Y-150152381D01*
X127061905Y-150152381D01*
X128585715Y-150152381D02*
X128014286Y-150152381D01*
X128300000Y-150152381D02*
X128300000Y-149152381D01*
X128204762Y-149295238D01*
X128109524Y-149390476D01*
X128014286Y-149438095D01*
D10*
X131550000Y-150366667D02*
X131216667Y-150366667D01*
X131216667Y-149666667D01*
X131783334Y-150000000D02*
X132016667Y-150000000D01*
X132116667Y-150366667D02*
X131783334Y-150366667D01*
X131783334Y-149666667D01*
X132116667Y-149666667D01*
X132416667Y-150366667D02*
X132416667Y-149666667D01*
X132583333Y-149666667D01*
X132683333Y-149700000D01*
X132750000Y-149766667D01*
X132783333Y-149833333D01*
X132816667Y-149966667D01*
X132816667Y-150066667D01*
X132783333Y-150200000D01*
X132750000Y-150266667D01*
X132683333Y-150333333D01*
X132583333Y-150366667D01*
X132416667Y-150366667D01*
D11*
X133323334Y-95254381D02*
X132847143Y-95254381D01*
X132847143Y-94254381D01*
X134228096Y-95159143D02*
X134180477Y-95206762D01*
X134037620Y-95254381D01*
X133942382Y-95254381D01*
X133799524Y-95206762D01*
X133704286Y-95111524D01*
X133656667Y-95016286D01*
X133609048Y-94825810D01*
X133609048Y-94682952D01*
X133656667Y-94492476D01*
X133704286Y-94397238D01*
X133799524Y-94302000D01*
X133942382Y-94254381D01*
X134037620Y-94254381D01*
X134180477Y-94302000D01*
X134228096Y-94349619D01*
X134656667Y-95254381D02*
X134656667Y-94254381D01*
X134894762Y-94254381D01*
X135037620Y-94302000D01*
X135132858Y-94397238D01*
X135180477Y-94492476D01*
X135228096Y-94682952D01*
X135228096Y-94825810D01*
X135180477Y-95016286D01*
X135132858Y-95111524D01*
X135037620Y-95206762D01*
X134894762Y-95254381D01*
X134656667Y-95254381D01*
X136180477Y-95254381D02*
X135609048Y-95254381D01*
X135894762Y-95254381D02*
X135894762Y-94254381D01*
X135799524Y-94397238D01*
X135704286Y-94492476D01*
X135609048Y-94540095D01*
X135759524Y-68304762D02*
X135902381Y-68352381D01*
X136140477Y-68352381D01*
X136235715Y-68304762D01*
X136283334Y-68257143D01*
X136330953Y-68161905D01*
X136330953Y-68066667D01*
X136283334Y-67971429D01*
X136235715Y-67923810D01*
X136140477Y-67876190D01*
X135950000Y-67828571D01*
X135854762Y-67780952D01*
X135807143Y-67733333D01*
X135759524Y-67638095D01*
X135759524Y-67542857D01*
X135807143Y-67447619D01*
X135854762Y-67400000D01*
X135950000Y-67352381D01*
X136188096Y-67352381D01*
X136330953Y-67400000D01*
X137188096Y-68352381D02*
X137188096Y-67352381D01*
X137188096Y-68304762D02*
X137092858Y-68352381D01*
X136902381Y-68352381D01*
X136807143Y-68304762D01*
X136759524Y-68257143D01*
X136711905Y-68161905D01*
X136711905Y-67876190D01*
X136759524Y-67780952D01*
X136807143Y-67733333D01*
X136902381Y-67685714D01*
X137092858Y-67685714D01*
X137188096Y-67733333D01*
X138092858Y-68352381D02*
X138092858Y-67828571D01*
X138045239Y-67733333D01*
X137950001Y-67685714D01*
X137759524Y-67685714D01*
X137664286Y-67733333D01*
X138092858Y-68304762D02*
X137997620Y-68352381D01*
X137759524Y-68352381D01*
X137664286Y-68304762D01*
X137616667Y-68209524D01*
X137616667Y-68114286D01*
X137664286Y-68019048D01*
X137759524Y-67971429D01*
X137997620Y-67971429D01*
X138092858Y-67923810D01*
X132973809Y-68304762D02*
X133116666Y-68352381D01*
X133354762Y-68352381D01*
X133450000Y-68304762D01*
X133497619Y-68257143D01*
X133545238Y-68161905D01*
X133545238Y-68066667D01*
X133497619Y-67971429D01*
X133450000Y-67923810D01*
X133354762Y-67876190D01*
X133164285Y-67828571D01*
X133069047Y-67780952D01*
X133021428Y-67733333D01*
X132973809Y-67638095D01*
X132973809Y-67542857D01*
X133021428Y-67447619D01*
X133069047Y-67400000D01*
X133164285Y-67352381D01*
X133402381Y-67352381D01*
X133545238Y-67400000D01*
X134402381Y-68304762D02*
X134307143Y-68352381D01*
X134116666Y-68352381D01*
X134021428Y-68304762D01*
X133973809Y-68257143D01*
X133926190Y-68161905D01*
X133926190Y-67876190D01*
X133973809Y-67780952D01*
X134021428Y-67733333D01*
X134116666Y-67685714D01*
X134307143Y-67685714D01*
X134402381Y-67733333D01*
X134973809Y-68352381D02*
X134878571Y-68304762D01*
X134830952Y-68209524D01*
X134830952Y-67352381D01*
X129959524Y-67352381D02*
X130292857Y-68352381D01*
X130626191Y-67352381D01*
X131388096Y-68304762D02*
X131292858Y-68352381D01*
X131102381Y-68352381D01*
X131007143Y-68304762D01*
X130959524Y-68257143D01*
X130911905Y-68161905D01*
X130911905Y-67876190D01*
X130959524Y-67780952D01*
X131007143Y-67733333D01*
X131102381Y-67685714D01*
X131292858Y-67685714D01*
X131388096Y-67733333D01*
X132245239Y-68304762D02*
X132150001Y-68352381D01*
X131959524Y-68352381D01*
X131864286Y-68304762D01*
X131816667Y-68257143D01*
X131769048Y-68161905D01*
X131769048Y-67876190D01*
X131816667Y-67780952D01*
X131864286Y-67733333D01*
X131959524Y-67685714D01*
X132150001Y-67685714D01*
X132245239Y-67733333D01*
X127107143Y-67400000D02*
X127011905Y-67352381D01*
X126869048Y-67352381D01*
X126726190Y-67400000D01*
X126630952Y-67495238D01*
X126583333Y-67590476D01*
X126535714Y-67780952D01*
X126535714Y-67923810D01*
X126583333Y-68114286D01*
X126630952Y-68209524D01*
X126726190Y-68304762D01*
X126869048Y-68352381D01*
X126964286Y-68352381D01*
X127107143Y-68304762D01*
X127154762Y-68257143D01*
X127154762Y-67923810D01*
X126964286Y-67923810D01*
X127583333Y-67685714D02*
X127583333Y-68352381D01*
X127583333Y-67780952D02*
X127630952Y-67733333D01*
X127726190Y-67685714D01*
X127869048Y-67685714D01*
X127964286Y-67733333D01*
X128011905Y-67828571D01*
X128011905Y-68352381D01*
X128916667Y-68352381D02*
X128916667Y-67352381D01*
X128916667Y-68304762D02*
X128821429Y-68352381D01*
X128630952Y-68352381D01*
X128535714Y-68304762D01*
X128488095Y-68257143D01*
X128440476Y-68161905D01*
X128440476Y-67876190D01*
X128488095Y-67780952D01*
X128535714Y-67733333D01*
X128630952Y-67685714D01*
X128821429Y-67685714D01*
X128916667Y-67733333D01*
X142219048Y-146002381D02*
X142219048Y-145002381D01*
X142552382Y-145716667D01*
X142885715Y-145002381D01*
X142885715Y-146002381D01*
X143361905Y-146002381D02*
X143361905Y-145335714D01*
X143361905Y-145002381D02*
X143314286Y-145050000D01*
X143361905Y-145097619D01*
X143409524Y-145050000D01*
X143361905Y-145002381D01*
X143361905Y-145097619D01*
X143838095Y-146002381D02*
X143838095Y-145002381D01*
X143933333Y-145621429D02*
X144219048Y-146002381D01*
X144219048Y-145335714D02*
X143838095Y-145716667D01*
X145028572Y-145954762D02*
X144933334Y-146002381D01*
X144742857Y-146002381D01*
X144647619Y-145954762D01*
X144600000Y-145859524D01*
X144600000Y-145478571D01*
X144647619Y-145383333D01*
X144742857Y-145335714D01*
X144933334Y-145335714D01*
X145028572Y-145383333D01*
X145076191Y-145478571D01*
X145076191Y-145573810D01*
X144600000Y-145669048D01*
X146028572Y-146002381D02*
X145457143Y-146002381D01*
X145742857Y-146002381D02*
X145742857Y-145002381D01*
X145647619Y-145145238D01*
X145552381Y-145240476D01*
X145457143Y-145288095D01*
D10*
X143600000Y-151202381D02*
X143600000Y-150202381D01*
X143933334Y-150916667D01*
X144266667Y-150202381D01*
X144266667Y-151202381D01*
X144742857Y-151202381D02*
X144742857Y-150535714D01*
X144742857Y-150202381D02*
X144695238Y-150250000D01*
X144742857Y-150297619D01*
X144790476Y-150250000D01*
X144742857Y-150202381D01*
X144742857Y-150297619D01*
X145647619Y-151154762D02*
X145552381Y-151202381D01*
X145361904Y-151202381D01*
X145266666Y-151154762D01*
X145219047Y-151107143D01*
X145171428Y-151011905D01*
X145171428Y-150726190D01*
X145219047Y-150630952D01*
X145266666Y-150583333D01*
X145361904Y-150535714D01*
X145552381Y-150535714D01*
X145647619Y-150583333D01*
D11*
X143119048Y-148021429D02*
X143880953Y-148021429D01*
X143500001Y-148402381D02*
X143500001Y-147640476D01*
X133833334Y-142452381D02*
X133500000Y-141976190D01*
X133261905Y-142452381D02*
X133261905Y-141452381D01*
X133642858Y-141452381D01*
X133738096Y-141500000D01*
X133785715Y-141547619D01*
X133833334Y-141642857D01*
X133833334Y-141785714D01*
X133785715Y-141880952D01*
X133738096Y-141928571D01*
X133642858Y-141976190D01*
X133261905Y-141976190D01*
X134785715Y-142452381D02*
X134214286Y-142452381D01*
X134500000Y-142452381D02*
X134500000Y-141452381D01*
X134404762Y-141595238D01*
X134309524Y-141690476D01*
X134214286Y-141738095D01*
X133054762Y-143952381D02*
X132483333Y-143952381D01*
X132769047Y-143952381D02*
X132769047Y-142952381D01*
X132673809Y-143095238D01*
X132578571Y-143190476D01*
X132483333Y-143238095D01*
X133673809Y-142952381D02*
X133769048Y-142952381D01*
X133864286Y-143000000D01*
X133911905Y-143047619D01*
X133959524Y-143142857D01*
X134007143Y-143333333D01*
X134007143Y-143571429D01*
X133959524Y-143761905D01*
X133911905Y-143857143D01*
X133864286Y-143904762D01*
X133769048Y-143952381D01*
X133673809Y-143952381D01*
X133578571Y-143904762D01*
X133530952Y-143857143D01*
X133483333Y-143761905D01*
X133435714Y-143571429D01*
X133435714Y-143333333D01*
X133483333Y-143142857D01*
X133530952Y-143047619D01*
X133578571Y-143000000D01*
X133673809Y-142952381D01*
X134435714Y-143952381D02*
X134435714Y-142952381D01*
X134530952Y-143571429D02*
X134816667Y-143952381D01*
X134816667Y-143285714D02*
X134435714Y-143666667D01*
X125552381Y-115416666D02*
X125076190Y-115750000D01*
X125552381Y-115988095D02*
X124552381Y-115988095D01*
X124552381Y-115607142D01*
X124600000Y-115511904D01*
X124647619Y-115464285D01*
X124742857Y-115416666D01*
X124885714Y-115416666D01*
X124980952Y-115464285D01*
X125028571Y-115511904D01*
X125076190Y-115607142D01*
X125076190Y-115988095D01*
X124647619Y-115035714D02*
X124600000Y-114988095D01*
X124552381Y-114892857D01*
X124552381Y-114654761D01*
X124600000Y-114559523D01*
X124647619Y-114511904D01*
X124742857Y-114464285D01*
X124838095Y-114464285D01*
X124980952Y-114511904D01*
X125552381Y-115083333D01*
X125552381Y-114464285D01*
X137852381Y-143666666D02*
X137376190Y-144000000D01*
X137852381Y-144238095D02*
X136852381Y-144238095D01*
X136852381Y-143857142D01*
X136900000Y-143761904D01*
X136947619Y-143714285D01*
X137042857Y-143666666D01*
X137185714Y-143666666D01*
X137280952Y-143714285D01*
X137328571Y-143761904D01*
X137376190Y-143857142D01*
X137376190Y-144238095D01*
X136852381Y-143333333D02*
X136852381Y-142714285D01*
X137233333Y-143047619D01*
X137233333Y-142904761D01*
X137280952Y-142809523D01*
X137328571Y-142761904D01*
X137423810Y-142714285D01*
X137661905Y-142714285D01*
X137757143Y-142761904D01*
X137804762Y-142809523D01*
X137852381Y-142904761D01*
X137852381Y-143190476D01*
X137804762Y-143285714D01*
X137757143Y-143333333D01*
X140935714Y-144261904D02*
X141602381Y-144261904D01*
X140554762Y-144500000D02*
X141269048Y-144738095D01*
X141269048Y-144119047D01*
X140602381Y-143833333D02*
X140602381Y-143166666D01*
X141602381Y-143595238D01*
X140602381Y-142595238D02*
X140602381Y-142499999D01*
X140650000Y-142404761D01*
X140697619Y-142357142D01*
X140792857Y-142309523D01*
X140983333Y-142261904D01*
X141221429Y-142261904D01*
X141411905Y-142309523D01*
X141507143Y-142357142D01*
X141554762Y-142404761D01*
X141602381Y-142499999D01*
X141602381Y-142595238D01*
X141554762Y-142690476D01*
X141507143Y-142738095D01*
X141411905Y-142785714D01*
X141221429Y-142833333D01*
X140983333Y-142833333D01*
X140792857Y-142785714D01*
X140697619Y-142738095D01*
X140650000Y-142690476D01*
X140602381Y-142595238D01*
X130288095Y-138752381D02*
X130288095Y-139561905D01*
X130335714Y-139657143D01*
X130383333Y-139704762D01*
X130478571Y-139752381D01*
X130669048Y-139752381D01*
X130764286Y-139704762D01*
X130811905Y-139657143D01*
X130859524Y-139561905D01*
X130859524Y-138752381D01*
X131859524Y-139752381D02*
X131288095Y-139752381D01*
X131573809Y-139752381D02*
X131573809Y-138752381D01*
X131478571Y-138895238D01*
X131383333Y-138990476D01*
X131288095Y-139038095D01*
X127745238Y-131328571D02*
X128078572Y-131328571D01*
X128221429Y-131852381D02*
X127745238Y-131852381D01*
X127745238Y-130852381D01*
X128221429Y-130852381D01*
X128602381Y-131804762D02*
X128745238Y-131852381D01*
X128983334Y-131852381D01*
X129078572Y-131804762D01*
X129126191Y-131757143D01*
X129173810Y-131661905D01*
X129173810Y-131566667D01*
X129126191Y-131471429D01*
X129078572Y-131423810D01*
X128983334Y-131376190D01*
X128792857Y-131328571D01*
X128697619Y-131280952D01*
X128650000Y-131233333D01*
X128602381Y-131138095D01*
X128602381Y-131042857D01*
X128650000Y-130947619D01*
X128697619Y-130900000D01*
X128792857Y-130852381D01*
X129030953Y-130852381D01*
X129173810Y-130900000D01*
X129602381Y-131852381D02*
X129602381Y-130852381D01*
X129983334Y-130852381D01*
X130078572Y-130900000D01*
X130126191Y-130947619D01*
X130173810Y-131042857D01*
X130173810Y-131185714D01*
X130126191Y-131280952D01*
X130078572Y-131328571D01*
X129983334Y-131376190D01*
X129602381Y-131376190D01*
X130507143Y-130852381D02*
X131126191Y-130852381D01*
X130792857Y-131233333D01*
X130935715Y-131233333D01*
X131030953Y-131280952D01*
X131078572Y-131328571D01*
X131126191Y-131423810D01*
X131126191Y-131661905D01*
X131078572Y-131757143D01*
X131030953Y-131804762D01*
X130935715Y-131852381D01*
X130650000Y-131852381D01*
X130554762Y-131804762D01*
X130507143Y-131757143D01*
X131507143Y-130947619D02*
X131554762Y-130900000D01*
X131650000Y-130852381D01*
X131888096Y-130852381D01*
X131983334Y-130900000D01*
X132030953Y-130947619D01*
X132078572Y-131042857D01*
X132078572Y-131138095D01*
X132030953Y-131280952D01*
X131459524Y-131852381D01*
X132078572Y-131852381D01*
X133269048Y-131852381D02*
X133269048Y-130852381D01*
X133507143Y-130852381D01*
X133650001Y-130900000D01*
X133745239Y-130995238D01*
X133792858Y-131090476D01*
X133840477Y-131280952D01*
X133840477Y-131423810D01*
X133792858Y-131614286D01*
X133745239Y-131709524D01*
X133650001Y-131804762D01*
X133507143Y-131852381D01*
X133269048Y-131852381D01*
X134269048Y-131328571D02*
X134602382Y-131328571D01*
X134745239Y-131852381D02*
X134269048Y-131852381D01*
X134269048Y-130852381D01*
X134745239Y-130852381D01*
X135030953Y-130852381D02*
X135364286Y-131852381D01*
X135697620Y-130852381D01*
X126833334Y-139452381D02*
X126500000Y-138976190D01*
X126261905Y-139452381D02*
X126261905Y-138452381D01*
X126642858Y-138452381D01*
X126738096Y-138500000D01*
X126785715Y-138547619D01*
X126833334Y-138642857D01*
X126833334Y-138785714D01*
X126785715Y-138880952D01*
X126738096Y-138928571D01*
X126642858Y-138976190D01*
X126261905Y-138976190D01*
X127690477Y-138785714D02*
X127690477Y-139452381D01*
X127452381Y-138404762D02*
X127214286Y-139119048D01*
X127833334Y-139119048D01*
X125833333Y-136947619D02*
X125880952Y-136900000D01*
X125976190Y-136852381D01*
X126214286Y-136852381D01*
X126309524Y-136900000D01*
X126357143Y-136947619D01*
X126404762Y-137042857D01*
X126404762Y-137138095D01*
X126357143Y-137280952D01*
X125785714Y-137852381D01*
X126404762Y-137852381D01*
X126785714Y-136947619D02*
X126833333Y-136900000D01*
X126928571Y-136852381D01*
X127166667Y-136852381D01*
X127261905Y-136900000D01*
X127309524Y-136947619D01*
X127357143Y-137042857D01*
X127357143Y-137138095D01*
X127309524Y-137280952D01*
X126738095Y-137852381D01*
X127357143Y-137852381D01*
X127785714Y-137852381D02*
X127785714Y-136852381D01*
X127880952Y-137471429D02*
X128166667Y-137852381D01*
X128166667Y-137185714D02*
X127785714Y-137566667D01*
X134633334Y-137402381D02*
X134300000Y-136926190D01*
X134061905Y-137402381D02*
X134061905Y-136402381D01*
X134442858Y-136402381D01*
X134538096Y-136450000D01*
X134585715Y-136497619D01*
X134633334Y-136592857D01*
X134633334Y-136735714D01*
X134585715Y-136830952D01*
X134538096Y-136878571D01*
X134442858Y-136926190D01*
X134061905Y-136926190D01*
X135490477Y-136402381D02*
X135300000Y-136402381D01*
X135204762Y-136450000D01*
X135157143Y-136497619D01*
X135061905Y-136640476D01*
X135014286Y-136830952D01*
X135014286Y-137211905D01*
X135061905Y-137307143D01*
X135109524Y-137354762D01*
X135204762Y-137402381D01*
X135395239Y-137402381D01*
X135490477Y-137354762D01*
X135538096Y-137307143D01*
X135585715Y-137211905D01*
X135585715Y-136973810D01*
X135538096Y-136878571D01*
X135490477Y-136830952D01*
X135395239Y-136783333D01*
X135204762Y-136783333D01*
X135109524Y-136830952D01*
X135061905Y-136878571D01*
X135014286Y-136973810D01*
X133778572Y-140952381D02*
X133207143Y-140952381D01*
X133492857Y-140952381D02*
X133492857Y-139952381D01*
X133397619Y-140095238D01*
X133302381Y-140190476D01*
X133207143Y-140238095D01*
X134683334Y-139952381D02*
X134207143Y-139952381D01*
X134159524Y-140428571D01*
X134207143Y-140380952D01*
X134302381Y-140333333D01*
X134540477Y-140333333D01*
X134635715Y-140380952D01*
X134683334Y-140428571D01*
X134730953Y-140523810D01*
X134730953Y-140761905D01*
X134683334Y-140857143D01*
X134635715Y-140904762D01*
X134540477Y-140952381D01*
X134302381Y-140952381D01*
X134207143Y-140904762D01*
X134159524Y-140857143D01*
X135350000Y-139952381D02*
X135445239Y-139952381D01*
X135540477Y-140000000D01*
X135588096Y-140047619D01*
X135635715Y-140142857D01*
X135683334Y-140333333D01*
X135683334Y-140571429D01*
X135635715Y-140761905D01*
X135588096Y-140857143D01*
X135540477Y-140904762D01*
X135445239Y-140952381D01*
X135350000Y-140952381D01*
X135254762Y-140904762D01*
X135207143Y-140857143D01*
X135159524Y-140761905D01*
X135111905Y-140571429D01*
X135111905Y-140333333D01*
X135159524Y-140142857D01*
X135207143Y-140047619D01*
X135254762Y-140000000D01*
X135350000Y-139952381D01*
X136111905Y-140952381D02*
X136111905Y-139952381D01*
X136207143Y-140571429D02*
X136492858Y-140952381D01*
X136492858Y-140285714D02*
X136111905Y-140666667D01*
X122233334Y-152007143D02*
X122185715Y-152054762D01*
X122042858Y-152102381D01*
X121947620Y-152102381D01*
X121804762Y-152054762D01*
X121709524Y-151959524D01*
X121661905Y-151864286D01*
X121614286Y-151673810D01*
X121614286Y-151530952D01*
X121661905Y-151340476D01*
X121709524Y-151245238D01*
X121804762Y-151150000D01*
X121947620Y-151102381D01*
X122042858Y-151102381D01*
X122185715Y-151150000D01*
X122233334Y-151197619D01*
X122566667Y-151102381D02*
X123185715Y-151102381D01*
X122852381Y-151483333D01*
X122995239Y-151483333D01*
X123090477Y-151530952D01*
X123138096Y-151578571D01*
X123185715Y-151673810D01*
X123185715Y-151911905D01*
X123138096Y-152007143D01*
X123090477Y-152054762D01*
X122995239Y-152102381D01*
X122709524Y-152102381D01*
X122614286Y-152054762D01*
X122566667Y-152007143D01*
X135807143Y-95966666D02*
X135854762Y-96014285D01*
X135902381Y-96157142D01*
X135902381Y-96252380D01*
X135854762Y-96395238D01*
X135759524Y-96490476D01*
X135664286Y-96538095D01*
X135473810Y-96585714D01*
X135330952Y-96585714D01*
X135140476Y-96538095D01*
X135045238Y-96490476D01*
X134950000Y-96395238D01*
X134902381Y-96252380D01*
X134902381Y-96157142D01*
X134950000Y-96014285D01*
X134997619Y-95966666D01*
X134902381Y-95633333D02*
X134902381Y-94966666D01*
X135902381Y-95395238D01*
X126872381Y-81192666D02*
X126396190Y-81526000D01*
X126872381Y-81764095D02*
X125872381Y-81764095D01*
X125872381Y-81383142D01*
X125920000Y-81287904D01*
X125967619Y-81240285D01*
X126062857Y-81192666D01*
X126205714Y-81192666D01*
X126300952Y-81240285D01*
X126348571Y-81287904D01*
X126396190Y-81383142D01*
X126396190Y-81764095D01*
X125872381Y-80859333D02*
X125872381Y-80192666D01*
X126872381Y-80621238D01*
X129373334Y-113046381D02*
X129040000Y-112570190D01*
X128801905Y-113046381D02*
X128801905Y-112046381D01*
X129182858Y-112046381D01*
X129278096Y-112094000D01*
X129325715Y-112141619D01*
X129373334Y-112236857D01*
X129373334Y-112379714D01*
X129325715Y-112474952D01*
X129278096Y-112522571D01*
X129182858Y-112570190D01*
X128801905Y-112570190D01*
X129944762Y-112474952D02*
X129849524Y-112427333D01*
X129801905Y-112379714D01*
X129754286Y-112284476D01*
X129754286Y-112236857D01*
X129801905Y-112141619D01*
X129849524Y-112094000D01*
X129944762Y-112046381D01*
X130135239Y-112046381D01*
X130230477Y-112094000D01*
X130278096Y-112141619D01*
X130325715Y-112236857D01*
X130325715Y-112284476D01*
X130278096Y-112379714D01*
X130230477Y-112427333D01*
X130135239Y-112474952D01*
X129944762Y-112474952D01*
X129849524Y-112522571D01*
X129801905Y-112570190D01*
X129754286Y-112665429D01*
X129754286Y-112855905D01*
X129801905Y-112951143D01*
X129849524Y-112998762D01*
X129944762Y-113046381D01*
X130135239Y-113046381D01*
X130230477Y-112998762D01*
X130278096Y-112951143D01*
X130325715Y-112855905D01*
X130325715Y-112665429D01*
X130278096Y-112570190D01*
X130230477Y-112522571D01*
X130135239Y-112474952D01*
X127126381Y-91352666D02*
X126650190Y-91686000D01*
X127126381Y-91924095D02*
X126126381Y-91924095D01*
X126126381Y-91543142D01*
X126174000Y-91447904D01*
X126221619Y-91400285D01*
X126316857Y-91352666D01*
X126459714Y-91352666D01*
X126554952Y-91400285D01*
X126602571Y-91447904D01*
X126650190Y-91543142D01*
X126650190Y-91924095D01*
X127126381Y-90876476D02*
X127126381Y-90686000D01*
X127078762Y-90590761D01*
X127031143Y-90543142D01*
X126888286Y-90447904D01*
X126697810Y-90400285D01*
X126316857Y-90400285D01*
X126221619Y-90447904D01*
X126174000Y-90495523D01*
X126126381Y-90590761D01*
X126126381Y-90781238D01*
X126174000Y-90876476D01*
X126221619Y-90924095D01*
X126316857Y-90971714D01*
X126554952Y-90971714D01*
X126650190Y-90924095D01*
X126697810Y-90876476D01*
X126745429Y-90781238D01*
X126745429Y-90590761D01*
X126697810Y-90495523D01*
X126650190Y-90447904D01*
X126554952Y-90400285D01*
X129913143Y-120666381D02*
X129579809Y-120190190D01*
X129341714Y-120666381D02*
X129341714Y-119666381D01*
X129722667Y-119666381D01*
X129817905Y-119714000D01*
X129865524Y-119761619D01*
X129913143Y-119856857D01*
X129913143Y-119999714D01*
X129865524Y-120094952D01*
X129817905Y-120142571D01*
X129722667Y-120190190D01*
X129341714Y-120190190D01*
X130865524Y-120666381D02*
X130294095Y-120666381D01*
X130579809Y-120666381D02*
X130579809Y-119666381D01*
X130484571Y-119809238D01*
X130389333Y-119904476D01*
X130294095Y-119952095D01*
X131484571Y-119666381D02*
X131579810Y-119666381D01*
X131675048Y-119714000D01*
X131722667Y-119761619D01*
X131770286Y-119856857D01*
X131817905Y-120047333D01*
X131817905Y-120285429D01*
X131770286Y-120475905D01*
X131722667Y-120571143D01*
X131675048Y-120618762D01*
X131579810Y-120666381D01*
X131484571Y-120666381D01*
X131389333Y-120618762D01*
X131341714Y-120571143D01*
X131294095Y-120475905D01*
X131246476Y-120285429D01*
X131246476Y-120047333D01*
X131294095Y-119856857D01*
X131341714Y-119761619D01*
X131389333Y-119714000D01*
X131484571Y-119666381D01*
X120129762Y-75333333D02*
X120177381Y-75190476D01*
X120177381Y-74952380D01*
X120129762Y-74857142D01*
X120082143Y-74809523D01*
X119986905Y-74761904D01*
X119891667Y-74761904D01*
X119796429Y-74809523D01*
X119748810Y-74857142D01*
X119701190Y-74952380D01*
X119653571Y-75142857D01*
X119605952Y-75238095D01*
X119558333Y-75285714D01*
X119463095Y-75333333D01*
X119367857Y-75333333D01*
X119272619Y-75285714D01*
X119225000Y-75238095D01*
X119177381Y-75142857D01*
X119177381Y-74904761D01*
X119225000Y-74761904D01*
X119177381Y-74428571D02*
X120177381Y-74190476D01*
X119463095Y-73999999D01*
X120177381Y-73809523D01*
X119177381Y-73571428D01*
X119510714Y-72761904D02*
X120177381Y-72761904D01*
X119129762Y-73000000D02*
X119844048Y-73238095D01*
X119844048Y-72619047D01*
X120504762Y-70733333D02*
X120552381Y-70590476D01*
X120552381Y-70352380D01*
X120504762Y-70257142D01*
X120457143Y-70209523D01*
X120361905Y-70161904D01*
X120266667Y-70161904D01*
X120171429Y-70209523D01*
X120123810Y-70257142D01*
X120076190Y-70352380D01*
X120028571Y-70542857D01*
X119980952Y-70638095D01*
X119933333Y-70685714D01*
X119838095Y-70733333D01*
X119742857Y-70733333D01*
X119647619Y-70685714D01*
X119600000Y-70638095D01*
X119552381Y-70542857D01*
X119552381Y-70304761D01*
X119600000Y-70161904D01*
X119552381Y-69828571D02*
X120552381Y-69590476D01*
X119838095Y-69399999D01*
X120552381Y-69209523D01*
X119552381Y-68971428D01*
X119552381Y-68114285D02*
X119552381Y-68590476D01*
X120028571Y-68638095D01*
X119980952Y-68590476D01*
X119933333Y-68495238D01*
X119933333Y-68257142D01*
X119980952Y-68161904D01*
X120028571Y-68114285D01*
X120123810Y-68066666D01*
X120361905Y-68066666D01*
X120457143Y-68114285D01*
X120504762Y-68161904D01*
X120552381Y-68257142D01*
X120552381Y-68495238D01*
X120504762Y-68590476D01*
X120457143Y-68638095D01*
X120429762Y-90933333D02*
X120477381Y-90790476D01*
X120477381Y-90552380D01*
X120429762Y-90457142D01*
X120382143Y-90409523D01*
X120286905Y-90361904D01*
X120191667Y-90361904D01*
X120096429Y-90409523D01*
X120048810Y-90457142D01*
X120001190Y-90552380D01*
X119953571Y-90742857D01*
X119905952Y-90838095D01*
X119858333Y-90885714D01*
X119763095Y-90933333D01*
X119667857Y-90933333D01*
X119572619Y-90885714D01*
X119525000Y-90838095D01*
X119477381Y-90742857D01*
X119477381Y-90504761D01*
X119525000Y-90361904D01*
X119477381Y-90028571D02*
X120477381Y-89790476D01*
X119763095Y-89599999D01*
X120477381Y-89409523D01*
X119477381Y-89171428D01*
X119477381Y-88361904D02*
X119477381Y-88552381D01*
X119525000Y-88647619D01*
X119572619Y-88695238D01*
X119715476Y-88790476D01*
X119905952Y-88838095D01*
X120286905Y-88838095D01*
X120382143Y-88790476D01*
X120429762Y-88742857D01*
X120477381Y-88647619D01*
X120477381Y-88457142D01*
X120429762Y-88361904D01*
X120382143Y-88314285D01*
X120286905Y-88266666D01*
X120048810Y-88266666D01*
X119953571Y-88314285D01*
X119905952Y-88361904D01*
X119858333Y-88457142D01*
X119858333Y-88647619D01*
X119905952Y-88742857D01*
X119953571Y-88790476D01*
X120048810Y-88838095D01*
X120504762Y-85933333D02*
X120552381Y-85790476D01*
X120552381Y-85552380D01*
X120504762Y-85457142D01*
X120457143Y-85409523D01*
X120361905Y-85361904D01*
X120266667Y-85361904D01*
X120171429Y-85409523D01*
X120123810Y-85457142D01*
X120076190Y-85552380D01*
X120028571Y-85742857D01*
X119980952Y-85838095D01*
X119933333Y-85885714D01*
X119838095Y-85933333D01*
X119742857Y-85933333D01*
X119647619Y-85885714D01*
X119600000Y-85838095D01*
X119552381Y-85742857D01*
X119552381Y-85504761D01*
X119600000Y-85361904D01*
X119552381Y-85028571D02*
X120552381Y-84790476D01*
X119838095Y-84599999D01*
X120552381Y-84409523D01*
X119552381Y-84171428D01*
X119552381Y-83885714D02*
X119552381Y-83219047D01*
X120552381Y-83647619D01*
X135191714Y-110343905D02*
X135191714Y-109543905D01*
X135382190Y-109543905D01*
X135496476Y-109582000D01*
X135572667Y-109658190D01*
X135610762Y-109734381D01*
X135648857Y-109886762D01*
X135648857Y-110001048D01*
X135610762Y-110153429D01*
X135572667Y-110229619D01*
X135496476Y-110305810D01*
X135382190Y-110343905D01*
X135191714Y-110343905D01*
X135991714Y-110343905D02*
X135991714Y-109543905D01*
X136296476Y-109543905D01*
X136372667Y-109582000D01*
X136410762Y-109620095D01*
X136448857Y-109696286D01*
X136448857Y-109810571D01*
X136410762Y-109886762D01*
X136372667Y-109924857D01*
X136296476Y-109962952D01*
X135991714Y-109962952D01*
X136944095Y-109543905D02*
X137096476Y-109543905D01*
X137172667Y-109582000D01*
X137248857Y-109658190D01*
X137286952Y-109810571D01*
X137286952Y-110077238D01*
X137248857Y-110229619D01*
X137172667Y-110305810D01*
X137096476Y-110343905D01*
X136944095Y-110343905D01*
X136867905Y-110305810D01*
X136791714Y-110229619D01*
X136753619Y-110077238D01*
X136753619Y-109810571D01*
X136791714Y-109658190D01*
X136867905Y-109582000D01*
X136944095Y-109543905D01*
X137515523Y-109543905D02*
X137972666Y-109543905D01*
X137744095Y-110343905D02*
X137744095Y-109543905D01*
X138658381Y-110343905D02*
X138201238Y-110343905D01*
X138429809Y-110343905D02*
X138429809Y-109543905D01*
X138353619Y-109658190D01*
X138277428Y-109734381D01*
X138201238Y-109772476D01*
X133667905Y-115514381D02*
X133667905Y-114514381D01*
X134001239Y-115228667D01*
X134334572Y-114514381D01*
X134334572Y-115514381D01*
X135382191Y-115419143D02*
X135334572Y-115466762D01*
X135191715Y-115514381D01*
X135096477Y-115514381D01*
X134953619Y-115466762D01*
X134858381Y-115371524D01*
X134810762Y-115276286D01*
X134763143Y-115085810D01*
X134763143Y-114942952D01*
X134810762Y-114752476D01*
X134858381Y-114657238D01*
X134953619Y-114562000D01*
X135096477Y-114514381D01*
X135191715Y-114514381D01*
X135334572Y-114562000D01*
X135382191Y-114609619D01*
X135810762Y-115514381D02*
X135810762Y-114514381D01*
X136191715Y-114514381D01*
X136286953Y-114562000D01*
X136334572Y-114609619D01*
X136382191Y-114704857D01*
X136382191Y-114847714D01*
X136334572Y-114942952D01*
X136286953Y-114990571D01*
X136191715Y-115038190D01*
X135810762Y-115038190D01*
X137239334Y-114847714D02*
X137239334Y-115514381D01*
X137001238Y-114466762D02*
X136763143Y-115181048D01*
X137382191Y-115181048D01*
X137953619Y-114514381D02*
X138048858Y-114514381D01*
X138144096Y-114562000D01*
X138191715Y-114609619D01*
X138239334Y-114704857D01*
X138286953Y-114895333D01*
X138286953Y-115133429D01*
X138239334Y-115323905D01*
X138191715Y-115419143D01*
X138144096Y-115466762D01*
X138048858Y-115514381D01*
X137953619Y-115514381D01*
X137858381Y-115466762D01*
X137810762Y-115419143D01*
X137763143Y-115323905D01*
X137715524Y-115133429D01*
X137715524Y-114895333D01*
X137763143Y-114704857D01*
X137810762Y-114609619D01*
X137858381Y-114562000D01*
X137953619Y-114514381D01*
X139239334Y-115514381D02*
X138667905Y-115514381D01*
X138953619Y-115514381D02*
X138953619Y-114514381D01*
X138858381Y-114657238D01*
X138763143Y-114752476D01*
X138667905Y-114800095D01*
X139810762Y-114942952D02*
X139715524Y-114895333D01*
X139667905Y-114847714D01*
X139620286Y-114752476D01*
X139620286Y-114704857D01*
X139667905Y-114609619D01*
X139715524Y-114562000D01*
X139810762Y-114514381D01*
X140001239Y-114514381D01*
X140096477Y-114562000D01*
X140144096Y-114609619D01*
X140191715Y-114704857D01*
X140191715Y-114752476D01*
X140144096Y-114847714D01*
X140096477Y-114895333D01*
X140001239Y-114942952D01*
X139810762Y-114942952D01*
X139715524Y-114990571D01*
X139667905Y-115038190D01*
X139620286Y-115133429D01*
X139620286Y-115323905D01*
X139667905Y-115419143D01*
X139715524Y-115466762D01*
X139810762Y-115514381D01*
X140001239Y-115514381D01*
X140096477Y-115466762D01*
X140144096Y-115419143D01*
X140191715Y-115323905D01*
X140191715Y-115133429D01*
X140144096Y-115038190D01*
X140096477Y-114990571D01*
X140001239Y-114942952D01*
X143758571Y-69157143D02*
X143806190Y-69014286D01*
X143853810Y-68966667D01*
X143949048Y-68919048D01*
X144091905Y-68919048D01*
X144187143Y-68966667D01*
X144234762Y-69014286D01*
X144282381Y-69109524D01*
X144282381Y-69490477D01*
X143282381Y-69490477D01*
X143282381Y-69157143D01*
X143330000Y-69061905D01*
X143377619Y-69014286D01*
X143472857Y-68966667D01*
X143568095Y-68966667D01*
X143663333Y-69014286D01*
X143710952Y-69061905D01*
X143758571Y-69157143D01*
X143758571Y-69490477D01*
X144282381Y-68490477D02*
X143282381Y-68490477D01*
X143996667Y-68157143D01*
X143282381Y-67823810D01*
X144282381Y-67823810D01*
X144282381Y-66919048D02*
X143758571Y-66919048D01*
X143663333Y-66966667D01*
X143615714Y-67061905D01*
X143615714Y-67252382D01*
X143663333Y-67347620D01*
X144234762Y-66919048D02*
X144282381Y-67014286D01*
X144282381Y-67252382D01*
X144234762Y-67347620D01*
X144139524Y-67395239D01*
X144044286Y-67395239D01*
X143949048Y-67347620D01*
X143901429Y-67252382D01*
X143901429Y-67014286D01*
X143853810Y-66919048D01*
X144234762Y-66490477D02*
X144282381Y-66395239D01*
X144282381Y-66204763D01*
X144234762Y-66109524D01*
X144139524Y-66061905D01*
X144091905Y-66061905D01*
X143996667Y-66109524D01*
X143949048Y-66204763D01*
X143949048Y-66347620D01*
X143901429Y-66442858D01*
X143806190Y-66490477D01*
X143758571Y-66490477D01*
X143663333Y-66442858D01*
X143615714Y-66347620D01*
X143615714Y-66204763D01*
X143663333Y-66109524D01*
X143615714Y-65776191D02*
X143615714Y-65395239D01*
X143282381Y-65633334D02*
X144139524Y-65633334D01*
X144234762Y-65585715D01*
X144282381Y-65490477D01*
X144282381Y-65395239D01*
X144234762Y-64680952D02*
X144282381Y-64776190D01*
X144282381Y-64966667D01*
X144234762Y-65061905D01*
X144139524Y-65109524D01*
X143758571Y-65109524D01*
X143663333Y-65061905D01*
X143615714Y-64966667D01*
X143615714Y-64776190D01*
X143663333Y-64680952D01*
X143758571Y-64633333D01*
X143853810Y-64633333D01*
X143949048Y-65109524D01*
X144282381Y-64204762D02*
X143615714Y-64204762D01*
X143806190Y-64204762D02*
X143710952Y-64157143D01*
X143663333Y-64109524D01*
X143615714Y-64014286D01*
X143615714Y-63919047D01*
X144282381Y-63061904D02*
X144282381Y-63633333D01*
X144282381Y-63347619D02*
X143282381Y-63347619D01*
X143425238Y-63442857D01*
X143520476Y-63538095D01*
X143568095Y-63633333D01*
D10*
X116666667Y-149366667D02*
X116666667Y-149033333D01*
X116866667Y-149433333D02*
X116166667Y-149200000D01*
X116866667Y-148966667D01*
X116866667Y-148733333D02*
X116166667Y-148733333D01*
X116666667Y-148500000D01*
X116166667Y-148266667D01*
X116866667Y-148266667D01*
X116866667Y-147933333D02*
X116166667Y-147933333D01*
X116166667Y-147666667D01*
X116200000Y-147600000D01*
X116233333Y-147566667D01*
X116300000Y-147533333D01*
X116400000Y-147533333D01*
X116466667Y-147566667D01*
X116500000Y-147600000D01*
X116533333Y-147666667D01*
X116533333Y-147933333D01*
X116666667Y-147266667D02*
X116666667Y-146933333D01*
X116866667Y-147333333D02*
X116166667Y-147100000D01*
X116866667Y-146866667D01*
X116166667Y-146633333D02*
X116733333Y-146633333D01*
X116800000Y-146600000D01*
X116833333Y-146566667D01*
X116866667Y-146500000D01*
X116866667Y-146366667D01*
X116833333Y-146300000D01*
X116800000Y-146266667D01*
X116733333Y-146233333D01*
X116166667Y-146233333D01*
X116866667Y-145900000D02*
X116166667Y-145900000D01*
X116166667Y-145733334D01*
X116200000Y-145633334D01*
X116266667Y-145566667D01*
X116333333Y-145533334D01*
X116466667Y-145500000D01*
X116566667Y-145500000D01*
X116700000Y-145533334D01*
X116766667Y-145566667D01*
X116833333Y-145633334D01*
X116866667Y-145733334D01*
X116866667Y-145900000D01*
X116866667Y-144833334D02*
X116866667Y-145233334D01*
X116866667Y-145033334D02*
X116166667Y-145033334D01*
X116266667Y-145100000D01*
X116333333Y-145166667D01*
X116366667Y-145233334D01*
D11*
X140261905Y-150502381D02*
X140261905Y-149502381D01*
X140500000Y-149502381D01*
X140642858Y-149550000D01*
X140738096Y-149645238D01*
X140785715Y-149740476D01*
X140833334Y-149930952D01*
X140833334Y-150073810D01*
X140785715Y-150264286D01*
X140738096Y-150359524D01*
X140642858Y-150454762D01*
X140500000Y-150502381D01*
X140261905Y-150502381D01*
X141214286Y-149597619D02*
X141261905Y-149550000D01*
X141357143Y-149502381D01*
X141595239Y-149502381D01*
X141690477Y-149550000D01*
X141738096Y-149597619D01*
X141785715Y-149692857D01*
X141785715Y-149788095D01*
X141738096Y-149930952D01*
X141166667Y-150502381D01*
X141785715Y-150502381D01*
X140357143Y-154252381D02*
X139880952Y-154252381D01*
X139880952Y-153252381D01*
X140690476Y-153728571D02*
X141023810Y-153728571D01*
X141166667Y-154252381D02*
X140690476Y-154252381D01*
X140690476Y-153252381D01*
X141166667Y-153252381D01*
X141595238Y-154252381D02*
X141595238Y-153252381D01*
X141833333Y-153252381D01*
X141976191Y-153300000D01*
X142071429Y-153395238D01*
X142119048Y-153490476D01*
X142166667Y-153680952D01*
X142166667Y-153823810D01*
X142119048Y-154014286D01*
X142071429Y-154109524D01*
X141976191Y-154204762D01*
X141833333Y-154252381D01*
X141595238Y-154252381D01*
D10*
X132757143Y-134978572D02*
X132328571Y-135278572D01*
X132757143Y-135492857D02*
X131857143Y-135492857D01*
X131857143Y-135150000D01*
X131900000Y-135064286D01*
X131942857Y-135021429D01*
X132028571Y-134978572D01*
X132157143Y-134978572D01*
X132242857Y-135021429D01*
X132285714Y-135064286D01*
X132328571Y-135150000D01*
X132328571Y-135492857D01*
X132757143Y-134121429D02*
X132757143Y-134635714D01*
X132757143Y-134378572D02*
X131857143Y-134378572D01*
X131985714Y-134464286D01*
X132071429Y-134550000D01*
X132114286Y-134635714D01*
X132757143Y-133264286D02*
X132757143Y-133778571D01*
X132757143Y-133521429D02*
X131857143Y-133521429D01*
X131985714Y-133607143D01*
X132071429Y-133692857D01*
X132114286Y-133778571D01*
D11*
X126611905Y-134247619D02*
X126659524Y-134200000D01*
X126754762Y-134152381D01*
X126992858Y-134152381D01*
X127088096Y-134200000D01*
X127135715Y-134247619D01*
X127183334Y-134342857D01*
X127183334Y-134438095D01*
X127135715Y-134580952D01*
X126564286Y-135152381D01*
X127183334Y-135152381D01*
X127564286Y-134247619D02*
X127611905Y-134200000D01*
X127707143Y-134152381D01*
X127945239Y-134152381D01*
X128040477Y-134200000D01*
X128088096Y-134247619D01*
X128135715Y-134342857D01*
X128135715Y-134438095D01*
X128088096Y-134580952D01*
X127516667Y-135152381D01*
X128135715Y-135152381D01*
X128754762Y-134152381D02*
X128850001Y-134152381D01*
X128945239Y-134200000D01*
X128992858Y-134247619D01*
X129040477Y-134342857D01*
X129088096Y-134533333D01*
X129088096Y-134771429D01*
X129040477Y-134961905D01*
X128992858Y-135057143D01*
X128945239Y-135104762D01*
X128850001Y-135152381D01*
X128754762Y-135152381D01*
X128659524Y-135104762D01*
X128611905Y-135057143D01*
X128564286Y-134961905D01*
X128516667Y-134771429D01*
X128516667Y-134533333D01*
X128564286Y-134342857D01*
X128611905Y-134247619D01*
X128659524Y-134200000D01*
X128754762Y-134152381D01*
M02*
