G04 #@! TF.FileFunction,Copper,L2,Bot,Signal*
%FSLAX46Y46*%
G04 Gerber Fmt 4.6, Leading zero omitted, Abs format (unit mm)*
G04 Created by KiCad (PCBNEW 4.0.4-stable) date 08/15/17 20:15:11*
%MOMM*%
%LPD*%
G01*
G04 APERTURE LIST*
%ADD10C,0.100000*%
%ADD11R,1.270000X4.191000*%
%ADD12R,1.270000X3.683000*%
%ADD13R,1.600000X2.000000*%
%ADD14R,4.000000X1.524000*%
%ADD15R,1.524000X4.000000*%
%ADD16R,8.000000X3.000000*%
%ADD17C,1.524000*%
%ADD18C,0.760000*%
%ADD19R,2.000000X1.700000*%
%ADD20R,1.500000X0.700000*%
%ADD21R,0.800000X1.000000*%
%ADD22R,2.800000X2.800000*%
%ADD23R,1.700000X1.700000*%
%ADD24O,1.700000X1.700000*%
%ADD25C,0.600000*%
%ADD26C,0.250000*%
%ADD27C,0.800000*%
%ADD28C,0.254000*%
G04 APERTURE END LIST*
D10*
D11*
X125546300Y-66404500D03*
X121253700Y-66404500D03*
D12*
X123400000Y-66658500D03*
D13*
X121500000Y-140500000D03*
X121500000Y-136500000D03*
X119250000Y-140500000D03*
X119250000Y-136500000D03*
D14*
X141136000Y-103700000D03*
X141136000Y-99636000D03*
X141136000Y-95318000D03*
X141136000Y-77792000D03*
X141136000Y-90746000D03*
X141136000Y-86428000D03*
X141136000Y-82110000D03*
X123610000Y-103700000D03*
X123610000Y-99636000D03*
X123610000Y-95318000D03*
X123610000Y-90746000D03*
X123610000Y-86428000D03*
X123610000Y-82110000D03*
X123610000Y-77792000D03*
D15*
X139358000Y-73728000D03*
X134786000Y-73728000D03*
X130468000Y-73728000D03*
X125896000Y-73728000D03*
D16*
X138342000Y-108018000D03*
X126404000Y-107764000D03*
D17*
X128902000Y-66100000D03*
X131442000Y-66100000D03*
X133982000Y-66100000D03*
X136522000Y-66100000D03*
D18*
X143800000Y-148750000D03*
X145200000Y-148750000D03*
D19*
X127250000Y-123000000D03*
X131250000Y-123000000D03*
D17*
X140750000Y-117500000D03*
X140750000Y-114500000D03*
D20*
X143570000Y-137500000D03*
X143570000Y-140500000D03*
X143570000Y-142000000D03*
D21*
X146430000Y-136100000D03*
X146430000Y-143400000D03*
X144220000Y-143400000D03*
X144220000Y-136100000D03*
D20*
X143570000Y-69500000D03*
X143570000Y-72500000D03*
X143570000Y-74000000D03*
D21*
X146430000Y-68100000D03*
X146430000Y-75400000D03*
X144220000Y-75400000D03*
X144220000Y-68100000D03*
D17*
X119750000Y-97120000D03*
X119750000Y-99660000D03*
X119750000Y-102200000D03*
X119750000Y-104740000D03*
X119750000Y-107280000D03*
X119750000Y-109820000D03*
X119750000Y-112360000D03*
X119750000Y-114900000D03*
X119750000Y-117440000D03*
X119750000Y-119980000D03*
X119750000Y-122520000D03*
X119750000Y-125060000D03*
X119750000Y-127600000D03*
X119750000Y-130140000D03*
X119750000Y-132680000D03*
X145150000Y-97120000D03*
X145150000Y-99660000D03*
X145150000Y-102200000D03*
X145150000Y-104740000D03*
X145150000Y-107280000D03*
X145150000Y-109820000D03*
X145150000Y-112360000D03*
X145150000Y-114900000D03*
X145150000Y-117440000D03*
X145150000Y-119980000D03*
X145150000Y-122520000D03*
X145150000Y-125060000D03*
X145150000Y-127600000D03*
X145150000Y-130140000D03*
X145150000Y-132680000D03*
D22*
X128200000Y-125900000D03*
X135800000Y-125900000D03*
X124800000Y-125900000D03*
X139300000Y-125900000D03*
X125100000Y-148800000D03*
X139300000Y-148800000D03*
D23*
X141500000Y-66300000D03*
D24*
X138960000Y-66300000D03*
D25*
X129300000Y-104150000D03*
X132325000Y-104300000D03*
X139275000Y-112150000D03*
X116500000Y-84825000D03*
X116725000Y-78650000D03*
X122600000Y-154200000D03*
X117800000Y-150800000D03*
X137800000Y-141600000D03*
X135100000Y-144000000D03*
X132200000Y-143600000D03*
X146000000Y-139400000D03*
X117700000Y-140400000D03*
X121000000Y-147200000D03*
X123000000Y-145500000D03*
X122800000Y-143000000D03*
X120300000Y-148000000D03*
X134800000Y-138800000D03*
X125100000Y-143600000D03*
X142600000Y-132800000D03*
X143400000Y-129800000D03*
X141100000Y-121100000D03*
X137700000Y-140800000D03*
X129300000Y-122800000D03*
X120000000Y-142600000D03*
X132500000Y-115700000D03*
X127500000Y-115700000D03*
X117300000Y-142700000D03*
X120400000Y-141900000D03*
X134000000Y-141900000D03*
X117700000Y-104000000D03*
X119100000Y-134500000D03*
X137275000Y-117050000D03*
X132700000Y-127450000D03*
X131850000Y-129500000D03*
X126825000Y-145475000D03*
X127850000Y-144325000D03*
X133500000Y-145775000D03*
X140500000Y-129000000D03*
X142800000Y-135800000D03*
X132200000Y-148900000D03*
X141800000Y-127700000D03*
X143100000Y-118800000D03*
X138000000Y-104600000D03*
X141800000Y-141400000D03*
X141800000Y-145500000D03*
X141800000Y-148300000D03*
X145900000Y-82100000D03*
X146400000Y-134300000D03*
X133200000Y-97300000D03*
X135100000Y-102300000D03*
X132500000Y-102800000D03*
X129600000Y-103000000D03*
X129600000Y-100900000D03*
X132200000Y-101000000D03*
X137075000Y-120575000D03*
X139300000Y-119050000D03*
X138975000Y-116825000D03*
X132150000Y-112225000D03*
X132950000Y-113575000D03*
X138725000Y-115300000D03*
X140970000Y-101854000D03*
X130500000Y-147400000D03*
X123000000Y-140100000D03*
X137400000Y-103900000D03*
X137825000Y-100225000D03*
X140970000Y-93980000D03*
X133096000Y-85090000D03*
X121475000Y-111825000D03*
X121550000Y-109700000D03*
X126492000Y-82042000D03*
X126238000Y-80010000D03*
X122428000Y-71374000D03*
X121412000Y-70104000D03*
X118110000Y-111252000D03*
X118110000Y-117856000D03*
X119634000Y-75946000D03*
X126075000Y-84600000D03*
X123900000Y-84050000D03*
X137425000Y-102775000D03*
X131875000Y-99850000D03*
X121375000Y-93200000D03*
X124725000Y-93575000D03*
X123525000Y-110025000D03*
X124850000Y-114175000D03*
X141050000Y-119550000D03*
X138950000Y-122650000D03*
X128600000Y-98900000D03*
X132400000Y-108200000D03*
X133000000Y-122200000D03*
X130300000Y-126400000D03*
X138400000Y-134400000D03*
X142700000Y-138800000D03*
X122100000Y-131000000D03*
X122500000Y-133900000D03*
D26*
X129593000Y-105168000D02*
X130468000Y-105168000D01*
X129175000Y-104750000D02*
X129593000Y-105168000D01*
X129175000Y-104275000D02*
X129175000Y-104750000D01*
X129300000Y-104150000D02*
X129175000Y-104275000D01*
X132325000Y-107075000D02*
X132325000Y-104300000D01*
X133100000Y-107850000D02*
X132325000Y-107075000D01*
X133100000Y-110025000D02*
X133100000Y-107850000D01*
X134425000Y-111350000D02*
X133100000Y-110025000D01*
X138475000Y-111350000D02*
X134425000Y-111350000D01*
X139275000Y-112150000D02*
X138475000Y-111350000D01*
X116350000Y-84675000D02*
X116500000Y-84825000D01*
X116350000Y-79025000D02*
X116350000Y-84675000D01*
X116725000Y-78650000D02*
X116350000Y-79025000D01*
X122600000Y-154200000D02*
X122400000Y-154400000D01*
X122400000Y-154400000D02*
X120400000Y-154400000D01*
X120400000Y-154400000D02*
X118400000Y-152400000D01*
X118400000Y-152400000D02*
X118400000Y-151400000D01*
X118400000Y-151400000D02*
X117800000Y-150800000D01*
X138900000Y-140500000D02*
X143570000Y-140500000D01*
X137800000Y-141600000D02*
X138900000Y-140500000D01*
X134700000Y-144000000D02*
X135100000Y-144000000D01*
X134300000Y-143600000D02*
X134700000Y-144000000D01*
X132200000Y-143600000D02*
X134300000Y-143600000D01*
X145200000Y-148750000D02*
X145200000Y-144600000D01*
X146200000Y-140800000D02*
X145400000Y-140000000D01*
X146200000Y-142000000D02*
X146200000Y-140800000D01*
X145400000Y-142800000D02*
X146200000Y-142000000D01*
X145400000Y-144400000D02*
X145400000Y-142800000D01*
X145200000Y-144600000D02*
X145400000Y-144400000D01*
X143570000Y-140500000D02*
X144900000Y-140500000D01*
X144900000Y-140500000D02*
X145400000Y-140000000D01*
X145400000Y-140000000D02*
X146000000Y-139400000D01*
X130468000Y-73728000D02*
X130468000Y-105168000D01*
X130468000Y-105168000D02*
X131100000Y-105800000D01*
X131100000Y-105800000D02*
X131100000Y-109600000D01*
X131100000Y-109600000D02*
X130300000Y-110400000D01*
X130300000Y-110400000D02*
X130300000Y-119950000D01*
X130300000Y-119950000D02*
X127250000Y-123000000D01*
X124800000Y-125900000D02*
X124800000Y-126700000D01*
X124800000Y-126700000D02*
X121360000Y-130140000D01*
X121360000Y-130140000D02*
X119750000Y-130140000D01*
X127250000Y-123000000D02*
X127250000Y-123450000D01*
X127250000Y-123450000D02*
X124800000Y-125900000D01*
X118100000Y-137650000D02*
X118100000Y-130800000D01*
X118760000Y-130140000D02*
X119750000Y-130140000D01*
X118100000Y-130800000D02*
X118760000Y-130140000D01*
X118100000Y-137650000D02*
X119250000Y-136500000D01*
X118100000Y-140000000D02*
X118100000Y-137650000D01*
X117700000Y-140400000D02*
X118100000Y-140000000D01*
X121300000Y-147200000D02*
X121000000Y-147200000D01*
X123000000Y-145500000D02*
X121300000Y-147200000D01*
X121253700Y-66404500D02*
X121253700Y-65146300D01*
X121253700Y-65146300D02*
X122100000Y-64300000D01*
X122100000Y-64300000D02*
X125400000Y-64300000D01*
X125400000Y-64300000D02*
X125546300Y-64446300D01*
X125546300Y-64446300D02*
X125546300Y-66404500D01*
X130468000Y-68700000D02*
X132800000Y-68700000D01*
X134786000Y-70686000D02*
X134786000Y-73728000D01*
X132800000Y-68700000D02*
X134786000Y-70686000D01*
X128902000Y-66100000D02*
X128902000Y-67102000D01*
X130468000Y-68668000D02*
X130468000Y-68700000D01*
X130468000Y-68700000D02*
X130468000Y-73728000D01*
X128902000Y-67102000D02*
X130468000Y-68668000D01*
X122800000Y-143000000D02*
X121100000Y-144700000D01*
X121100000Y-144700000D02*
X121100000Y-145500000D01*
X121100000Y-145500000D02*
X120100000Y-146500000D01*
X120100000Y-146500000D02*
X120100000Y-147800000D01*
X120100000Y-147800000D02*
X120300000Y-148000000D01*
X134700000Y-138900000D02*
X134800000Y-138800000D01*
X134700000Y-139700000D02*
X134700000Y-138900000D01*
X132400000Y-142000000D02*
X134700000Y-139700000D01*
X130800000Y-143600000D02*
X132400000Y-142000000D01*
X125100000Y-143600000D02*
X130800000Y-143600000D01*
X142600000Y-132800000D02*
X143400000Y-132000000D01*
X143400000Y-132000000D02*
X143400000Y-129800000D01*
X141100000Y-121100000D02*
X142000000Y-120200000D01*
X142000000Y-120200000D02*
X142000000Y-118100000D01*
X142000000Y-118100000D02*
X142200000Y-117900000D01*
X142200000Y-117900000D02*
X142200000Y-115950000D01*
X142200000Y-115950000D02*
X140750000Y-114500000D01*
X143570000Y-72500000D02*
X143570000Y-72170000D01*
X143570000Y-72170000D02*
X141500000Y-70100000D01*
X141500000Y-70100000D02*
X141500000Y-66300000D01*
X131250000Y-126950000D02*
X131250000Y-123000000D01*
X136700000Y-132400000D02*
X131250000Y-126950000D01*
X136700000Y-139800000D02*
X136700000Y-132400000D01*
X137700000Y-140800000D02*
X136700000Y-139800000D01*
X139358000Y-73728000D02*
X139358000Y-74442000D01*
X139358000Y-74442000D02*
X132800000Y-81000000D01*
X130900000Y-110900000D02*
X130900000Y-122650000D01*
X131600000Y-110200000D02*
X130900000Y-110900000D01*
X131600000Y-105400000D02*
X131600000Y-110200000D01*
X131200000Y-105000000D02*
X131600000Y-105400000D01*
X131200000Y-82600000D02*
X131200000Y-105000000D01*
X132800000Y-81000000D02*
X131200000Y-82600000D01*
X130900000Y-122650000D02*
X131250000Y-123000000D01*
X131250000Y-123000000D02*
X129500000Y-123000000D01*
X129500000Y-123000000D02*
X129300000Y-122800000D01*
X119500000Y-142100000D02*
X119500000Y-140750000D01*
X120000000Y-142600000D02*
X119500000Y-142100000D01*
X119500000Y-140750000D02*
X119250000Y-140500000D01*
X143570000Y-72500000D02*
X140586000Y-72500000D01*
X140586000Y-72500000D02*
X139358000Y-73728000D01*
X138150000Y-118250000D02*
X139100000Y-118250000D01*
X133450000Y-116200000D02*
X134775000Y-117525000D01*
X134775000Y-117525000D02*
X135975000Y-117525000D01*
X135975000Y-117525000D02*
X136550000Y-116950000D01*
X136550000Y-116950000D02*
X136550000Y-116225000D01*
X136550000Y-116225000D02*
X136700000Y-116075000D01*
X136700000Y-116075000D02*
X137925000Y-116075000D01*
X137925000Y-116075000D02*
X138150000Y-116300000D01*
X138150000Y-116300000D02*
X138150000Y-118250000D01*
X132500000Y-115700000D02*
X133000000Y-116200000D01*
X127500000Y-116300000D02*
X127500000Y-115700000D01*
X124400000Y-119400000D02*
X127500000Y-116300000D01*
X121700000Y-119400000D02*
X124400000Y-119400000D01*
X121000000Y-118700000D02*
X121700000Y-119400000D01*
X117600000Y-118700000D02*
X121000000Y-118700000D01*
X116800000Y-119500000D02*
X117600000Y-118700000D01*
X116800000Y-142200000D02*
X116800000Y-119500000D01*
X117300000Y-142700000D02*
X116800000Y-142200000D01*
X133000000Y-116200000D02*
X133450000Y-116200000D01*
X139850000Y-117500000D02*
X140750000Y-117500000D01*
X139100000Y-118250000D02*
X139850000Y-117500000D01*
D27*
X123610000Y-77792000D02*
X123610000Y-66868500D01*
X123610000Y-66868500D02*
X123400000Y-66658500D01*
D26*
X121500000Y-140500000D02*
X121500000Y-140800000D01*
X121500000Y-140800000D02*
X120400000Y-141900000D01*
X141450000Y-146400000D02*
X143800000Y-148750000D01*
X139500000Y-146400000D02*
X141450000Y-146400000D01*
X138000000Y-144900000D02*
X139500000Y-146400000D01*
X137900000Y-144900000D02*
X138000000Y-144900000D01*
X136600000Y-143600000D02*
X137900000Y-144900000D01*
X135700000Y-143600000D02*
X136600000Y-143600000D01*
X134000000Y-141900000D02*
X135700000Y-143600000D01*
X121500000Y-136500000D02*
X121500000Y-134500000D01*
X118200000Y-103500000D02*
X123410000Y-103500000D01*
X117700000Y-104000000D02*
X118200000Y-103500000D01*
X121500000Y-134500000D02*
X119100000Y-134500000D01*
X123410000Y-103500000D02*
X123610000Y-103700000D01*
X135100000Y-119225000D02*
X137275000Y-117050000D01*
X135100000Y-121275000D02*
X135100000Y-119225000D01*
X133550000Y-122825000D02*
X135100000Y-121275000D01*
X133550000Y-126600000D02*
X133550000Y-122825000D01*
X132700000Y-127450000D02*
X133550000Y-126600000D01*
X127450000Y-129500000D02*
X131850000Y-129500000D01*
X124400000Y-132550000D02*
X127450000Y-129500000D01*
X124400000Y-144700000D02*
X124400000Y-132550000D01*
X124800000Y-145100000D02*
X124400000Y-144700000D01*
X126450000Y-145100000D02*
X124800000Y-145100000D01*
X126825000Y-145475000D02*
X126450000Y-145100000D01*
X129225000Y-144325000D02*
X127850000Y-144325000D01*
X130600000Y-145700000D02*
X129225000Y-144325000D01*
X133425000Y-145700000D02*
X130600000Y-145700000D01*
X133500000Y-145775000D02*
X133425000Y-145700000D01*
X140300000Y-129200000D02*
X140500000Y-129000000D01*
X140300000Y-133000000D02*
X140300000Y-129200000D01*
X142100000Y-134800000D02*
X140300000Y-133000000D01*
X142100000Y-135100000D02*
X142100000Y-134800000D01*
X142800000Y-135800000D02*
X142100000Y-135100000D01*
X135800000Y-149100000D02*
X135800000Y-151040000D01*
X132200000Y-148900000D02*
X132400000Y-149100000D01*
X132400000Y-149100000D02*
X135800000Y-149100000D01*
X141986000Y-151014000D02*
X142000000Y-151014000D01*
X141986000Y-152146000D02*
X141986000Y-151014000D01*
X140716000Y-153416000D02*
X141986000Y-152146000D01*
X139192000Y-153416000D02*
X140716000Y-153416000D01*
X138938000Y-153162000D02*
X139192000Y-153416000D01*
X137922000Y-153162000D02*
X138938000Y-153162000D01*
X135800000Y-151040000D02*
X137922000Y-153162000D01*
X138900000Y-103700000D02*
X141136000Y-103700000D01*
X141800000Y-127700000D02*
X142000000Y-127500000D01*
X142000000Y-127500000D02*
X142000000Y-121500000D01*
X142000000Y-121500000D02*
X143100000Y-120400000D01*
X143100000Y-120400000D02*
X143100000Y-118800000D01*
X138000000Y-104600000D02*
X138900000Y-103700000D01*
X141800000Y-145500000D02*
X141800000Y-141400000D01*
X142000000Y-148500000D02*
X141800000Y-148300000D01*
X142000000Y-151000000D02*
X142000000Y-151014000D01*
X142000000Y-151014000D02*
X142000000Y-148500000D01*
X141136000Y-77792000D02*
X142692000Y-77792000D01*
X142692000Y-77792000D02*
X145900000Y-81000000D01*
X145900000Y-81000000D02*
X145900000Y-82100000D01*
X146400000Y-134300000D02*
X145500000Y-135200000D01*
X145500000Y-135200000D02*
X145500000Y-136700000D01*
X145500000Y-136700000D02*
X144900000Y-137300000D01*
X144900000Y-137300000D02*
X143770000Y-137300000D01*
X143770000Y-137300000D02*
X143570000Y-137500000D01*
X145150000Y-97120000D02*
X145150000Y-95350000D01*
X144210000Y-82110000D02*
X141136000Y-82110000D01*
X145500000Y-83400000D02*
X144210000Y-82110000D01*
X145500000Y-95000000D02*
X145500000Y-83400000D01*
X145150000Y-95350000D02*
X145500000Y-95000000D01*
X133380000Y-97120000D02*
X145150000Y-97120000D01*
X133200000Y-97300000D02*
X133380000Y-97120000D01*
X123610000Y-99636000D02*
X126736000Y-99636000D01*
X133000000Y-102300000D02*
X135100000Y-102300000D01*
X132500000Y-102800000D02*
X133000000Y-102300000D01*
X129600000Y-102500000D02*
X129600000Y-103000000D01*
X126736000Y-99636000D02*
X129600000Y-102500000D01*
X123610000Y-95318000D02*
X123618000Y-95318000D01*
X123618000Y-95318000D02*
X129200000Y-100900000D01*
X129200000Y-100900000D02*
X129600000Y-100900000D01*
X132200000Y-101000000D02*
X135300000Y-101000000D01*
X135300000Y-101000000D02*
X136500000Y-102200000D01*
X136500000Y-102200000D02*
X136500000Y-104700000D01*
X136500000Y-104700000D02*
X137500000Y-105700000D01*
X137500000Y-105700000D02*
X142800000Y-105700000D01*
X142800000Y-105700000D02*
X143000000Y-105900000D01*
X143000000Y-105900000D02*
X143000000Y-116700000D01*
X143000000Y-116700000D02*
X143740000Y-117440000D01*
X143740000Y-117440000D02*
X145150000Y-117440000D01*
X137075000Y-120575000D02*
X137550000Y-120100000D01*
X137550000Y-120100000D02*
X138250000Y-120100000D01*
X138250000Y-120100000D02*
X139300000Y-119050000D01*
X138975000Y-116825000D02*
X138725000Y-116575000D01*
X138725000Y-116000000D02*
X138725000Y-116575000D01*
X138725000Y-116000000D02*
X138700000Y-116000000D01*
X132850000Y-113675000D02*
X132950000Y-113575000D01*
X132850000Y-114500000D02*
X132850000Y-113675000D01*
X133250000Y-114900000D02*
X132850000Y-114500000D01*
X137600000Y-114900000D02*
X133250000Y-114900000D01*
X138700000Y-116000000D02*
X137600000Y-114900000D01*
X132150000Y-112225000D02*
X132950000Y-113025000D01*
X132950000Y-113025000D02*
X132950000Y-113575000D01*
X138725000Y-116000000D02*
X138725000Y-115300000D01*
X143210000Y-101600000D02*
X145150000Y-99660000D01*
X141224000Y-101600000D02*
X143210000Y-101600000D01*
X140970000Y-101854000D02*
X141224000Y-101600000D01*
X143570000Y-69500000D02*
X143570000Y-70370000D01*
X135800000Y-127500000D02*
X135800000Y-125900000D01*
X136100000Y-127800000D02*
X135800000Y-127500000D01*
X140700000Y-127800000D02*
X136100000Y-127800000D01*
X141800000Y-128900000D02*
X140700000Y-127800000D01*
X146300000Y-128900000D02*
X141800000Y-128900000D01*
X147000000Y-128200000D02*
X146300000Y-128900000D01*
X147000000Y-78600000D02*
X147000000Y-128200000D01*
X147200000Y-78400000D02*
X147000000Y-78600000D01*
X147200000Y-72800000D02*
X147200000Y-78400000D01*
X146200000Y-71800000D02*
X147200000Y-72800000D01*
X145000000Y-71800000D02*
X146200000Y-71800000D01*
X143570000Y-70370000D02*
X145000000Y-71800000D01*
X130500000Y-147400000D02*
X130400000Y-147300000D01*
X130400000Y-147300000D02*
X128200000Y-147300000D01*
X128200000Y-147300000D02*
X127500000Y-148000000D01*
X127500000Y-148000000D02*
X127500000Y-150800000D01*
X127500000Y-150800000D02*
X126500000Y-151800000D01*
X126500000Y-151800000D02*
X119200000Y-151800000D01*
X119200000Y-151800000D02*
X119400000Y-151600000D01*
X119400000Y-151600000D02*
X119400000Y-144100000D01*
X119400000Y-144100000D02*
X120900000Y-142600000D01*
X120900000Y-142600000D02*
X120900000Y-142400000D01*
X120900000Y-142400000D02*
X121300000Y-142000000D01*
X121300000Y-142000000D02*
X122500000Y-142000000D01*
X122500000Y-142000000D02*
X123000000Y-141500000D01*
X123000000Y-141500000D02*
X123000000Y-140100000D01*
X137575000Y-103725000D02*
X137400000Y-103900000D01*
X137575000Y-103650000D02*
X137575000Y-103725000D01*
X138175000Y-103050000D02*
X137575000Y-103650000D01*
X138175000Y-100575000D02*
X138175000Y-103050000D01*
X137825000Y-100225000D02*
X138175000Y-100575000D01*
X141136000Y-94146000D02*
X141136000Y-95318000D01*
X140970000Y-93980000D02*
X141136000Y-94146000D01*
X133858000Y-85852000D02*
X140560000Y-85852000D01*
X133096000Y-85090000D02*
X133858000Y-85852000D01*
X140560000Y-85852000D02*
X141136000Y-86428000D01*
X121475000Y-109775000D02*
X121475000Y-111825000D01*
X121550000Y-109700000D02*
X121475000Y-109775000D01*
X126492000Y-82042000D02*
X126238000Y-81788000D01*
X126238000Y-81788000D02*
X126238000Y-80010000D01*
X122428000Y-71374000D02*
X121412000Y-70358000D01*
X121412000Y-70358000D02*
X121412000Y-70104000D01*
X118110000Y-111252000D02*
X116586000Y-111252000D01*
X116586000Y-116332000D02*
X118110000Y-117856000D01*
X116586000Y-96266000D02*
X116586000Y-111252000D01*
X116586000Y-111252000D02*
X116586000Y-116332000D01*
X118110000Y-94742000D02*
X116586000Y-96266000D01*
X118872000Y-94742000D02*
X118110000Y-94742000D01*
X121158000Y-92456000D02*
X118872000Y-94742000D01*
X121158000Y-77470000D02*
X121158000Y-92456000D01*
X119634000Y-75946000D02*
X121158000Y-77470000D01*
X124450000Y-84600000D02*
X126075000Y-84600000D01*
X123900000Y-84050000D02*
X124450000Y-84600000D01*
X137425000Y-102775000D02*
X137375000Y-102725000D01*
X137375000Y-102725000D02*
X137375000Y-102150000D01*
X137375000Y-102150000D02*
X135525000Y-100300000D01*
X135525000Y-100300000D02*
X132325000Y-100300000D01*
X132325000Y-100300000D02*
X131875000Y-99850000D01*
X124350000Y-93200000D02*
X121375000Y-93200000D01*
X124725000Y-93575000D02*
X124350000Y-93200000D01*
X124900000Y-111400000D02*
X123525000Y-110025000D01*
X124900000Y-114125000D02*
X124900000Y-111400000D01*
X124850000Y-114175000D02*
X124900000Y-114125000D01*
X140275000Y-120325000D02*
X141050000Y-119550000D01*
X140275000Y-121325000D02*
X140275000Y-120325000D01*
X138950000Y-122650000D02*
X140275000Y-121325000D01*
X128200000Y-125900000D02*
X129800000Y-125900000D01*
X137800000Y-64600000D02*
X138960000Y-65760000D01*
X133800000Y-64600000D02*
X137800000Y-64600000D01*
X127800000Y-64600000D02*
X133800000Y-64600000D01*
X127200000Y-65200000D02*
X127800000Y-64600000D01*
X127200000Y-67700000D02*
X127200000Y-65200000D01*
X128600000Y-69100000D02*
X127200000Y-67700000D01*
X128600000Y-76100000D02*
X128600000Y-69100000D01*
X129700000Y-77200000D02*
X128600000Y-76100000D01*
X129700000Y-84800000D02*
X129700000Y-77200000D01*
X129800000Y-84900000D02*
X129700000Y-84800000D01*
X129800000Y-97700000D02*
X129800000Y-84900000D01*
X128600000Y-98900000D02*
X129800000Y-97700000D01*
X132100000Y-108500000D02*
X132400000Y-108200000D01*
X132100000Y-111000000D02*
X132100000Y-108500000D01*
X131400000Y-111700000D02*
X132100000Y-111000000D01*
X131400000Y-112600000D02*
X131400000Y-111700000D01*
X131600000Y-112800000D02*
X131400000Y-112600000D01*
X131600000Y-116600000D02*
X131600000Y-112800000D01*
X133800000Y-118800000D02*
X131600000Y-116600000D01*
X133800000Y-121400000D02*
X133800000Y-118800000D01*
X133000000Y-122200000D02*
X133800000Y-121400000D01*
X129800000Y-125900000D02*
X130300000Y-126400000D01*
X138960000Y-65760000D02*
X138960000Y-66300000D01*
X140500000Y-138200000D02*
X140500000Y-138100000D01*
X138400000Y-136000000D02*
X138400000Y-134400000D01*
X140200000Y-137800000D02*
X138400000Y-136000000D01*
X142100000Y-138200000D02*
X140500000Y-138200000D01*
X142700000Y-138800000D02*
X142100000Y-138200000D01*
X140500000Y-138100000D02*
X140200000Y-137800000D01*
X122100000Y-133500000D02*
X122100000Y-131000000D01*
X122500000Y-133900000D02*
X122100000Y-133500000D01*
D28*
G36*
X133206883Y-142428943D02*
X133469673Y-142692192D01*
X133813201Y-142834838D01*
X133860077Y-142834879D01*
X135162599Y-144137401D01*
X135409161Y-144302148D01*
X135700000Y-144360000D01*
X136285198Y-144360000D01*
X137362599Y-145437401D01*
X137609161Y-145602148D01*
X137631861Y-145606663D01*
X138777758Y-146752560D01*
X137900000Y-146752560D01*
X137664683Y-146796838D01*
X137448559Y-146935910D01*
X137303569Y-147148110D01*
X137252560Y-147400000D01*
X137252560Y-150200000D01*
X137296838Y-150435317D01*
X137435910Y-150651441D01*
X137648110Y-150796431D01*
X137900000Y-150847440D01*
X140700000Y-150847440D01*
X140935317Y-150803162D01*
X141151441Y-150664090D01*
X141240000Y-150534480D01*
X141240000Y-150943618D01*
X141226000Y-151014000D01*
X141226000Y-151831198D01*
X140401198Y-152656000D01*
X139506802Y-152656000D01*
X139475401Y-152624599D01*
X139228839Y-152459852D01*
X138938000Y-152402000D01*
X138236802Y-152402000D01*
X136560000Y-150725198D01*
X136560000Y-149100000D01*
X136502148Y-148809161D01*
X136337401Y-148562599D01*
X136090839Y-148397852D01*
X135800000Y-148340000D01*
X132962114Y-148340000D01*
X132730327Y-148107808D01*
X132386799Y-147965162D01*
X132014833Y-147964838D01*
X131671057Y-148106883D01*
X131407808Y-148369673D01*
X131265162Y-148713201D01*
X131264838Y-149085167D01*
X131406883Y-149428943D01*
X131669673Y-149692192D01*
X131905220Y-149790000D01*
X129500000Y-149790000D01*
X129228295Y-149844046D01*
X128997954Y-149997954D01*
X128844046Y-150228295D01*
X128790000Y-150500000D01*
X128790000Y-150705908D01*
X125205908Y-154290000D01*
X119128452Y-154290000D01*
X119188883Y-154199558D01*
X119328034Y-153500000D01*
X119188883Y-152800442D01*
X119001895Y-152520594D01*
X119200000Y-152560000D01*
X126500000Y-152560000D01*
X126790839Y-152502148D01*
X127037401Y-152337401D01*
X128037401Y-151337401D01*
X128202148Y-151090839D01*
X128260000Y-150800000D01*
X128260000Y-148314802D01*
X128514803Y-148060000D01*
X129837711Y-148060000D01*
X129969673Y-148192192D01*
X130313201Y-148334838D01*
X130685167Y-148335162D01*
X131028943Y-148193117D01*
X131292192Y-147930327D01*
X131434838Y-147586799D01*
X131435162Y-147214833D01*
X131293117Y-146871057D01*
X131030327Y-146607808D01*
X130686799Y-146465162D01*
X130314833Y-146464838D01*
X130132927Y-146540000D01*
X128200000Y-146540000D01*
X127909161Y-146597852D01*
X127894261Y-146607808D01*
X127662598Y-146762599D01*
X127128081Y-147297117D01*
X127103162Y-147164683D01*
X126964090Y-146948559D01*
X126751890Y-146803569D01*
X126500000Y-146752560D01*
X123700000Y-146752560D01*
X123464683Y-146796838D01*
X123248559Y-146935910D01*
X123103569Y-147148110D01*
X123052560Y-147400000D01*
X123052560Y-150200000D01*
X123096838Y-150435317D01*
X123235910Y-150651441D01*
X123448110Y-150796431D01*
X123700000Y-150847440D01*
X126377758Y-150847440D01*
X126185198Y-151040000D01*
X120160000Y-151040000D01*
X120160000Y-148934879D01*
X120485167Y-148935162D01*
X120828943Y-148793117D01*
X121092192Y-148530327D01*
X121234838Y-148186799D01*
X121235162Y-147814833D01*
X121093117Y-147471057D01*
X120860000Y-147237533D01*
X120860000Y-146814802D01*
X121637401Y-146037401D01*
X121802148Y-145790839D01*
X121860000Y-145500000D01*
X121860000Y-145014802D01*
X122939680Y-143935122D01*
X122985167Y-143935162D01*
X123328943Y-143793117D01*
X123592192Y-143530327D01*
X123640000Y-143415193D01*
X123640000Y-144700000D01*
X123697852Y-144990839D01*
X123862599Y-145237401D01*
X124262599Y-145637401D01*
X124509160Y-145802148D01*
X124557414Y-145811746D01*
X124800000Y-145860000D01*
X125972407Y-145860000D01*
X126031883Y-146003943D01*
X126294673Y-146267192D01*
X126638201Y-146409838D01*
X127010167Y-146410162D01*
X127353943Y-146268117D01*
X127617192Y-146005327D01*
X127759838Y-145661799D01*
X127760162Y-145289833D01*
X127747799Y-145259912D01*
X128035167Y-145260162D01*
X128378943Y-145118117D01*
X128412118Y-145085000D01*
X128910198Y-145085000D01*
X130062599Y-146237401D01*
X130309161Y-146402148D01*
X130600000Y-146460000D01*
X132862668Y-146460000D01*
X132969673Y-146567192D01*
X133313201Y-146709838D01*
X133685167Y-146710162D01*
X134028943Y-146568117D01*
X134292192Y-146305327D01*
X134434838Y-145961799D01*
X134435162Y-145589833D01*
X134293117Y-145246057D01*
X134030327Y-144982808D01*
X133686799Y-144840162D01*
X133314833Y-144839838D01*
X133072422Y-144940000D01*
X130914802Y-144940000D01*
X130334802Y-144360000D01*
X130800000Y-144360000D01*
X131090839Y-144302148D01*
X131337401Y-144137401D01*
X133159803Y-142314999D01*
X133206883Y-142428943D01*
X133206883Y-142428943D01*
G37*
X133206883Y-142428943D02*
X133469673Y-142692192D01*
X133813201Y-142834838D01*
X133860077Y-142834879D01*
X135162599Y-144137401D01*
X135409161Y-144302148D01*
X135700000Y-144360000D01*
X136285198Y-144360000D01*
X137362599Y-145437401D01*
X137609161Y-145602148D01*
X137631861Y-145606663D01*
X138777758Y-146752560D01*
X137900000Y-146752560D01*
X137664683Y-146796838D01*
X137448559Y-146935910D01*
X137303569Y-147148110D01*
X137252560Y-147400000D01*
X137252560Y-150200000D01*
X137296838Y-150435317D01*
X137435910Y-150651441D01*
X137648110Y-150796431D01*
X137900000Y-150847440D01*
X140700000Y-150847440D01*
X140935317Y-150803162D01*
X141151441Y-150664090D01*
X141240000Y-150534480D01*
X141240000Y-150943618D01*
X141226000Y-151014000D01*
X141226000Y-151831198D01*
X140401198Y-152656000D01*
X139506802Y-152656000D01*
X139475401Y-152624599D01*
X139228839Y-152459852D01*
X138938000Y-152402000D01*
X138236802Y-152402000D01*
X136560000Y-150725198D01*
X136560000Y-149100000D01*
X136502148Y-148809161D01*
X136337401Y-148562599D01*
X136090839Y-148397852D01*
X135800000Y-148340000D01*
X132962114Y-148340000D01*
X132730327Y-148107808D01*
X132386799Y-147965162D01*
X132014833Y-147964838D01*
X131671057Y-148106883D01*
X131407808Y-148369673D01*
X131265162Y-148713201D01*
X131264838Y-149085167D01*
X131406883Y-149428943D01*
X131669673Y-149692192D01*
X131905220Y-149790000D01*
X129500000Y-149790000D01*
X129228295Y-149844046D01*
X128997954Y-149997954D01*
X128844046Y-150228295D01*
X128790000Y-150500000D01*
X128790000Y-150705908D01*
X125205908Y-154290000D01*
X119128452Y-154290000D01*
X119188883Y-154199558D01*
X119328034Y-153500000D01*
X119188883Y-152800442D01*
X119001895Y-152520594D01*
X119200000Y-152560000D01*
X126500000Y-152560000D01*
X126790839Y-152502148D01*
X127037401Y-152337401D01*
X128037401Y-151337401D01*
X128202148Y-151090839D01*
X128260000Y-150800000D01*
X128260000Y-148314802D01*
X128514803Y-148060000D01*
X129837711Y-148060000D01*
X129969673Y-148192192D01*
X130313201Y-148334838D01*
X130685167Y-148335162D01*
X131028943Y-148193117D01*
X131292192Y-147930327D01*
X131434838Y-147586799D01*
X131435162Y-147214833D01*
X131293117Y-146871057D01*
X131030327Y-146607808D01*
X130686799Y-146465162D01*
X130314833Y-146464838D01*
X130132927Y-146540000D01*
X128200000Y-146540000D01*
X127909161Y-146597852D01*
X127894261Y-146607808D01*
X127662598Y-146762599D01*
X127128081Y-147297117D01*
X127103162Y-147164683D01*
X126964090Y-146948559D01*
X126751890Y-146803569D01*
X126500000Y-146752560D01*
X123700000Y-146752560D01*
X123464683Y-146796838D01*
X123248559Y-146935910D01*
X123103569Y-147148110D01*
X123052560Y-147400000D01*
X123052560Y-150200000D01*
X123096838Y-150435317D01*
X123235910Y-150651441D01*
X123448110Y-150796431D01*
X123700000Y-150847440D01*
X126377758Y-150847440D01*
X126185198Y-151040000D01*
X120160000Y-151040000D01*
X120160000Y-148934879D01*
X120485167Y-148935162D01*
X120828943Y-148793117D01*
X121092192Y-148530327D01*
X121234838Y-148186799D01*
X121235162Y-147814833D01*
X121093117Y-147471057D01*
X120860000Y-147237533D01*
X120860000Y-146814802D01*
X121637401Y-146037401D01*
X121802148Y-145790839D01*
X121860000Y-145500000D01*
X121860000Y-145014802D01*
X122939680Y-143935122D01*
X122985167Y-143935162D01*
X123328943Y-143793117D01*
X123592192Y-143530327D01*
X123640000Y-143415193D01*
X123640000Y-144700000D01*
X123697852Y-144990839D01*
X123862599Y-145237401D01*
X124262599Y-145637401D01*
X124509160Y-145802148D01*
X124557414Y-145811746D01*
X124800000Y-145860000D01*
X125972407Y-145860000D01*
X126031883Y-146003943D01*
X126294673Y-146267192D01*
X126638201Y-146409838D01*
X127010167Y-146410162D01*
X127353943Y-146268117D01*
X127617192Y-146005327D01*
X127759838Y-145661799D01*
X127760162Y-145289833D01*
X127747799Y-145259912D01*
X128035167Y-145260162D01*
X128378943Y-145118117D01*
X128412118Y-145085000D01*
X128910198Y-145085000D01*
X130062599Y-146237401D01*
X130309161Y-146402148D01*
X130600000Y-146460000D01*
X132862668Y-146460000D01*
X132969673Y-146567192D01*
X133313201Y-146709838D01*
X133685167Y-146710162D01*
X134028943Y-146568117D01*
X134292192Y-146305327D01*
X134434838Y-145961799D01*
X134435162Y-145589833D01*
X134293117Y-145246057D01*
X134030327Y-144982808D01*
X133686799Y-144840162D01*
X133314833Y-144839838D01*
X133072422Y-144940000D01*
X130914802Y-144940000D01*
X130334802Y-144360000D01*
X130800000Y-144360000D01*
X131090839Y-144302148D01*
X131337401Y-144137401D01*
X133159803Y-142314999D01*
X133206883Y-142428943D01*
G36*
X133796838Y-127535317D02*
X133935910Y-127751441D01*
X134148110Y-127896431D01*
X134400000Y-127947440D01*
X135202489Y-127947440D01*
X135262599Y-128037401D01*
X135562599Y-128337401D01*
X135809161Y-128502148D01*
X136100000Y-128560000D01*
X139670301Y-128560000D01*
X139565162Y-128813201D01*
X139564934Y-129074648D01*
X139540000Y-129200000D01*
X139540000Y-133000000D01*
X139597852Y-133290839D01*
X139762599Y-133537401D01*
X141343675Y-135118477D01*
X141397852Y-135390839D01*
X141562599Y-135637401D01*
X141864878Y-135939680D01*
X141864838Y-135985167D01*
X142006883Y-136328943D01*
X142269673Y-136592192D01*
X142418295Y-136653906D01*
X142368559Y-136685910D01*
X142223569Y-136898110D01*
X142172560Y-137150000D01*
X142172560Y-137454433D01*
X142100000Y-137440000D01*
X140914802Y-137440000D01*
X139160000Y-135685198D01*
X139160000Y-134962463D01*
X139192192Y-134930327D01*
X139334838Y-134586799D01*
X139335162Y-134214833D01*
X139193117Y-133871057D01*
X138930327Y-133607808D01*
X138586799Y-133465162D01*
X138214833Y-133464838D01*
X137871057Y-133606883D01*
X137607808Y-133869673D01*
X137465162Y-134213201D01*
X137464838Y-134585167D01*
X137606883Y-134928943D01*
X137640000Y-134962118D01*
X137640000Y-136000000D01*
X137697852Y-136290839D01*
X137862599Y-136537401D01*
X139793337Y-138468139D01*
X139797852Y-138490839D01*
X139962599Y-138737401D01*
X140209161Y-138902148D01*
X140500000Y-138960000D01*
X141764860Y-138960000D01*
X141764838Y-138985167D01*
X141906883Y-139328943D01*
X142169673Y-139592192D01*
X142388795Y-139683180D01*
X142281673Y-139790302D01*
X142185000Y-140023691D01*
X142185000Y-140214250D01*
X142343750Y-140373000D01*
X143443000Y-140373000D01*
X143443000Y-139673750D01*
X143295713Y-139526463D01*
X143492192Y-139330327D01*
X143634838Y-138986799D01*
X143635162Y-138614833D01*
X143586656Y-138497440D01*
X144258268Y-138497440D01*
X144409646Y-138863800D01*
X144714595Y-139169282D01*
X145113233Y-139334811D01*
X145544873Y-139335188D01*
X145943800Y-139170354D01*
X146249282Y-138865405D01*
X146414811Y-138466767D01*
X146415188Y-138035127D01*
X146250354Y-137636200D01*
X145945405Y-137330718D01*
X145944472Y-137330330D01*
X146027806Y-137246996D01*
X146030000Y-137247440D01*
X146790000Y-137247440D01*
X146790000Y-142252560D01*
X146030000Y-142252560D01*
X145794683Y-142296838D01*
X145578559Y-142435910D01*
X145433569Y-142648110D01*
X145382560Y-142900000D01*
X145382560Y-143900000D01*
X145426838Y-144135317D01*
X145565910Y-144351441D01*
X145778110Y-144496431D01*
X146030000Y-144547440D01*
X146790000Y-144547440D01*
X146790000Y-151871548D01*
X146699558Y-151811117D01*
X146000000Y-151671966D01*
X145300442Y-151811117D01*
X144707385Y-152207385D01*
X144311117Y-152800442D01*
X144171966Y-153500000D01*
X144311117Y-154199558D01*
X144371548Y-154290000D01*
X139294092Y-154290000D01*
X139177135Y-154173043D01*
X139192000Y-154176000D01*
X140716000Y-154176000D01*
X141006839Y-154118148D01*
X141253401Y-153953401D01*
X142523401Y-152683401D01*
X142688148Y-152436840D01*
X142746000Y-152146000D01*
X142746000Y-151084382D01*
X142760000Y-151014000D01*
X142760000Y-148784802D01*
X142784947Y-148809749D01*
X142784824Y-148951010D01*
X142939023Y-149324200D01*
X143224298Y-149609973D01*
X143597218Y-149764823D01*
X144001010Y-149765176D01*
X144374200Y-149610977D01*
X144487672Y-149497702D01*
X144559789Y-149569819D01*
X144676824Y-149452784D01*
X144699052Y-149655560D01*
X145083728Y-149778333D01*
X145486104Y-149744551D01*
X145700948Y-149655560D01*
X145723176Y-149452781D01*
X145200000Y-148929605D01*
X145185858Y-148943748D01*
X145006253Y-148764143D01*
X145020395Y-148750000D01*
X145379605Y-148750000D01*
X145902781Y-149273176D01*
X146105560Y-149250948D01*
X146228333Y-148866272D01*
X146194551Y-148463896D01*
X146105560Y-148249052D01*
X145902781Y-148226824D01*
X145379605Y-148750000D01*
X145020395Y-148750000D01*
X145006253Y-148735858D01*
X145185858Y-148556253D01*
X145200000Y-148570395D01*
X145723176Y-148047219D01*
X145700948Y-147844440D01*
X145316272Y-147721667D01*
X144913896Y-147755449D01*
X144699052Y-147844440D01*
X144676824Y-148047216D01*
X144559789Y-147930181D01*
X144487725Y-148002245D01*
X144375702Y-147890027D01*
X144002782Y-147735177D01*
X143859854Y-147735052D01*
X142373470Y-146248668D01*
X142592192Y-146030327D01*
X142734838Y-145686799D01*
X142735162Y-145314833D01*
X142593117Y-144971057D01*
X142560000Y-144937882D01*
X142560000Y-142940890D01*
X142568110Y-142946431D01*
X142820000Y-142997440D01*
X143172560Y-142997440D01*
X143172560Y-143900000D01*
X143216838Y-144135317D01*
X143355910Y-144351441D01*
X143568110Y-144496431D01*
X143820000Y-144547440D01*
X144620000Y-144547440D01*
X144855317Y-144503162D01*
X145071441Y-144364090D01*
X145216431Y-144151890D01*
X145267440Y-143900000D01*
X145267440Y-142900000D01*
X145223162Y-142664683D01*
X145084090Y-142448559D01*
X144964086Y-142366564D01*
X144967440Y-142350000D01*
X144967440Y-142274272D01*
X145113233Y-142334811D01*
X145544873Y-142335188D01*
X145943800Y-142170354D01*
X146249282Y-141865405D01*
X146414811Y-141466767D01*
X146415188Y-141035127D01*
X146250354Y-140636200D01*
X145945405Y-140330718D01*
X145546767Y-140165189D01*
X145115127Y-140164812D01*
X144926498Y-140242752D01*
X144955000Y-140214250D01*
X144955000Y-140023691D01*
X144858327Y-139790302D01*
X144679699Y-139611673D01*
X144446310Y-139515000D01*
X143855750Y-139515000D01*
X143697000Y-139673750D01*
X143697000Y-140373000D01*
X143717000Y-140373000D01*
X143717000Y-140627000D01*
X143697000Y-140627000D01*
X143697000Y-140647000D01*
X143443000Y-140647000D01*
X143443000Y-140627000D01*
X142349486Y-140627000D01*
X142330327Y-140607808D01*
X141986799Y-140465162D01*
X141614833Y-140464838D01*
X141271057Y-140606883D01*
X141007808Y-140869673D01*
X140865162Y-141213201D01*
X140864838Y-141585167D01*
X141006883Y-141928943D01*
X141040000Y-141962118D01*
X141040000Y-144937537D01*
X141007808Y-144969673D01*
X140865162Y-145313201D01*
X140864877Y-145640000D01*
X139814802Y-145640000D01*
X138537401Y-144362599D01*
X138290839Y-144197852D01*
X138268139Y-144193337D01*
X137137401Y-143062599D01*
X136890839Y-142897852D01*
X136600000Y-142840000D01*
X136014802Y-142840000D01*
X134935122Y-141760320D01*
X134935162Y-141714833D01*
X134793117Y-141371057D01*
X134530327Y-141107808D01*
X134414917Y-141059885D01*
X135237401Y-140237401D01*
X135402148Y-139990840D01*
X135460000Y-139700000D01*
X135460000Y-139462289D01*
X135592192Y-139330327D01*
X135734838Y-138986799D01*
X135735162Y-138614833D01*
X135593117Y-138271057D01*
X135330327Y-138007808D01*
X134986799Y-137865162D01*
X134614833Y-137864838D01*
X134271057Y-138006883D01*
X134007808Y-138269673D01*
X133865162Y-138613201D01*
X133864838Y-138985167D01*
X133940000Y-139167073D01*
X133940000Y-139385198D01*
X130485198Y-142840000D01*
X125662463Y-142840000D01*
X125630327Y-142807808D01*
X125286799Y-142665162D01*
X125160000Y-142665052D01*
X125160000Y-132864802D01*
X127764802Y-130260000D01*
X131287537Y-130260000D01*
X131319673Y-130292192D01*
X131663201Y-130434838D01*
X132035167Y-130435162D01*
X132378943Y-130293117D01*
X132642192Y-130030327D01*
X132784838Y-129686799D01*
X132784949Y-129559751D01*
X135940000Y-132714802D01*
X135940000Y-139800000D01*
X135997852Y-140090839D01*
X136162599Y-140337401D01*
X136764878Y-140939680D01*
X136764838Y-140985167D01*
X136906883Y-141328943D01*
X137169673Y-141592192D01*
X137513201Y-141734838D01*
X137885167Y-141735162D01*
X138228943Y-141593117D01*
X138492192Y-141330327D01*
X138634838Y-140986799D01*
X138635162Y-140614833D01*
X138493117Y-140271057D01*
X138230327Y-140007808D01*
X137886799Y-139865162D01*
X137839923Y-139865121D01*
X137460000Y-139485198D01*
X137460000Y-132400000D01*
X137402148Y-132109161D01*
X137237401Y-131862599D01*
X133423601Y-128048799D01*
X133492192Y-127980327D01*
X133634838Y-127636799D01*
X133634879Y-127589923D01*
X133779837Y-127444965D01*
X133796838Y-127535317D01*
X133796838Y-127535317D01*
G37*
X133796838Y-127535317D02*
X133935910Y-127751441D01*
X134148110Y-127896431D01*
X134400000Y-127947440D01*
X135202489Y-127947440D01*
X135262599Y-128037401D01*
X135562599Y-128337401D01*
X135809161Y-128502148D01*
X136100000Y-128560000D01*
X139670301Y-128560000D01*
X139565162Y-128813201D01*
X139564934Y-129074648D01*
X139540000Y-129200000D01*
X139540000Y-133000000D01*
X139597852Y-133290839D01*
X139762599Y-133537401D01*
X141343675Y-135118477D01*
X141397852Y-135390839D01*
X141562599Y-135637401D01*
X141864878Y-135939680D01*
X141864838Y-135985167D01*
X142006883Y-136328943D01*
X142269673Y-136592192D01*
X142418295Y-136653906D01*
X142368559Y-136685910D01*
X142223569Y-136898110D01*
X142172560Y-137150000D01*
X142172560Y-137454433D01*
X142100000Y-137440000D01*
X140914802Y-137440000D01*
X139160000Y-135685198D01*
X139160000Y-134962463D01*
X139192192Y-134930327D01*
X139334838Y-134586799D01*
X139335162Y-134214833D01*
X139193117Y-133871057D01*
X138930327Y-133607808D01*
X138586799Y-133465162D01*
X138214833Y-133464838D01*
X137871057Y-133606883D01*
X137607808Y-133869673D01*
X137465162Y-134213201D01*
X137464838Y-134585167D01*
X137606883Y-134928943D01*
X137640000Y-134962118D01*
X137640000Y-136000000D01*
X137697852Y-136290839D01*
X137862599Y-136537401D01*
X139793337Y-138468139D01*
X139797852Y-138490839D01*
X139962599Y-138737401D01*
X140209161Y-138902148D01*
X140500000Y-138960000D01*
X141764860Y-138960000D01*
X141764838Y-138985167D01*
X141906883Y-139328943D01*
X142169673Y-139592192D01*
X142388795Y-139683180D01*
X142281673Y-139790302D01*
X142185000Y-140023691D01*
X142185000Y-140214250D01*
X142343750Y-140373000D01*
X143443000Y-140373000D01*
X143443000Y-139673750D01*
X143295713Y-139526463D01*
X143492192Y-139330327D01*
X143634838Y-138986799D01*
X143635162Y-138614833D01*
X143586656Y-138497440D01*
X144258268Y-138497440D01*
X144409646Y-138863800D01*
X144714595Y-139169282D01*
X145113233Y-139334811D01*
X145544873Y-139335188D01*
X145943800Y-139170354D01*
X146249282Y-138865405D01*
X146414811Y-138466767D01*
X146415188Y-138035127D01*
X146250354Y-137636200D01*
X145945405Y-137330718D01*
X145944472Y-137330330D01*
X146027806Y-137246996D01*
X146030000Y-137247440D01*
X146790000Y-137247440D01*
X146790000Y-142252560D01*
X146030000Y-142252560D01*
X145794683Y-142296838D01*
X145578559Y-142435910D01*
X145433569Y-142648110D01*
X145382560Y-142900000D01*
X145382560Y-143900000D01*
X145426838Y-144135317D01*
X145565910Y-144351441D01*
X145778110Y-144496431D01*
X146030000Y-144547440D01*
X146790000Y-144547440D01*
X146790000Y-151871548D01*
X146699558Y-151811117D01*
X146000000Y-151671966D01*
X145300442Y-151811117D01*
X144707385Y-152207385D01*
X144311117Y-152800442D01*
X144171966Y-153500000D01*
X144311117Y-154199558D01*
X144371548Y-154290000D01*
X139294092Y-154290000D01*
X139177135Y-154173043D01*
X139192000Y-154176000D01*
X140716000Y-154176000D01*
X141006839Y-154118148D01*
X141253401Y-153953401D01*
X142523401Y-152683401D01*
X142688148Y-152436840D01*
X142746000Y-152146000D01*
X142746000Y-151084382D01*
X142760000Y-151014000D01*
X142760000Y-148784802D01*
X142784947Y-148809749D01*
X142784824Y-148951010D01*
X142939023Y-149324200D01*
X143224298Y-149609973D01*
X143597218Y-149764823D01*
X144001010Y-149765176D01*
X144374200Y-149610977D01*
X144487672Y-149497702D01*
X144559789Y-149569819D01*
X144676824Y-149452784D01*
X144699052Y-149655560D01*
X145083728Y-149778333D01*
X145486104Y-149744551D01*
X145700948Y-149655560D01*
X145723176Y-149452781D01*
X145200000Y-148929605D01*
X145185858Y-148943748D01*
X145006253Y-148764143D01*
X145020395Y-148750000D01*
X145379605Y-148750000D01*
X145902781Y-149273176D01*
X146105560Y-149250948D01*
X146228333Y-148866272D01*
X146194551Y-148463896D01*
X146105560Y-148249052D01*
X145902781Y-148226824D01*
X145379605Y-148750000D01*
X145020395Y-148750000D01*
X145006253Y-148735858D01*
X145185858Y-148556253D01*
X145200000Y-148570395D01*
X145723176Y-148047219D01*
X145700948Y-147844440D01*
X145316272Y-147721667D01*
X144913896Y-147755449D01*
X144699052Y-147844440D01*
X144676824Y-148047216D01*
X144559789Y-147930181D01*
X144487725Y-148002245D01*
X144375702Y-147890027D01*
X144002782Y-147735177D01*
X143859854Y-147735052D01*
X142373470Y-146248668D01*
X142592192Y-146030327D01*
X142734838Y-145686799D01*
X142735162Y-145314833D01*
X142593117Y-144971057D01*
X142560000Y-144937882D01*
X142560000Y-142940890D01*
X142568110Y-142946431D01*
X142820000Y-142997440D01*
X143172560Y-142997440D01*
X143172560Y-143900000D01*
X143216838Y-144135317D01*
X143355910Y-144351441D01*
X143568110Y-144496431D01*
X143820000Y-144547440D01*
X144620000Y-144547440D01*
X144855317Y-144503162D01*
X145071441Y-144364090D01*
X145216431Y-144151890D01*
X145267440Y-143900000D01*
X145267440Y-142900000D01*
X145223162Y-142664683D01*
X145084090Y-142448559D01*
X144964086Y-142366564D01*
X144967440Y-142350000D01*
X144967440Y-142274272D01*
X145113233Y-142334811D01*
X145544873Y-142335188D01*
X145943800Y-142170354D01*
X146249282Y-141865405D01*
X146414811Y-141466767D01*
X146415188Y-141035127D01*
X146250354Y-140636200D01*
X145945405Y-140330718D01*
X145546767Y-140165189D01*
X145115127Y-140164812D01*
X144926498Y-140242752D01*
X144955000Y-140214250D01*
X144955000Y-140023691D01*
X144858327Y-139790302D01*
X144679699Y-139611673D01*
X144446310Y-139515000D01*
X143855750Y-139515000D01*
X143697000Y-139673750D01*
X143697000Y-140373000D01*
X143717000Y-140373000D01*
X143717000Y-140627000D01*
X143697000Y-140627000D01*
X143697000Y-140647000D01*
X143443000Y-140647000D01*
X143443000Y-140627000D01*
X142349486Y-140627000D01*
X142330327Y-140607808D01*
X141986799Y-140465162D01*
X141614833Y-140464838D01*
X141271057Y-140606883D01*
X141007808Y-140869673D01*
X140865162Y-141213201D01*
X140864838Y-141585167D01*
X141006883Y-141928943D01*
X141040000Y-141962118D01*
X141040000Y-144937537D01*
X141007808Y-144969673D01*
X140865162Y-145313201D01*
X140864877Y-145640000D01*
X139814802Y-145640000D01*
X138537401Y-144362599D01*
X138290839Y-144197852D01*
X138268139Y-144193337D01*
X137137401Y-143062599D01*
X136890839Y-142897852D01*
X136600000Y-142840000D01*
X136014802Y-142840000D01*
X134935122Y-141760320D01*
X134935162Y-141714833D01*
X134793117Y-141371057D01*
X134530327Y-141107808D01*
X134414917Y-141059885D01*
X135237401Y-140237401D01*
X135402148Y-139990840D01*
X135460000Y-139700000D01*
X135460000Y-139462289D01*
X135592192Y-139330327D01*
X135734838Y-138986799D01*
X135735162Y-138614833D01*
X135593117Y-138271057D01*
X135330327Y-138007808D01*
X134986799Y-137865162D01*
X134614833Y-137864838D01*
X134271057Y-138006883D01*
X134007808Y-138269673D01*
X133865162Y-138613201D01*
X133864838Y-138985167D01*
X133940000Y-139167073D01*
X133940000Y-139385198D01*
X130485198Y-142840000D01*
X125662463Y-142840000D01*
X125630327Y-142807808D01*
X125286799Y-142665162D01*
X125160000Y-142665052D01*
X125160000Y-132864802D01*
X127764802Y-130260000D01*
X131287537Y-130260000D01*
X131319673Y-130292192D01*
X131663201Y-130434838D01*
X132035167Y-130435162D01*
X132378943Y-130293117D01*
X132642192Y-130030327D01*
X132784838Y-129686799D01*
X132784949Y-129559751D01*
X135940000Y-132714802D01*
X135940000Y-139800000D01*
X135997852Y-140090839D01*
X136162599Y-140337401D01*
X136764878Y-140939680D01*
X136764838Y-140985167D01*
X136906883Y-141328943D01*
X137169673Y-141592192D01*
X137513201Y-141734838D01*
X137885167Y-141735162D01*
X138228943Y-141593117D01*
X138492192Y-141330327D01*
X138634838Y-140986799D01*
X138635162Y-140614833D01*
X138493117Y-140271057D01*
X138230327Y-140007808D01*
X137886799Y-139865162D01*
X137839923Y-139865121D01*
X137460000Y-139485198D01*
X137460000Y-132400000D01*
X137402148Y-132109161D01*
X137237401Y-131862599D01*
X133423601Y-128048799D01*
X133492192Y-127980327D01*
X133634838Y-127636799D01*
X133634879Y-127589923D01*
X133779837Y-127444965D01*
X133796838Y-127535317D01*
G36*
X130840000Y-109885197D02*
X130362599Y-110362599D01*
X130197852Y-110609161D01*
X130140000Y-110900000D01*
X130140000Y-121523258D01*
X130014683Y-121546838D01*
X129798559Y-121685910D01*
X129653569Y-121898110D01*
X129646788Y-121931596D01*
X129486799Y-121865162D01*
X129114833Y-121864838D01*
X128862404Y-121969139D01*
X128788327Y-121790301D01*
X128609698Y-121611673D01*
X128376309Y-121515000D01*
X127535750Y-121515000D01*
X127377000Y-121673750D01*
X127377000Y-122873000D01*
X127397000Y-122873000D01*
X127397000Y-123127000D01*
X127377000Y-123127000D01*
X127377000Y-123147000D01*
X127123000Y-123147000D01*
X127123000Y-123127000D01*
X125773750Y-123127000D01*
X125615000Y-123285750D01*
X125615000Y-123865000D01*
X125085750Y-123865000D01*
X124927000Y-124023750D01*
X124927000Y-125773000D01*
X124947000Y-125773000D01*
X124947000Y-126027000D01*
X124927000Y-126027000D01*
X124927000Y-127776250D01*
X125085750Y-127935000D01*
X126326310Y-127935000D01*
X126499541Y-127863245D01*
X126548110Y-127896431D01*
X126800000Y-127947440D01*
X129600000Y-127947440D01*
X129835317Y-127903162D01*
X130051441Y-127764090D01*
X130196431Y-127551890D01*
X130240363Y-127334949D01*
X130485167Y-127335162D01*
X130583679Y-127294458D01*
X130712599Y-127487401D01*
X131790145Y-128564947D01*
X131664833Y-128564838D01*
X131321057Y-128706883D01*
X131287882Y-128740000D01*
X127450000Y-128740000D01*
X127159160Y-128797852D01*
X126912599Y-128962599D01*
X123862599Y-132012599D01*
X123697852Y-132259161D01*
X123640000Y-132550000D01*
X123640000Y-139417673D01*
X123530327Y-139307808D01*
X123186799Y-139165162D01*
X122838927Y-139164859D01*
X122764090Y-139048559D01*
X122551890Y-138903569D01*
X122300000Y-138852560D01*
X120700000Y-138852560D01*
X120464683Y-138896838D01*
X120375772Y-138954051D01*
X120301890Y-138903569D01*
X120050000Y-138852560D01*
X118450000Y-138852560D01*
X118214683Y-138896838D01*
X117998559Y-139035910D01*
X117853569Y-139248110D01*
X117802560Y-139500000D01*
X117802560Y-141500000D01*
X117846838Y-141735317D01*
X117985910Y-141951441D01*
X118198110Y-142096431D01*
X118450000Y-142147440D01*
X118749436Y-142147440D01*
X118797852Y-142390839D01*
X118962599Y-142637401D01*
X119064878Y-142739680D01*
X119064838Y-142785167D01*
X119206883Y-143128943D01*
X119251530Y-143173668D01*
X118862599Y-143562599D01*
X118697852Y-143809161D01*
X118640000Y-144100000D01*
X118640000Y-151296421D01*
X118497852Y-151509161D01*
X118440000Y-151800000D01*
X118479406Y-151998105D01*
X118199558Y-151811117D01*
X117500000Y-151671966D01*
X116800442Y-151811117D01*
X116710000Y-151871548D01*
X116710000Y-143432415D01*
X116769673Y-143492192D01*
X117113201Y-143634838D01*
X117485167Y-143635162D01*
X117828943Y-143493117D01*
X118092192Y-143230327D01*
X118234838Y-142886799D01*
X118235162Y-142514833D01*
X118093117Y-142171057D01*
X117830327Y-141907808D01*
X117560000Y-141795558D01*
X117560000Y-136785750D01*
X117815000Y-136785750D01*
X117815000Y-137626309D01*
X117911673Y-137859698D01*
X118090301Y-138038327D01*
X118323690Y-138135000D01*
X118964250Y-138135000D01*
X119123000Y-137976250D01*
X119123000Y-136627000D01*
X117973750Y-136627000D01*
X117815000Y-136785750D01*
X117560000Y-136785750D01*
X117560000Y-135373691D01*
X117815000Y-135373691D01*
X117815000Y-136214250D01*
X117973750Y-136373000D01*
X119123000Y-136373000D01*
X119123000Y-136353000D01*
X119377000Y-136353000D01*
X119377000Y-136373000D01*
X119397000Y-136373000D01*
X119397000Y-136627000D01*
X119377000Y-136627000D01*
X119377000Y-137976250D01*
X119535750Y-138135000D01*
X120176310Y-138135000D01*
X120380670Y-138050351D01*
X120448110Y-138096431D01*
X120700000Y-138147440D01*
X122300000Y-138147440D01*
X122535317Y-138103162D01*
X122751441Y-137964090D01*
X122896431Y-137751890D01*
X122947440Y-137500000D01*
X122947440Y-135500000D01*
X122903162Y-135264683D01*
X122764090Y-135048559D01*
X122551890Y-134903569D01*
X122300000Y-134852560D01*
X122260000Y-134852560D01*
X122260000Y-134812747D01*
X122313201Y-134834838D01*
X122685167Y-134835162D01*
X123028943Y-134693117D01*
X123292192Y-134430327D01*
X123434838Y-134086799D01*
X123435162Y-133714833D01*
X123293117Y-133371057D01*
X123030327Y-133107808D01*
X122860000Y-133037082D01*
X122860000Y-131562463D01*
X122892192Y-131530327D01*
X123034838Y-131186799D01*
X123035162Y-130814833D01*
X122893117Y-130471057D01*
X122630327Y-130207808D01*
X122286799Y-130065162D01*
X121914833Y-130064838D01*
X121571057Y-130206883D01*
X121307808Y-130469673D01*
X121165162Y-130813201D01*
X121164838Y-131185167D01*
X121306883Y-131528943D01*
X121340000Y-131562118D01*
X121340000Y-133500000D01*
X121387739Y-133740000D01*
X120665531Y-133740000D01*
X120933629Y-133472370D01*
X121146757Y-132959100D01*
X121147242Y-132403339D01*
X120935010Y-131889697D01*
X120542370Y-131496371D01*
X120350273Y-131416605D01*
X120481143Y-131362397D01*
X120550608Y-131120213D01*
X119750000Y-130319605D01*
X118949392Y-131120213D01*
X119018857Y-131362397D01*
X119159318Y-131412509D01*
X118959697Y-131494990D01*
X118566371Y-131887630D01*
X118353243Y-132400900D01*
X118352758Y-132956661D01*
X118564990Y-133470303D01*
X118733963Y-133639572D01*
X118571057Y-133706883D01*
X118307808Y-133969673D01*
X118165162Y-134313201D01*
X118164838Y-134685167D01*
X118251499Y-134894903D01*
X118090301Y-134961673D01*
X117911673Y-135140302D01*
X117815000Y-135373691D01*
X117560000Y-135373691D01*
X117560000Y-129932302D01*
X118340856Y-129932302D01*
X118368638Y-130487368D01*
X118527603Y-130871143D01*
X118769787Y-130940608D01*
X119570395Y-130140000D01*
X119929605Y-130140000D01*
X120730213Y-130940608D01*
X120972397Y-130871143D01*
X121159144Y-130347698D01*
X121131362Y-129792632D01*
X120972397Y-129408857D01*
X120730213Y-129339392D01*
X119929605Y-130140000D01*
X119570395Y-130140000D01*
X118769787Y-129339392D01*
X118527603Y-129408857D01*
X118340856Y-129932302D01*
X117560000Y-129932302D01*
X117560000Y-119814802D01*
X117914802Y-119460000D01*
X118453273Y-119460000D01*
X118353243Y-119700900D01*
X118352758Y-120256661D01*
X118564990Y-120770303D01*
X118957630Y-121163629D01*
X119165512Y-121249949D01*
X118959697Y-121334990D01*
X118566371Y-121727630D01*
X118353243Y-122240900D01*
X118352758Y-122796661D01*
X118564990Y-123310303D01*
X118957630Y-123703629D01*
X119165512Y-123789949D01*
X118959697Y-123874990D01*
X118566371Y-124267630D01*
X118353243Y-124780900D01*
X118352758Y-125336661D01*
X118564990Y-125850303D01*
X118957630Y-126243629D01*
X119165512Y-126329949D01*
X118959697Y-126414990D01*
X118566371Y-126807630D01*
X118353243Y-127320900D01*
X118352758Y-127876661D01*
X118564990Y-128390303D01*
X118957630Y-128783629D01*
X119149727Y-128863395D01*
X119018857Y-128917603D01*
X118949392Y-129159787D01*
X119750000Y-129960395D01*
X120550608Y-129159787D01*
X120481143Y-128917603D01*
X120340682Y-128867491D01*
X120540303Y-128785010D01*
X120933629Y-128392370D01*
X121146757Y-127879100D01*
X121147242Y-127323339D01*
X120935010Y-126809697D01*
X120542370Y-126416371D01*
X120334488Y-126330051D01*
X120540303Y-126245010D01*
X120599666Y-126185750D01*
X122765000Y-126185750D01*
X122765000Y-127426309D01*
X122861673Y-127659698D01*
X123040301Y-127838327D01*
X123273690Y-127935000D01*
X124514250Y-127935000D01*
X124673000Y-127776250D01*
X124673000Y-126027000D01*
X122923750Y-126027000D01*
X122765000Y-126185750D01*
X120599666Y-126185750D01*
X120933629Y-125852370D01*
X121146757Y-125339100D01*
X121147242Y-124783339D01*
X120977980Y-124373691D01*
X122765000Y-124373691D01*
X122765000Y-125614250D01*
X122923750Y-125773000D01*
X124673000Y-125773000D01*
X124673000Y-124023750D01*
X124514250Y-123865000D01*
X123273690Y-123865000D01*
X123040301Y-123961673D01*
X122861673Y-124140302D01*
X122765000Y-124373691D01*
X120977980Y-124373691D01*
X120935010Y-124269697D01*
X120542370Y-123876371D01*
X120334488Y-123790051D01*
X120540303Y-123705010D01*
X120933629Y-123312370D01*
X121146757Y-122799100D01*
X121147242Y-122243339D01*
X121056486Y-122023690D01*
X125615000Y-122023690D01*
X125615000Y-122714250D01*
X125773750Y-122873000D01*
X127123000Y-122873000D01*
X127123000Y-121673750D01*
X126964250Y-121515000D01*
X126123691Y-121515000D01*
X125890302Y-121611673D01*
X125711673Y-121790301D01*
X125615000Y-122023690D01*
X121056486Y-122023690D01*
X120935010Y-121729697D01*
X120542370Y-121336371D01*
X120334488Y-121250051D01*
X120540303Y-121165010D01*
X120933629Y-120772370D01*
X121146757Y-120259100D01*
X121147051Y-119921854D01*
X121162598Y-119937401D01*
X121307411Y-120034161D01*
X121409161Y-120102148D01*
X121700000Y-120160000D01*
X124400000Y-120160000D01*
X124690839Y-120102148D01*
X124937401Y-119937401D01*
X128037401Y-116837401D01*
X128202148Y-116590839D01*
X128260000Y-116300000D01*
X128260000Y-116262463D01*
X128292192Y-116230327D01*
X128434838Y-115886799D01*
X128435162Y-115514833D01*
X128293117Y-115171057D01*
X128030327Y-114907808D01*
X127686799Y-114765162D01*
X127314833Y-114764838D01*
X126971057Y-114906883D01*
X126707808Y-115169673D01*
X126565162Y-115513201D01*
X126564838Y-115885167D01*
X126645299Y-116079899D01*
X124085198Y-118640000D01*
X122014803Y-118640000D01*
X121537401Y-118162599D01*
X121290839Y-117997852D01*
X121050833Y-117950111D01*
X121146757Y-117719100D01*
X121147242Y-117163339D01*
X120935010Y-116649697D01*
X120542370Y-116256371D01*
X120334488Y-116170051D01*
X120540303Y-116085010D01*
X120933629Y-115692370D01*
X121146757Y-115179100D01*
X121147242Y-114623339D01*
X120935010Y-114109697D01*
X120542370Y-113716371D01*
X120334488Y-113630051D01*
X120540303Y-113545010D01*
X120933629Y-113152370D01*
X121124797Y-112691986D01*
X121288201Y-112759838D01*
X121660167Y-112760162D01*
X122003943Y-112618117D01*
X122267192Y-112355327D01*
X122409838Y-112011799D01*
X122410162Y-111639833D01*
X122268117Y-111296057D01*
X122235000Y-111262882D01*
X122235000Y-110337332D01*
X122342192Y-110230327D01*
X122474606Y-109911440D01*
X122590098Y-109911440D01*
X122589838Y-110210167D01*
X122731883Y-110553943D01*
X122994673Y-110817192D01*
X123338201Y-110959838D01*
X123385077Y-110959879D01*
X124140000Y-111714802D01*
X124140000Y-113562624D01*
X124057808Y-113644673D01*
X123915162Y-113988201D01*
X123914838Y-114360167D01*
X124056883Y-114703943D01*
X124319673Y-114967192D01*
X124663201Y-115109838D01*
X125035167Y-115110162D01*
X125378943Y-114968117D01*
X125642192Y-114705327D01*
X125784838Y-114361799D01*
X125785162Y-113989833D01*
X125660000Y-113686917D01*
X125660000Y-111400000D01*
X125602148Y-111109161D01*
X125437401Y-110862599D01*
X124486242Y-109911440D01*
X130404000Y-109911440D01*
X130639317Y-109867162D01*
X130840000Y-109738026D01*
X130840000Y-109885197D01*
X130840000Y-109885197D01*
G37*
X130840000Y-109885197D02*
X130362599Y-110362599D01*
X130197852Y-110609161D01*
X130140000Y-110900000D01*
X130140000Y-121523258D01*
X130014683Y-121546838D01*
X129798559Y-121685910D01*
X129653569Y-121898110D01*
X129646788Y-121931596D01*
X129486799Y-121865162D01*
X129114833Y-121864838D01*
X128862404Y-121969139D01*
X128788327Y-121790301D01*
X128609698Y-121611673D01*
X128376309Y-121515000D01*
X127535750Y-121515000D01*
X127377000Y-121673750D01*
X127377000Y-122873000D01*
X127397000Y-122873000D01*
X127397000Y-123127000D01*
X127377000Y-123127000D01*
X127377000Y-123147000D01*
X127123000Y-123147000D01*
X127123000Y-123127000D01*
X125773750Y-123127000D01*
X125615000Y-123285750D01*
X125615000Y-123865000D01*
X125085750Y-123865000D01*
X124927000Y-124023750D01*
X124927000Y-125773000D01*
X124947000Y-125773000D01*
X124947000Y-126027000D01*
X124927000Y-126027000D01*
X124927000Y-127776250D01*
X125085750Y-127935000D01*
X126326310Y-127935000D01*
X126499541Y-127863245D01*
X126548110Y-127896431D01*
X126800000Y-127947440D01*
X129600000Y-127947440D01*
X129835317Y-127903162D01*
X130051441Y-127764090D01*
X130196431Y-127551890D01*
X130240363Y-127334949D01*
X130485167Y-127335162D01*
X130583679Y-127294458D01*
X130712599Y-127487401D01*
X131790145Y-128564947D01*
X131664833Y-128564838D01*
X131321057Y-128706883D01*
X131287882Y-128740000D01*
X127450000Y-128740000D01*
X127159160Y-128797852D01*
X126912599Y-128962599D01*
X123862599Y-132012599D01*
X123697852Y-132259161D01*
X123640000Y-132550000D01*
X123640000Y-139417673D01*
X123530327Y-139307808D01*
X123186799Y-139165162D01*
X122838927Y-139164859D01*
X122764090Y-139048559D01*
X122551890Y-138903569D01*
X122300000Y-138852560D01*
X120700000Y-138852560D01*
X120464683Y-138896838D01*
X120375772Y-138954051D01*
X120301890Y-138903569D01*
X120050000Y-138852560D01*
X118450000Y-138852560D01*
X118214683Y-138896838D01*
X117998559Y-139035910D01*
X117853569Y-139248110D01*
X117802560Y-139500000D01*
X117802560Y-141500000D01*
X117846838Y-141735317D01*
X117985910Y-141951441D01*
X118198110Y-142096431D01*
X118450000Y-142147440D01*
X118749436Y-142147440D01*
X118797852Y-142390839D01*
X118962599Y-142637401D01*
X119064878Y-142739680D01*
X119064838Y-142785167D01*
X119206883Y-143128943D01*
X119251530Y-143173668D01*
X118862599Y-143562599D01*
X118697852Y-143809161D01*
X118640000Y-144100000D01*
X118640000Y-151296421D01*
X118497852Y-151509161D01*
X118440000Y-151800000D01*
X118479406Y-151998105D01*
X118199558Y-151811117D01*
X117500000Y-151671966D01*
X116800442Y-151811117D01*
X116710000Y-151871548D01*
X116710000Y-143432415D01*
X116769673Y-143492192D01*
X117113201Y-143634838D01*
X117485167Y-143635162D01*
X117828943Y-143493117D01*
X118092192Y-143230327D01*
X118234838Y-142886799D01*
X118235162Y-142514833D01*
X118093117Y-142171057D01*
X117830327Y-141907808D01*
X117560000Y-141795558D01*
X117560000Y-136785750D01*
X117815000Y-136785750D01*
X117815000Y-137626309D01*
X117911673Y-137859698D01*
X118090301Y-138038327D01*
X118323690Y-138135000D01*
X118964250Y-138135000D01*
X119123000Y-137976250D01*
X119123000Y-136627000D01*
X117973750Y-136627000D01*
X117815000Y-136785750D01*
X117560000Y-136785750D01*
X117560000Y-135373691D01*
X117815000Y-135373691D01*
X117815000Y-136214250D01*
X117973750Y-136373000D01*
X119123000Y-136373000D01*
X119123000Y-136353000D01*
X119377000Y-136353000D01*
X119377000Y-136373000D01*
X119397000Y-136373000D01*
X119397000Y-136627000D01*
X119377000Y-136627000D01*
X119377000Y-137976250D01*
X119535750Y-138135000D01*
X120176310Y-138135000D01*
X120380670Y-138050351D01*
X120448110Y-138096431D01*
X120700000Y-138147440D01*
X122300000Y-138147440D01*
X122535317Y-138103162D01*
X122751441Y-137964090D01*
X122896431Y-137751890D01*
X122947440Y-137500000D01*
X122947440Y-135500000D01*
X122903162Y-135264683D01*
X122764090Y-135048559D01*
X122551890Y-134903569D01*
X122300000Y-134852560D01*
X122260000Y-134852560D01*
X122260000Y-134812747D01*
X122313201Y-134834838D01*
X122685167Y-134835162D01*
X123028943Y-134693117D01*
X123292192Y-134430327D01*
X123434838Y-134086799D01*
X123435162Y-133714833D01*
X123293117Y-133371057D01*
X123030327Y-133107808D01*
X122860000Y-133037082D01*
X122860000Y-131562463D01*
X122892192Y-131530327D01*
X123034838Y-131186799D01*
X123035162Y-130814833D01*
X122893117Y-130471057D01*
X122630327Y-130207808D01*
X122286799Y-130065162D01*
X121914833Y-130064838D01*
X121571057Y-130206883D01*
X121307808Y-130469673D01*
X121165162Y-130813201D01*
X121164838Y-131185167D01*
X121306883Y-131528943D01*
X121340000Y-131562118D01*
X121340000Y-133500000D01*
X121387739Y-133740000D01*
X120665531Y-133740000D01*
X120933629Y-133472370D01*
X121146757Y-132959100D01*
X121147242Y-132403339D01*
X120935010Y-131889697D01*
X120542370Y-131496371D01*
X120350273Y-131416605D01*
X120481143Y-131362397D01*
X120550608Y-131120213D01*
X119750000Y-130319605D01*
X118949392Y-131120213D01*
X119018857Y-131362397D01*
X119159318Y-131412509D01*
X118959697Y-131494990D01*
X118566371Y-131887630D01*
X118353243Y-132400900D01*
X118352758Y-132956661D01*
X118564990Y-133470303D01*
X118733963Y-133639572D01*
X118571057Y-133706883D01*
X118307808Y-133969673D01*
X118165162Y-134313201D01*
X118164838Y-134685167D01*
X118251499Y-134894903D01*
X118090301Y-134961673D01*
X117911673Y-135140302D01*
X117815000Y-135373691D01*
X117560000Y-135373691D01*
X117560000Y-129932302D01*
X118340856Y-129932302D01*
X118368638Y-130487368D01*
X118527603Y-130871143D01*
X118769787Y-130940608D01*
X119570395Y-130140000D01*
X119929605Y-130140000D01*
X120730213Y-130940608D01*
X120972397Y-130871143D01*
X121159144Y-130347698D01*
X121131362Y-129792632D01*
X120972397Y-129408857D01*
X120730213Y-129339392D01*
X119929605Y-130140000D01*
X119570395Y-130140000D01*
X118769787Y-129339392D01*
X118527603Y-129408857D01*
X118340856Y-129932302D01*
X117560000Y-129932302D01*
X117560000Y-119814802D01*
X117914802Y-119460000D01*
X118453273Y-119460000D01*
X118353243Y-119700900D01*
X118352758Y-120256661D01*
X118564990Y-120770303D01*
X118957630Y-121163629D01*
X119165512Y-121249949D01*
X118959697Y-121334990D01*
X118566371Y-121727630D01*
X118353243Y-122240900D01*
X118352758Y-122796661D01*
X118564990Y-123310303D01*
X118957630Y-123703629D01*
X119165512Y-123789949D01*
X118959697Y-123874990D01*
X118566371Y-124267630D01*
X118353243Y-124780900D01*
X118352758Y-125336661D01*
X118564990Y-125850303D01*
X118957630Y-126243629D01*
X119165512Y-126329949D01*
X118959697Y-126414990D01*
X118566371Y-126807630D01*
X118353243Y-127320900D01*
X118352758Y-127876661D01*
X118564990Y-128390303D01*
X118957630Y-128783629D01*
X119149727Y-128863395D01*
X119018857Y-128917603D01*
X118949392Y-129159787D01*
X119750000Y-129960395D01*
X120550608Y-129159787D01*
X120481143Y-128917603D01*
X120340682Y-128867491D01*
X120540303Y-128785010D01*
X120933629Y-128392370D01*
X121146757Y-127879100D01*
X121147242Y-127323339D01*
X120935010Y-126809697D01*
X120542370Y-126416371D01*
X120334488Y-126330051D01*
X120540303Y-126245010D01*
X120599666Y-126185750D01*
X122765000Y-126185750D01*
X122765000Y-127426309D01*
X122861673Y-127659698D01*
X123040301Y-127838327D01*
X123273690Y-127935000D01*
X124514250Y-127935000D01*
X124673000Y-127776250D01*
X124673000Y-126027000D01*
X122923750Y-126027000D01*
X122765000Y-126185750D01*
X120599666Y-126185750D01*
X120933629Y-125852370D01*
X121146757Y-125339100D01*
X121147242Y-124783339D01*
X120977980Y-124373691D01*
X122765000Y-124373691D01*
X122765000Y-125614250D01*
X122923750Y-125773000D01*
X124673000Y-125773000D01*
X124673000Y-124023750D01*
X124514250Y-123865000D01*
X123273690Y-123865000D01*
X123040301Y-123961673D01*
X122861673Y-124140302D01*
X122765000Y-124373691D01*
X120977980Y-124373691D01*
X120935010Y-124269697D01*
X120542370Y-123876371D01*
X120334488Y-123790051D01*
X120540303Y-123705010D01*
X120933629Y-123312370D01*
X121146757Y-122799100D01*
X121147242Y-122243339D01*
X121056486Y-122023690D01*
X125615000Y-122023690D01*
X125615000Y-122714250D01*
X125773750Y-122873000D01*
X127123000Y-122873000D01*
X127123000Y-121673750D01*
X126964250Y-121515000D01*
X126123691Y-121515000D01*
X125890302Y-121611673D01*
X125711673Y-121790301D01*
X125615000Y-122023690D01*
X121056486Y-122023690D01*
X120935010Y-121729697D01*
X120542370Y-121336371D01*
X120334488Y-121250051D01*
X120540303Y-121165010D01*
X120933629Y-120772370D01*
X121146757Y-120259100D01*
X121147051Y-119921854D01*
X121162598Y-119937401D01*
X121307411Y-120034161D01*
X121409161Y-120102148D01*
X121700000Y-120160000D01*
X124400000Y-120160000D01*
X124690839Y-120102148D01*
X124937401Y-119937401D01*
X128037401Y-116837401D01*
X128202148Y-116590839D01*
X128260000Y-116300000D01*
X128260000Y-116262463D01*
X128292192Y-116230327D01*
X128434838Y-115886799D01*
X128435162Y-115514833D01*
X128293117Y-115171057D01*
X128030327Y-114907808D01*
X127686799Y-114765162D01*
X127314833Y-114764838D01*
X126971057Y-114906883D01*
X126707808Y-115169673D01*
X126565162Y-115513201D01*
X126564838Y-115885167D01*
X126645299Y-116079899D01*
X124085198Y-118640000D01*
X122014803Y-118640000D01*
X121537401Y-118162599D01*
X121290839Y-117997852D01*
X121050833Y-117950111D01*
X121146757Y-117719100D01*
X121147242Y-117163339D01*
X120935010Y-116649697D01*
X120542370Y-116256371D01*
X120334488Y-116170051D01*
X120540303Y-116085010D01*
X120933629Y-115692370D01*
X121146757Y-115179100D01*
X121147242Y-114623339D01*
X120935010Y-114109697D01*
X120542370Y-113716371D01*
X120334488Y-113630051D01*
X120540303Y-113545010D01*
X120933629Y-113152370D01*
X121124797Y-112691986D01*
X121288201Y-112759838D01*
X121660167Y-112760162D01*
X122003943Y-112618117D01*
X122267192Y-112355327D01*
X122409838Y-112011799D01*
X122410162Y-111639833D01*
X122268117Y-111296057D01*
X122235000Y-111262882D01*
X122235000Y-110337332D01*
X122342192Y-110230327D01*
X122474606Y-109911440D01*
X122590098Y-109911440D01*
X122589838Y-110210167D01*
X122731883Y-110553943D01*
X122994673Y-110817192D01*
X123338201Y-110959838D01*
X123385077Y-110959879D01*
X124140000Y-111714802D01*
X124140000Y-113562624D01*
X124057808Y-113644673D01*
X123915162Y-113988201D01*
X123914838Y-114360167D01*
X124056883Y-114703943D01*
X124319673Y-114967192D01*
X124663201Y-115109838D01*
X125035167Y-115110162D01*
X125378943Y-114968117D01*
X125642192Y-114705327D01*
X125784838Y-114361799D01*
X125785162Y-113989833D01*
X125660000Y-113686917D01*
X125660000Y-111400000D01*
X125602148Y-111109161D01*
X125437401Y-110862599D01*
X124486242Y-109911440D01*
X130404000Y-109911440D01*
X130639317Y-109867162D01*
X130840000Y-109738026D01*
X130840000Y-109885197D01*
G36*
X146790000Y-133449539D02*
X146586799Y-133365162D01*
X146378221Y-133364980D01*
X146546757Y-132959100D01*
X146547242Y-132403339D01*
X146335010Y-131889697D01*
X145942370Y-131496371D01*
X145750273Y-131416605D01*
X145881143Y-131362397D01*
X145950608Y-131120213D01*
X145150000Y-130319605D01*
X145135858Y-130333748D01*
X144956253Y-130154143D01*
X144970395Y-130140000D01*
X144956253Y-130125858D01*
X145135858Y-129946253D01*
X145150000Y-129960395D01*
X145164143Y-129946253D01*
X145343748Y-130125858D01*
X145329605Y-130140000D01*
X146130213Y-130940608D01*
X146372397Y-130871143D01*
X146559144Y-130347698D01*
X146531362Y-129792632D01*
X146462994Y-129627578D01*
X146590839Y-129602148D01*
X146790000Y-129469073D01*
X146790000Y-133449539D01*
X146790000Y-133449539D01*
G37*
X146790000Y-133449539D02*
X146586799Y-133365162D01*
X146378221Y-133364980D01*
X146546757Y-132959100D01*
X146547242Y-132403339D01*
X146335010Y-131889697D01*
X145942370Y-131496371D01*
X145750273Y-131416605D01*
X145881143Y-131362397D01*
X145950608Y-131120213D01*
X145150000Y-130319605D01*
X145135858Y-130333748D01*
X144956253Y-130154143D01*
X144970395Y-130140000D01*
X144956253Y-130125858D01*
X145135858Y-129946253D01*
X145150000Y-129960395D01*
X145164143Y-129946253D01*
X145343748Y-130125858D01*
X145329605Y-130140000D01*
X146130213Y-130940608D01*
X146372397Y-130871143D01*
X146559144Y-130347698D01*
X146531362Y-129792632D01*
X146462994Y-129627578D01*
X146590839Y-129602148D01*
X146790000Y-129469073D01*
X146790000Y-133449539D01*
G36*
X135740000Y-104700000D02*
X135797852Y-104990839D01*
X135962599Y-105237401D01*
X136595758Y-105870560D01*
X134342000Y-105870560D01*
X134106683Y-105914838D01*
X133890559Y-106053910D01*
X133745569Y-106266110D01*
X133694560Y-106518000D01*
X133694560Y-109518000D01*
X133738838Y-109753317D01*
X133877910Y-109969441D01*
X134090110Y-110114431D01*
X134342000Y-110165440D01*
X142240000Y-110165440D01*
X142240000Y-114915198D01*
X142134183Y-114809381D01*
X142146757Y-114779100D01*
X142147242Y-114223339D01*
X141935010Y-113709697D01*
X141542370Y-113316371D01*
X141029100Y-113103243D01*
X140473339Y-113102758D01*
X139959697Y-113314990D01*
X139566371Y-113707630D01*
X139353243Y-114220900D01*
X139352907Y-114605559D01*
X139255327Y-114507808D01*
X138911799Y-114365162D01*
X138539833Y-114364838D01*
X138256649Y-114481847D01*
X138137401Y-114362599D01*
X137890839Y-114197852D01*
X137600000Y-114140000D01*
X133707458Y-114140000D01*
X133742192Y-114105327D01*
X133884838Y-113761799D01*
X133885162Y-113389833D01*
X133743117Y-113046057D01*
X133706990Y-113009867D01*
X133652148Y-112734161D01*
X133487401Y-112487599D01*
X133085122Y-112085320D01*
X133085162Y-112039833D01*
X132943117Y-111696057D01*
X132696478Y-111448987D01*
X132802147Y-111290840D01*
X132802148Y-111290839D01*
X132860000Y-111000000D01*
X132860000Y-109021604D01*
X132928943Y-108993117D01*
X133192192Y-108730327D01*
X133334838Y-108386799D01*
X133335162Y-108014833D01*
X133193117Y-107671057D01*
X132930327Y-107407808D01*
X132586799Y-107265162D01*
X132360000Y-107264964D01*
X132360000Y-105400000D01*
X132306083Y-105128943D01*
X132302148Y-105109160D01*
X132137401Y-104862599D01*
X131960000Y-104685198D01*
X131960000Y-103582502D01*
X131969673Y-103592192D01*
X132313201Y-103734838D01*
X132685167Y-103735162D01*
X133028943Y-103593117D01*
X133292192Y-103330327D01*
X133404442Y-103060000D01*
X134537537Y-103060000D01*
X134569673Y-103092192D01*
X134913201Y-103234838D01*
X135285167Y-103235162D01*
X135628943Y-103093117D01*
X135740000Y-102982254D01*
X135740000Y-104700000D01*
X135740000Y-104700000D01*
G37*
X135740000Y-104700000D02*
X135797852Y-104990839D01*
X135962599Y-105237401D01*
X136595758Y-105870560D01*
X134342000Y-105870560D01*
X134106683Y-105914838D01*
X133890559Y-106053910D01*
X133745569Y-106266110D01*
X133694560Y-106518000D01*
X133694560Y-109518000D01*
X133738838Y-109753317D01*
X133877910Y-109969441D01*
X134090110Y-110114431D01*
X134342000Y-110165440D01*
X142240000Y-110165440D01*
X142240000Y-114915198D01*
X142134183Y-114809381D01*
X142146757Y-114779100D01*
X142147242Y-114223339D01*
X141935010Y-113709697D01*
X141542370Y-113316371D01*
X141029100Y-113103243D01*
X140473339Y-113102758D01*
X139959697Y-113314990D01*
X139566371Y-113707630D01*
X139353243Y-114220900D01*
X139352907Y-114605559D01*
X139255327Y-114507808D01*
X138911799Y-114365162D01*
X138539833Y-114364838D01*
X138256649Y-114481847D01*
X138137401Y-114362599D01*
X137890839Y-114197852D01*
X137600000Y-114140000D01*
X133707458Y-114140000D01*
X133742192Y-114105327D01*
X133884838Y-113761799D01*
X133885162Y-113389833D01*
X133743117Y-113046057D01*
X133706990Y-113009867D01*
X133652148Y-112734161D01*
X133487401Y-112487599D01*
X133085122Y-112085320D01*
X133085162Y-112039833D01*
X132943117Y-111696057D01*
X132696478Y-111448987D01*
X132802147Y-111290840D01*
X132802148Y-111290839D01*
X132860000Y-111000000D01*
X132860000Y-109021604D01*
X132928943Y-108993117D01*
X133192192Y-108730327D01*
X133334838Y-108386799D01*
X133335162Y-108014833D01*
X133193117Y-107671057D01*
X132930327Y-107407808D01*
X132586799Y-107265162D01*
X132360000Y-107264964D01*
X132360000Y-105400000D01*
X132306083Y-105128943D01*
X132302148Y-105109160D01*
X132137401Y-104862599D01*
X131960000Y-104685198D01*
X131960000Y-103582502D01*
X131969673Y-103592192D01*
X132313201Y-103734838D01*
X132685167Y-103735162D01*
X133028943Y-103593117D01*
X133292192Y-103330327D01*
X133404442Y-103060000D01*
X134537537Y-103060000D01*
X134569673Y-103092192D01*
X134913201Y-103234838D01*
X135285167Y-103235162D01*
X135628943Y-103093117D01*
X135740000Y-102982254D01*
X135740000Y-104700000D01*
G36*
X120962560Y-100398000D02*
X121006838Y-100633317D01*
X121145910Y-100849441D01*
X121358110Y-100994431D01*
X121610000Y-101045440D01*
X125610000Y-101045440D01*
X125845317Y-101001162D01*
X126061441Y-100862090D01*
X126206431Y-100649890D01*
X126257440Y-100398000D01*
X126257440Y-100396000D01*
X126421198Y-100396000D01*
X128715991Y-102690793D01*
X128665162Y-102813201D01*
X128664838Y-103185167D01*
X128806883Y-103528943D01*
X129069673Y-103792192D01*
X129413201Y-103934838D01*
X129785167Y-103935162D01*
X130128943Y-103793117D01*
X130392192Y-103530327D01*
X130440000Y-103415193D01*
X130440000Y-105000000D01*
X130497852Y-105290839D01*
X130662599Y-105537401D01*
X130840000Y-105714802D01*
X130840000Y-105793366D01*
X130655890Y-105667569D01*
X130404000Y-105616560D01*
X122404000Y-105616560D01*
X122168683Y-105660838D01*
X121952559Y-105799910D01*
X121807569Y-106012110D01*
X121756560Y-106264000D01*
X121756560Y-108773368D01*
X121736799Y-108765162D01*
X121364833Y-108764838D01*
X121021057Y-108906883D01*
X120916552Y-109011206D01*
X120542370Y-108636371D01*
X120334488Y-108550051D01*
X120540303Y-108465010D01*
X120933629Y-108072370D01*
X121146757Y-107559100D01*
X121147242Y-107003339D01*
X120935010Y-106489697D01*
X120542370Y-106096371D01*
X120334488Y-106010051D01*
X120540303Y-105925010D01*
X120933629Y-105532370D01*
X121146757Y-105019100D01*
X121146849Y-104914082D01*
X121358110Y-105058431D01*
X121610000Y-105109440D01*
X125610000Y-105109440D01*
X125845317Y-105065162D01*
X126061441Y-104926090D01*
X126206431Y-104713890D01*
X126257440Y-104462000D01*
X126257440Y-102938000D01*
X126213162Y-102702683D01*
X126074090Y-102486559D01*
X125861890Y-102341569D01*
X125610000Y-102290560D01*
X121610000Y-102290560D01*
X121374683Y-102334838D01*
X121158559Y-102473910D01*
X121133967Y-102509901D01*
X121146757Y-102479100D01*
X121147242Y-101923339D01*
X120935010Y-101409697D01*
X120542370Y-101016371D01*
X120334488Y-100930051D01*
X120540303Y-100845010D01*
X120933629Y-100452370D01*
X120962560Y-100382696D01*
X120962560Y-100398000D01*
X120962560Y-100398000D01*
G37*
X120962560Y-100398000D02*
X121006838Y-100633317D01*
X121145910Y-100849441D01*
X121358110Y-100994431D01*
X121610000Y-101045440D01*
X125610000Y-101045440D01*
X125845317Y-101001162D01*
X126061441Y-100862090D01*
X126206431Y-100649890D01*
X126257440Y-100398000D01*
X126257440Y-100396000D01*
X126421198Y-100396000D01*
X128715991Y-102690793D01*
X128665162Y-102813201D01*
X128664838Y-103185167D01*
X128806883Y-103528943D01*
X129069673Y-103792192D01*
X129413201Y-103934838D01*
X129785167Y-103935162D01*
X130128943Y-103793117D01*
X130392192Y-103530327D01*
X130440000Y-103415193D01*
X130440000Y-105000000D01*
X130497852Y-105290839D01*
X130662599Y-105537401D01*
X130840000Y-105714802D01*
X130840000Y-105793366D01*
X130655890Y-105667569D01*
X130404000Y-105616560D01*
X122404000Y-105616560D01*
X122168683Y-105660838D01*
X121952559Y-105799910D01*
X121807569Y-106012110D01*
X121756560Y-106264000D01*
X121756560Y-108773368D01*
X121736799Y-108765162D01*
X121364833Y-108764838D01*
X121021057Y-108906883D01*
X120916552Y-109011206D01*
X120542370Y-108636371D01*
X120334488Y-108550051D01*
X120540303Y-108465010D01*
X120933629Y-108072370D01*
X121146757Y-107559100D01*
X121147242Y-107003339D01*
X120935010Y-106489697D01*
X120542370Y-106096371D01*
X120334488Y-106010051D01*
X120540303Y-105925010D01*
X120933629Y-105532370D01*
X121146757Y-105019100D01*
X121146849Y-104914082D01*
X121358110Y-105058431D01*
X121610000Y-105109440D01*
X125610000Y-105109440D01*
X125845317Y-105065162D01*
X126061441Y-104926090D01*
X126206431Y-104713890D01*
X126257440Y-104462000D01*
X126257440Y-102938000D01*
X126213162Y-102702683D01*
X126074090Y-102486559D01*
X125861890Y-102341569D01*
X125610000Y-102290560D01*
X121610000Y-102290560D01*
X121374683Y-102334838D01*
X121158559Y-102473910D01*
X121133967Y-102509901D01*
X121146757Y-102479100D01*
X121147242Y-101923339D01*
X120935010Y-101409697D01*
X120542370Y-101016371D01*
X120334488Y-100930051D01*
X120540303Y-100845010D01*
X120933629Y-100452370D01*
X120962560Y-100382696D01*
X120962560Y-100398000D01*
G36*
X125673300Y-66277500D02*
X125693300Y-66277500D01*
X125693300Y-66531500D01*
X125673300Y-66531500D01*
X125673300Y-68976250D01*
X125832050Y-69135000D01*
X126307609Y-69135000D01*
X126540998Y-69038327D01*
X126719627Y-68859699D01*
X126816300Y-68626310D01*
X126816300Y-68391102D01*
X127840000Y-69414802D01*
X127840000Y-76100000D01*
X127897852Y-76390839D01*
X128062599Y-76637401D01*
X128940000Y-77514802D01*
X128940000Y-84800000D01*
X128997852Y-85090839D01*
X129040000Y-85153918D01*
X129040000Y-97385198D01*
X128460320Y-97964878D01*
X128414833Y-97964838D01*
X128071057Y-98106883D01*
X127807808Y-98369673D01*
X127789226Y-98414424D01*
X125974705Y-96599903D01*
X126061441Y-96544090D01*
X126206431Y-96331890D01*
X126257440Y-96080000D01*
X126257440Y-94556000D01*
X126213162Y-94320683D01*
X126074090Y-94104559D01*
X125861890Y-93959569D01*
X125610000Y-93908560D01*
X125598897Y-93908560D01*
X125659838Y-93761799D01*
X125660162Y-93389833D01*
X125518117Y-93046057D01*
X125255327Y-92782808D01*
X124911799Y-92640162D01*
X124853746Y-92640111D01*
X124640839Y-92497852D01*
X124350000Y-92440000D01*
X121937463Y-92440000D01*
X121918000Y-92420503D01*
X121918000Y-92155440D01*
X125610000Y-92155440D01*
X125845317Y-92111162D01*
X126061441Y-91972090D01*
X126206431Y-91759890D01*
X126257440Y-91508000D01*
X126257440Y-89984000D01*
X126213162Y-89748683D01*
X126074090Y-89532559D01*
X125861890Y-89387569D01*
X125610000Y-89336560D01*
X121918000Y-89336560D01*
X121918000Y-87837440D01*
X125610000Y-87837440D01*
X125845317Y-87793162D01*
X126061441Y-87654090D01*
X126206431Y-87441890D01*
X126257440Y-87190000D01*
X126257440Y-85666000D01*
X126232817Y-85535138D01*
X126260167Y-85535162D01*
X126603943Y-85393117D01*
X126867192Y-85130327D01*
X127009838Y-84786799D01*
X127010162Y-84414833D01*
X126868117Y-84071057D01*
X126605327Y-83807808D01*
X126261799Y-83665162D01*
X125889833Y-83664838D01*
X125546057Y-83806883D01*
X125512882Y-83840000D01*
X124824901Y-83840000D01*
X124693117Y-83521057D01*
X124691503Y-83519440D01*
X125610000Y-83519440D01*
X125845317Y-83475162D01*
X126061441Y-83336090D01*
X126206431Y-83123890D01*
X126241561Y-82950412D01*
X126305201Y-82976838D01*
X126677167Y-82977162D01*
X127020943Y-82835117D01*
X127284192Y-82572327D01*
X127426838Y-82228799D01*
X127427162Y-81856833D01*
X127285117Y-81513057D01*
X127022327Y-81249808D01*
X126998000Y-81239706D01*
X126998000Y-80572463D01*
X127030192Y-80540327D01*
X127172838Y-80196799D01*
X127173162Y-79824833D01*
X127031117Y-79481057D01*
X126768327Y-79217808D01*
X126424799Y-79075162D01*
X126052833Y-79074838D01*
X125709057Y-79216883D01*
X125445808Y-79479673D01*
X125303162Y-79823201D01*
X125302838Y-80195167D01*
X125444883Y-80538943D01*
X125478000Y-80572118D01*
X125478000Y-80700560D01*
X121918000Y-80700560D01*
X121918000Y-79201440D01*
X125610000Y-79201440D01*
X125845317Y-79157162D01*
X126061441Y-79018090D01*
X126206431Y-78805890D01*
X126257440Y-78554000D01*
X126257440Y-77030000D01*
X126213162Y-76794683D01*
X126074090Y-76578559D01*
X125861890Y-76433569D01*
X125610000Y-76382560D01*
X124645000Y-76382560D01*
X124645000Y-76140730D01*
X124669910Y-76179441D01*
X124882110Y-76324431D01*
X125134000Y-76375440D01*
X126658000Y-76375440D01*
X126893317Y-76331162D01*
X127109441Y-76192090D01*
X127254431Y-75979890D01*
X127305440Y-75728000D01*
X127305440Y-71728000D01*
X127261162Y-71492683D01*
X127122090Y-71276559D01*
X126909890Y-71131569D01*
X126658000Y-71080560D01*
X125134000Y-71080560D01*
X124898683Y-71124838D01*
X124682559Y-71263910D01*
X124645000Y-71318879D01*
X124645000Y-69077014D01*
X124784991Y-69135000D01*
X125260550Y-69135000D01*
X125419300Y-68976250D01*
X125419300Y-66531500D01*
X125399300Y-66531500D01*
X125399300Y-66277500D01*
X125419300Y-66277500D01*
X125419300Y-66257500D01*
X125673300Y-66257500D01*
X125673300Y-66277500D01*
X125673300Y-66277500D01*
G37*
X125673300Y-66277500D02*
X125693300Y-66277500D01*
X125693300Y-66531500D01*
X125673300Y-66531500D01*
X125673300Y-68976250D01*
X125832050Y-69135000D01*
X126307609Y-69135000D01*
X126540998Y-69038327D01*
X126719627Y-68859699D01*
X126816300Y-68626310D01*
X126816300Y-68391102D01*
X127840000Y-69414802D01*
X127840000Y-76100000D01*
X127897852Y-76390839D01*
X128062599Y-76637401D01*
X128940000Y-77514802D01*
X128940000Y-84800000D01*
X128997852Y-85090839D01*
X129040000Y-85153918D01*
X129040000Y-97385198D01*
X128460320Y-97964878D01*
X128414833Y-97964838D01*
X128071057Y-98106883D01*
X127807808Y-98369673D01*
X127789226Y-98414424D01*
X125974705Y-96599903D01*
X126061441Y-96544090D01*
X126206431Y-96331890D01*
X126257440Y-96080000D01*
X126257440Y-94556000D01*
X126213162Y-94320683D01*
X126074090Y-94104559D01*
X125861890Y-93959569D01*
X125610000Y-93908560D01*
X125598897Y-93908560D01*
X125659838Y-93761799D01*
X125660162Y-93389833D01*
X125518117Y-93046057D01*
X125255327Y-92782808D01*
X124911799Y-92640162D01*
X124853746Y-92640111D01*
X124640839Y-92497852D01*
X124350000Y-92440000D01*
X121937463Y-92440000D01*
X121918000Y-92420503D01*
X121918000Y-92155440D01*
X125610000Y-92155440D01*
X125845317Y-92111162D01*
X126061441Y-91972090D01*
X126206431Y-91759890D01*
X126257440Y-91508000D01*
X126257440Y-89984000D01*
X126213162Y-89748683D01*
X126074090Y-89532559D01*
X125861890Y-89387569D01*
X125610000Y-89336560D01*
X121918000Y-89336560D01*
X121918000Y-87837440D01*
X125610000Y-87837440D01*
X125845317Y-87793162D01*
X126061441Y-87654090D01*
X126206431Y-87441890D01*
X126257440Y-87190000D01*
X126257440Y-85666000D01*
X126232817Y-85535138D01*
X126260167Y-85535162D01*
X126603943Y-85393117D01*
X126867192Y-85130327D01*
X127009838Y-84786799D01*
X127010162Y-84414833D01*
X126868117Y-84071057D01*
X126605327Y-83807808D01*
X126261799Y-83665162D01*
X125889833Y-83664838D01*
X125546057Y-83806883D01*
X125512882Y-83840000D01*
X124824901Y-83840000D01*
X124693117Y-83521057D01*
X124691503Y-83519440D01*
X125610000Y-83519440D01*
X125845317Y-83475162D01*
X126061441Y-83336090D01*
X126206431Y-83123890D01*
X126241561Y-82950412D01*
X126305201Y-82976838D01*
X126677167Y-82977162D01*
X127020943Y-82835117D01*
X127284192Y-82572327D01*
X127426838Y-82228799D01*
X127427162Y-81856833D01*
X127285117Y-81513057D01*
X127022327Y-81249808D01*
X126998000Y-81239706D01*
X126998000Y-80572463D01*
X127030192Y-80540327D01*
X127172838Y-80196799D01*
X127173162Y-79824833D01*
X127031117Y-79481057D01*
X126768327Y-79217808D01*
X126424799Y-79075162D01*
X126052833Y-79074838D01*
X125709057Y-79216883D01*
X125445808Y-79479673D01*
X125303162Y-79823201D01*
X125302838Y-80195167D01*
X125444883Y-80538943D01*
X125478000Y-80572118D01*
X125478000Y-80700560D01*
X121918000Y-80700560D01*
X121918000Y-79201440D01*
X125610000Y-79201440D01*
X125845317Y-79157162D01*
X126061441Y-79018090D01*
X126206431Y-78805890D01*
X126257440Y-78554000D01*
X126257440Y-77030000D01*
X126213162Y-76794683D01*
X126074090Y-76578559D01*
X125861890Y-76433569D01*
X125610000Y-76382560D01*
X124645000Y-76382560D01*
X124645000Y-76140730D01*
X124669910Y-76179441D01*
X124882110Y-76324431D01*
X125134000Y-76375440D01*
X126658000Y-76375440D01*
X126893317Y-76331162D01*
X127109441Y-76192090D01*
X127254431Y-75979890D01*
X127305440Y-75728000D01*
X127305440Y-71728000D01*
X127261162Y-71492683D01*
X127122090Y-71276559D01*
X126909890Y-71131569D01*
X126658000Y-71080560D01*
X125134000Y-71080560D01*
X124898683Y-71124838D01*
X124682559Y-71263910D01*
X124645000Y-71318879D01*
X124645000Y-69077014D01*
X124784991Y-69135000D01*
X125260550Y-69135000D01*
X125419300Y-68976250D01*
X125419300Y-66531500D01*
X125399300Y-66531500D01*
X125399300Y-66277500D01*
X125419300Y-66277500D01*
X125419300Y-66257500D01*
X125673300Y-66257500D01*
X125673300Y-66277500D01*
G36*
X119983700Y-66118750D02*
X120142450Y-66277500D01*
X121126700Y-66277500D01*
X121126700Y-66257500D01*
X121380700Y-66257500D01*
X121380700Y-66277500D01*
X121400700Y-66277500D01*
X121400700Y-66531500D01*
X121380700Y-66531500D01*
X121380700Y-68976250D01*
X121539450Y-69135000D01*
X122015009Y-69135000D01*
X122248398Y-69038327D01*
X122321331Y-68965394D01*
X122513110Y-69096431D01*
X122575000Y-69108964D01*
X122575000Y-70439127D01*
X122567923Y-70439121D01*
X122346901Y-70218099D01*
X122347162Y-69918833D01*
X122205117Y-69575057D01*
X121942327Y-69311808D01*
X121598799Y-69169162D01*
X121226833Y-69168838D01*
X120883057Y-69310883D01*
X120619808Y-69573673D01*
X120477162Y-69917201D01*
X120476838Y-70289167D01*
X120618883Y-70632943D01*
X120861878Y-70876362D01*
X120874599Y-70895401D01*
X121492878Y-71513680D01*
X121492838Y-71559167D01*
X121634883Y-71902943D01*
X121897673Y-72166192D01*
X122241201Y-72308838D01*
X122575000Y-72309129D01*
X122575000Y-76382560D01*
X121610000Y-76382560D01*
X121374683Y-76426838D01*
X121262091Y-76499289D01*
X120569122Y-75806320D01*
X120569162Y-75760833D01*
X120427117Y-75417057D01*
X120164327Y-75153808D01*
X119820799Y-75011162D01*
X119448833Y-75010838D01*
X119105057Y-75152883D01*
X118841808Y-75415673D01*
X118699162Y-75759201D01*
X118698838Y-76131167D01*
X118840883Y-76474943D01*
X119103673Y-76738192D01*
X119447201Y-76880838D01*
X119494077Y-76880879D01*
X120398000Y-77784802D01*
X120398000Y-92141198D01*
X118557198Y-93982000D01*
X118110000Y-93982000D01*
X117867414Y-94030254D01*
X117819160Y-94039852D01*
X117572599Y-94204599D01*
X116710000Y-95067198D01*
X116710000Y-67128452D01*
X116800442Y-67188883D01*
X117500000Y-67328034D01*
X118199558Y-67188883D01*
X118792615Y-66792615D01*
X118861013Y-66690250D01*
X119983700Y-66690250D01*
X119983700Y-68626310D01*
X120080373Y-68859699D01*
X120259002Y-69038327D01*
X120492391Y-69135000D01*
X120967950Y-69135000D01*
X121126700Y-68976250D01*
X121126700Y-66531500D01*
X120142450Y-66531500D01*
X119983700Y-66690250D01*
X118861013Y-66690250D01*
X119188883Y-66199558D01*
X119328034Y-65500000D01*
X119188883Y-64800442D01*
X119128452Y-64710000D01*
X119983700Y-64710000D01*
X119983700Y-66118750D01*
X119983700Y-66118750D01*
G37*
X119983700Y-66118750D02*
X120142450Y-66277500D01*
X121126700Y-66277500D01*
X121126700Y-66257500D01*
X121380700Y-66257500D01*
X121380700Y-66277500D01*
X121400700Y-66277500D01*
X121400700Y-66531500D01*
X121380700Y-66531500D01*
X121380700Y-68976250D01*
X121539450Y-69135000D01*
X122015009Y-69135000D01*
X122248398Y-69038327D01*
X122321331Y-68965394D01*
X122513110Y-69096431D01*
X122575000Y-69108964D01*
X122575000Y-70439127D01*
X122567923Y-70439121D01*
X122346901Y-70218099D01*
X122347162Y-69918833D01*
X122205117Y-69575057D01*
X121942327Y-69311808D01*
X121598799Y-69169162D01*
X121226833Y-69168838D01*
X120883057Y-69310883D01*
X120619808Y-69573673D01*
X120477162Y-69917201D01*
X120476838Y-70289167D01*
X120618883Y-70632943D01*
X120861878Y-70876362D01*
X120874599Y-70895401D01*
X121492878Y-71513680D01*
X121492838Y-71559167D01*
X121634883Y-71902943D01*
X121897673Y-72166192D01*
X122241201Y-72308838D01*
X122575000Y-72309129D01*
X122575000Y-76382560D01*
X121610000Y-76382560D01*
X121374683Y-76426838D01*
X121262091Y-76499289D01*
X120569122Y-75806320D01*
X120569162Y-75760833D01*
X120427117Y-75417057D01*
X120164327Y-75153808D01*
X119820799Y-75011162D01*
X119448833Y-75010838D01*
X119105057Y-75152883D01*
X118841808Y-75415673D01*
X118699162Y-75759201D01*
X118698838Y-76131167D01*
X118840883Y-76474943D01*
X119103673Y-76738192D01*
X119447201Y-76880838D01*
X119494077Y-76880879D01*
X120398000Y-77784802D01*
X120398000Y-92141198D01*
X118557198Y-93982000D01*
X118110000Y-93982000D01*
X117867414Y-94030254D01*
X117819160Y-94039852D01*
X117572599Y-94204599D01*
X116710000Y-95067198D01*
X116710000Y-67128452D01*
X116800442Y-67188883D01*
X117500000Y-67328034D01*
X118199558Y-67188883D01*
X118792615Y-66792615D01*
X118861013Y-66690250D01*
X119983700Y-66690250D01*
X119983700Y-68626310D01*
X120080373Y-68859699D01*
X120259002Y-69038327D01*
X120492391Y-69135000D01*
X120967950Y-69135000D01*
X121126700Y-68976250D01*
X121126700Y-66531500D01*
X120142450Y-66531500D01*
X119983700Y-66690250D01*
X118861013Y-66690250D01*
X119188883Y-66199558D01*
X119328034Y-65500000D01*
X119188883Y-64800442D01*
X119128452Y-64710000D01*
X119983700Y-64710000D01*
X119983700Y-66118750D01*
G36*
X129095748Y-66085858D02*
X129081605Y-66100000D01*
X129882213Y-66900608D01*
X130124397Y-66831143D01*
X130174509Y-66690682D01*
X130256990Y-66890303D01*
X130649630Y-67283629D01*
X131162900Y-67496757D01*
X131718661Y-67497242D01*
X132232303Y-67285010D01*
X132625629Y-66892370D01*
X132711949Y-66684488D01*
X132796990Y-66890303D01*
X133189630Y-67283629D01*
X133702900Y-67496757D01*
X134258661Y-67497242D01*
X134772303Y-67285010D01*
X135165629Y-66892370D01*
X135251949Y-66684488D01*
X135336990Y-66890303D01*
X135729630Y-67283629D01*
X136242900Y-67496757D01*
X136798661Y-67497242D01*
X137312303Y-67285010D01*
X137633082Y-66964790D01*
X137909946Y-67379147D01*
X138391715Y-67701054D01*
X138960000Y-67814093D01*
X139528285Y-67701054D01*
X140010054Y-67379147D01*
X140037850Y-67337548D01*
X140046838Y-67385317D01*
X140185910Y-67601441D01*
X140398110Y-67746431D01*
X140650000Y-67797440D01*
X140740000Y-67797440D01*
X140740000Y-70100000D01*
X140797852Y-70390839D01*
X140962599Y-70637401D01*
X142065198Y-71740000D01*
X140767440Y-71740000D01*
X140767440Y-71728000D01*
X140723162Y-71492683D01*
X140584090Y-71276559D01*
X140371890Y-71131569D01*
X140120000Y-71080560D01*
X138596000Y-71080560D01*
X138360683Y-71124838D01*
X138144559Y-71263910D01*
X137999569Y-71476110D01*
X137948560Y-71728000D01*
X137948560Y-74776638D01*
X130662599Y-82062599D01*
X130497852Y-82309161D01*
X130460000Y-82499454D01*
X130460000Y-77200000D01*
X130402148Y-76909161D01*
X130237401Y-76662599D01*
X129937802Y-76363000D01*
X130182250Y-76363000D01*
X130341000Y-76204250D01*
X130341000Y-73855000D01*
X130595000Y-73855000D01*
X130595000Y-76204250D01*
X130753750Y-76363000D01*
X131356310Y-76363000D01*
X131589699Y-76266327D01*
X131768327Y-76087698D01*
X131865000Y-75854309D01*
X131865000Y-74013750D01*
X133389000Y-74013750D01*
X133389000Y-75854309D01*
X133485673Y-76087698D01*
X133664301Y-76266327D01*
X133897690Y-76363000D01*
X134500250Y-76363000D01*
X134659000Y-76204250D01*
X134659000Y-73855000D01*
X134913000Y-73855000D01*
X134913000Y-76204250D01*
X135071750Y-76363000D01*
X135674310Y-76363000D01*
X135907699Y-76266327D01*
X136086327Y-76087698D01*
X136183000Y-75854309D01*
X136183000Y-74013750D01*
X136024250Y-73855000D01*
X134913000Y-73855000D01*
X134659000Y-73855000D01*
X133547750Y-73855000D01*
X133389000Y-74013750D01*
X131865000Y-74013750D01*
X131706250Y-73855000D01*
X130595000Y-73855000D01*
X130341000Y-73855000D01*
X130321000Y-73855000D01*
X130321000Y-73601000D01*
X130341000Y-73601000D01*
X130341000Y-71251750D01*
X130595000Y-71251750D01*
X130595000Y-73601000D01*
X131706250Y-73601000D01*
X131865000Y-73442250D01*
X131865000Y-71601691D01*
X133389000Y-71601691D01*
X133389000Y-73442250D01*
X133547750Y-73601000D01*
X134659000Y-73601000D01*
X134659000Y-71251750D01*
X134913000Y-71251750D01*
X134913000Y-73601000D01*
X136024250Y-73601000D01*
X136183000Y-73442250D01*
X136183000Y-71601691D01*
X136086327Y-71368302D01*
X135907699Y-71189673D01*
X135674310Y-71093000D01*
X135071750Y-71093000D01*
X134913000Y-71251750D01*
X134659000Y-71251750D01*
X134500250Y-71093000D01*
X133897690Y-71093000D01*
X133664301Y-71189673D01*
X133485673Y-71368302D01*
X133389000Y-71601691D01*
X131865000Y-71601691D01*
X131768327Y-71368302D01*
X131589699Y-71189673D01*
X131356310Y-71093000D01*
X130753750Y-71093000D01*
X130595000Y-71251750D01*
X130341000Y-71251750D01*
X130182250Y-71093000D01*
X129579690Y-71093000D01*
X129360000Y-71183999D01*
X129360000Y-69100000D01*
X129302148Y-68809161D01*
X129137401Y-68562599D01*
X127960000Y-67385198D01*
X127960000Y-67168844D01*
X127986382Y-67195226D01*
X128101393Y-67080215D01*
X128170857Y-67322397D01*
X128694302Y-67509144D01*
X129249368Y-67481362D01*
X129633143Y-67322397D01*
X129702608Y-67080213D01*
X128902000Y-66279605D01*
X128887858Y-66293748D01*
X128708253Y-66114143D01*
X128722395Y-66100000D01*
X128708253Y-66085858D01*
X128887858Y-65906253D01*
X128902000Y-65920395D01*
X128916143Y-65906253D01*
X129095748Y-66085858D01*
X129095748Y-66085858D01*
G37*
X129095748Y-66085858D02*
X129081605Y-66100000D01*
X129882213Y-66900608D01*
X130124397Y-66831143D01*
X130174509Y-66690682D01*
X130256990Y-66890303D01*
X130649630Y-67283629D01*
X131162900Y-67496757D01*
X131718661Y-67497242D01*
X132232303Y-67285010D01*
X132625629Y-66892370D01*
X132711949Y-66684488D01*
X132796990Y-66890303D01*
X133189630Y-67283629D01*
X133702900Y-67496757D01*
X134258661Y-67497242D01*
X134772303Y-67285010D01*
X135165629Y-66892370D01*
X135251949Y-66684488D01*
X135336990Y-66890303D01*
X135729630Y-67283629D01*
X136242900Y-67496757D01*
X136798661Y-67497242D01*
X137312303Y-67285010D01*
X137633082Y-66964790D01*
X137909946Y-67379147D01*
X138391715Y-67701054D01*
X138960000Y-67814093D01*
X139528285Y-67701054D01*
X140010054Y-67379147D01*
X140037850Y-67337548D01*
X140046838Y-67385317D01*
X140185910Y-67601441D01*
X140398110Y-67746431D01*
X140650000Y-67797440D01*
X140740000Y-67797440D01*
X140740000Y-70100000D01*
X140797852Y-70390839D01*
X140962599Y-70637401D01*
X142065198Y-71740000D01*
X140767440Y-71740000D01*
X140767440Y-71728000D01*
X140723162Y-71492683D01*
X140584090Y-71276559D01*
X140371890Y-71131569D01*
X140120000Y-71080560D01*
X138596000Y-71080560D01*
X138360683Y-71124838D01*
X138144559Y-71263910D01*
X137999569Y-71476110D01*
X137948560Y-71728000D01*
X137948560Y-74776638D01*
X130662599Y-82062599D01*
X130497852Y-82309161D01*
X130460000Y-82499454D01*
X130460000Y-77200000D01*
X130402148Y-76909161D01*
X130237401Y-76662599D01*
X129937802Y-76363000D01*
X130182250Y-76363000D01*
X130341000Y-76204250D01*
X130341000Y-73855000D01*
X130595000Y-73855000D01*
X130595000Y-76204250D01*
X130753750Y-76363000D01*
X131356310Y-76363000D01*
X131589699Y-76266327D01*
X131768327Y-76087698D01*
X131865000Y-75854309D01*
X131865000Y-74013750D01*
X133389000Y-74013750D01*
X133389000Y-75854309D01*
X133485673Y-76087698D01*
X133664301Y-76266327D01*
X133897690Y-76363000D01*
X134500250Y-76363000D01*
X134659000Y-76204250D01*
X134659000Y-73855000D01*
X134913000Y-73855000D01*
X134913000Y-76204250D01*
X135071750Y-76363000D01*
X135674310Y-76363000D01*
X135907699Y-76266327D01*
X136086327Y-76087698D01*
X136183000Y-75854309D01*
X136183000Y-74013750D01*
X136024250Y-73855000D01*
X134913000Y-73855000D01*
X134659000Y-73855000D01*
X133547750Y-73855000D01*
X133389000Y-74013750D01*
X131865000Y-74013750D01*
X131706250Y-73855000D01*
X130595000Y-73855000D01*
X130341000Y-73855000D01*
X130321000Y-73855000D01*
X130321000Y-73601000D01*
X130341000Y-73601000D01*
X130341000Y-71251750D01*
X130595000Y-71251750D01*
X130595000Y-73601000D01*
X131706250Y-73601000D01*
X131865000Y-73442250D01*
X131865000Y-71601691D01*
X133389000Y-71601691D01*
X133389000Y-73442250D01*
X133547750Y-73601000D01*
X134659000Y-73601000D01*
X134659000Y-71251750D01*
X134913000Y-71251750D01*
X134913000Y-73601000D01*
X136024250Y-73601000D01*
X136183000Y-73442250D01*
X136183000Y-71601691D01*
X136086327Y-71368302D01*
X135907699Y-71189673D01*
X135674310Y-71093000D01*
X135071750Y-71093000D01*
X134913000Y-71251750D01*
X134659000Y-71251750D01*
X134500250Y-71093000D01*
X133897690Y-71093000D01*
X133664301Y-71189673D01*
X133485673Y-71368302D01*
X133389000Y-71601691D01*
X131865000Y-71601691D01*
X131768327Y-71368302D01*
X131589699Y-71189673D01*
X131356310Y-71093000D01*
X130753750Y-71093000D01*
X130595000Y-71251750D01*
X130341000Y-71251750D01*
X130182250Y-71093000D01*
X129579690Y-71093000D01*
X129360000Y-71183999D01*
X129360000Y-69100000D01*
X129302148Y-68809161D01*
X129137401Y-68562599D01*
X127960000Y-67385198D01*
X127960000Y-67168844D01*
X127986382Y-67195226D01*
X128101393Y-67080215D01*
X128170857Y-67322397D01*
X128694302Y-67509144D01*
X129249368Y-67481362D01*
X129633143Y-67322397D01*
X129702608Y-67080213D01*
X128902000Y-66279605D01*
X128887858Y-66293748D01*
X128708253Y-66114143D01*
X128722395Y-66100000D01*
X128708253Y-66085858D01*
X128887858Y-65906253D01*
X128902000Y-65920395D01*
X128916143Y-65906253D01*
X129095748Y-66085858D01*
M02*
