G04 #@! TF.FileFunction,Soldermask,Top*
%FSLAX46Y46*%
G04 Gerber Fmt 4.6, Leading zero omitted, Abs format (unit mm)*
G04 Created by KiCad (PCBNEW 4.0.4-stable) date 08/15/17 20:15:12*
%MOMM*%
%LPD*%
G01*
G04 APERTURE LIST*
%ADD10C,0.100000*%
%ADD11R,2.400000X2.000000*%
%ADD12R,2.400000X2.100000*%
%ADD13C,1.924000*%
%ADD14C,1.160000*%
%ADD15R,2.100000X2.400000*%
%ADD16C,1.300000*%
%ADD17R,3.200000X3.200000*%
%ADD18R,2.000000X2.400000*%
%ADD19R,2.100000X1.300000*%
%ADD20R,1.150000X0.800000*%
%ADD21R,2.100000X2.100000*%
%ADD22O,2.100000X2.100000*%
%ADD23R,1.000000X1.950000*%
G04 APERTURE END LIST*
D10*
D11*
X129000000Y-146000000D03*
X125000000Y-146000000D03*
X131750000Y-146000000D03*
X135750000Y-146000000D03*
X125000000Y-142000000D03*
X129000000Y-142000000D03*
D12*
X130000000Y-149000000D03*
X134000000Y-149000000D03*
D13*
X128902000Y-66100000D03*
X131442000Y-66100000D03*
X133982000Y-66100000D03*
X136522000Y-66100000D03*
D14*
X143800000Y-148750000D03*
X145200000Y-148750000D03*
D12*
X132000000Y-142000000D03*
X136000000Y-142000000D03*
D15*
X123250000Y-113250000D03*
X123250000Y-117250000D03*
X139250000Y-145500000D03*
X139250000Y-141500000D03*
D13*
X140750000Y-117500000D03*
X140750000Y-114500000D03*
D16*
X145330000Y-138250000D03*
X145330000Y-141250000D03*
X145330000Y-70250000D03*
X145330000Y-73250000D03*
D13*
X119750000Y-97120000D03*
X119750000Y-99660000D03*
X119750000Y-102200000D03*
X119750000Y-104740000D03*
X119750000Y-107280000D03*
X119750000Y-109820000D03*
X119750000Y-112360000D03*
X119750000Y-114900000D03*
X119750000Y-117440000D03*
X119750000Y-119980000D03*
X119750000Y-122520000D03*
X119750000Y-125060000D03*
X119750000Y-127600000D03*
X119750000Y-130140000D03*
X119750000Y-132680000D03*
X145150000Y-97120000D03*
X145150000Y-99660000D03*
X145150000Y-102200000D03*
X145150000Y-104740000D03*
X145150000Y-107280000D03*
X145150000Y-109820000D03*
X145150000Y-112360000D03*
X145150000Y-114900000D03*
X145150000Y-117440000D03*
X145150000Y-119980000D03*
X145150000Y-122520000D03*
X145150000Y-125060000D03*
X145150000Y-127600000D03*
X145150000Y-130140000D03*
X145150000Y-132680000D03*
D17*
X128200000Y-125900000D03*
X135800000Y-125900000D03*
X124800000Y-125900000D03*
X139300000Y-125900000D03*
X125100000Y-148800000D03*
X139300000Y-148800000D03*
D12*
X129000000Y-138900000D03*
X125000000Y-138900000D03*
X132800000Y-138800000D03*
X136800000Y-138800000D03*
D11*
X120400000Y-153400000D03*
X124400000Y-153400000D03*
D18*
X137200000Y-97800000D03*
X137200000Y-93800000D03*
D15*
X128270000Y-83026000D03*
X128270000Y-79026000D03*
D12*
X131540000Y-110744000D03*
X127540000Y-110744000D03*
D15*
X128524000Y-93186000D03*
X128524000Y-89186000D03*
D12*
X132556000Y-118364000D03*
X128556000Y-118364000D03*
D19*
X117400000Y-80700000D03*
X117400000Y-77300000D03*
X117600000Y-75700000D03*
X117600000Y-72300000D03*
X117600000Y-67700000D03*
X117600000Y-71100000D03*
X117600000Y-91300000D03*
X117600000Y-87900000D03*
X117600000Y-82900000D03*
X117600000Y-86300000D03*
D20*
X135956000Y-112522000D03*
X137856000Y-113172000D03*
X137856000Y-111872000D03*
X137856000Y-112522000D03*
X135956000Y-111872000D03*
X135956000Y-113172000D03*
D21*
X141500000Y-66300000D03*
D22*
X138960000Y-66300000D03*
D23*
X117595000Y-149800000D03*
X118865000Y-149800000D03*
X120135000Y-149800000D03*
X121405000Y-149800000D03*
X121405000Y-144400000D03*
X120135000Y-144400000D03*
X118865000Y-144400000D03*
X117595000Y-144400000D03*
D12*
X139000000Y-151900000D03*
X143000000Y-151900000D03*
X130500000Y-134500000D03*
X134500000Y-134500000D03*
M02*
