M48
;DRILL file {KiCad 4.0.4-stable} date 08/15/17 20:15:20
;FORMAT={3:3/ absolute / metric / suppress leading zeros}
FMAT,2
METRIC,TZ
T1C0.400
T2C0.762
T3C1.000
T4C1.540
%
G90
G05
M71
T1
X116500Y-84825
X116725Y-78650
X117300Y-142700
X117700Y-104000
X117700Y-140400
X117800Y-150800
X118110Y-111252
X118110Y-117856
X119100Y-134500
X119634Y-75946
X120000Y-142600
X120300Y-148000
X120400Y-141900
X121000Y-147200
X121375Y-93200
X121412Y-70104
X121475Y-111825
X121550Y-109700
X122100Y-131000
X122428Y-71374
X122500Y-133900
X122600Y-154200
X122800Y-143000
X123000Y-140100
X123000Y-145500
X123525Y-110025
X123900Y-84050
X124725Y-93575
X124850Y-114175
X125100Y-143600
X126075Y-84600
X126238Y-80010
X126492Y-82042
X126825Y-145475
X127500Y-115700
X127850Y-144325
X128600Y-98900
X129300Y-104150
X129300Y-122800
X129600Y-100900
X129600Y-103000
X130300Y-126400
X130500Y-147400
X131850Y-129500
X131875Y-99850
X132150Y-112225
X132200Y-101000
X132200Y-143600
X132200Y-148900
X132325Y-104300
X132400Y-108200
X132500Y-102800
X132500Y-115700
X132700Y-127450
X132950Y-113575
X133000Y-122200
X133096Y-85090
X133200Y-97300
X133500Y-145775
X134000Y-141900
X134800Y-138800
X135100Y-102300
X135100Y-144000
X137075Y-120575
X137275Y-117050
X137400Y-103900
X137425Y-102775
X137700Y-140800
X137800Y-141600
X137825Y-100225
X138000Y-104600
X138400Y-134400
X138725Y-115300
X138950Y-122650
X138975Y-116825
X139275Y-112150
X139300Y-119050
X140500Y-129000
X140970Y-93980
X140970Y-101854
X141050Y-119550
X141100Y-121100
X141800Y-127700
X141800Y-141400
X141800Y-145500
X141800Y-148300
X142600Y-132800
X142700Y-138800
X142800Y-135800
X143100Y-118800
X143400Y-129800
X143800Y-148750
X145200Y-148750
X145900Y-82100
X146000Y-139400
X146400Y-134300
T2
X119750Y-97120
X119750Y-99660
X119750Y-102200
X119750Y-104740
X119750Y-107280
X119750Y-109820
X119750Y-112360
X119750Y-114900
X119750Y-117440
X119750Y-119980
X119750Y-122520
X119750Y-125060
X119750Y-127600
X119750Y-130140
X119750Y-132680
X128902Y-66100
X131442Y-66100
X133982Y-66100
X136522Y-66100
X140750Y-114500
X140750Y-117500
X145150Y-97120
X145150Y-99660
X145150Y-102200
X145150Y-104740
X145150Y-107280
X145150Y-109820
X145150Y-112360
X145150Y-114900
X145150Y-117440
X145150Y-119980
X145150Y-122520
X145150Y-125060
X145150Y-127600
X145150Y-130140
X145150Y-132680
T3
X138960Y-66300
X141500Y-66300
T4
X124800Y-125900
X125100Y-148800
X128200Y-125900
X135800Y-125900
X139300Y-125900
X139300Y-148800
T0
M30
