G04 #@! TF.FileFunction,Soldermask,Bot*
%FSLAX46Y46*%
G04 Gerber Fmt 4.6, Leading zero omitted, Abs format (unit mm)*
G04 Created by KiCad (PCBNEW 4.0.4-stable) date 08/15/17 20:15:11*
%MOMM*%
%LPD*%
G01*
G04 APERTURE LIST*
%ADD10C,0.100000*%
%ADD11R,1.670000X4.591000*%
%ADD12R,1.670000X4.083000*%
%ADD13R,2.000000X2.400000*%
%ADD14R,4.400000X1.924000*%
%ADD15R,1.924000X4.400000*%
%ADD16R,8.400000X3.400000*%
%ADD17C,1.924000*%
%ADD18C,1.160000*%
%ADD19R,2.400000X2.100000*%
%ADD20C,1.300000*%
%ADD21R,1.900000X1.100000*%
%ADD22R,1.200000X1.400000*%
%ADD23R,3.200000X3.200000*%
%ADD24R,2.100000X2.100000*%
%ADD25O,2.100000X2.100000*%
G04 APERTURE END LIST*
D10*
D11*
X125546300Y-66404500D03*
X121253700Y-66404500D03*
D12*
X123400000Y-66658500D03*
D11*
X125546300Y-66404500D03*
X121253700Y-66404500D03*
D13*
X121500000Y-140500000D03*
X121500000Y-136500000D03*
X119250000Y-140500000D03*
X119250000Y-136500000D03*
D14*
X141136000Y-103700000D03*
X141136000Y-99636000D03*
X141136000Y-95318000D03*
X141136000Y-77792000D03*
X141136000Y-90746000D03*
X141136000Y-86428000D03*
X141136000Y-82110000D03*
X123610000Y-103700000D03*
X123610000Y-99636000D03*
X123610000Y-95318000D03*
X123610000Y-90746000D03*
X123610000Y-86428000D03*
X123610000Y-82110000D03*
X123610000Y-77792000D03*
D15*
X139358000Y-73728000D03*
X134786000Y-73728000D03*
X130468000Y-73728000D03*
X125896000Y-73728000D03*
D16*
X138342000Y-108018000D03*
X126404000Y-107764000D03*
D17*
X128902000Y-66100000D03*
X131442000Y-66100000D03*
X133982000Y-66100000D03*
X136522000Y-66100000D03*
D18*
X143800000Y-148750000D03*
X145200000Y-148750000D03*
D19*
X127250000Y-123000000D03*
X131250000Y-123000000D03*
D17*
X140750000Y-117500000D03*
X140750000Y-114500000D03*
D20*
X145330000Y-138250000D03*
X145330000Y-141250000D03*
D21*
X143570000Y-137500000D03*
X143570000Y-140500000D03*
X143570000Y-142000000D03*
D22*
X146430000Y-136100000D03*
X146430000Y-143400000D03*
X144220000Y-143400000D03*
X144220000Y-136100000D03*
D20*
X145330000Y-70250000D03*
X145330000Y-73250000D03*
D21*
X143570000Y-69500000D03*
X143570000Y-72500000D03*
X143570000Y-74000000D03*
D22*
X146430000Y-68100000D03*
X146430000Y-75400000D03*
X144220000Y-75400000D03*
X144220000Y-68100000D03*
D17*
X119750000Y-97120000D03*
X119750000Y-99660000D03*
X119750000Y-102200000D03*
X119750000Y-104740000D03*
X119750000Y-107280000D03*
X119750000Y-109820000D03*
X119750000Y-112360000D03*
X119750000Y-114900000D03*
X119750000Y-117440000D03*
X119750000Y-119980000D03*
X119750000Y-122520000D03*
X119750000Y-125060000D03*
X119750000Y-127600000D03*
X119750000Y-130140000D03*
X119750000Y-132680000D03*
X145150000Y-97120000D03*
X145150000Y-99660000D03*
X145150000Y-102200000D03*
X145150000Y-104740000D03*
X145150000Y-107280000D03*
X145150000Y-109820000D03*
X145150000Y-112360000D03*
X145150000Y-114900000D03*
X145150000Y-117440000D03*
X145150000Y-119980000D03*
X145150000Y-122520000D03*
X145150000Y-125060000D03*
X145150000Y-127600000D03*
X145150000Y-130140000D03*
X145150000Y-132680000D03*
D23*
X128200000Y-125900000D03*
X135800000Y-125900000D03*
X124800000Y-125900000D03*
X139300000Y-125900000D03*
X125100000Y-148800000D03*
X139300000Y-148800000D03*
D24*
X141500000Y-66300000D03*
D25*
X138960000Y-66300000D03*
M02*
